<mxfile host="app.diagrams.net" modified="2024-06-21T03:56:31.467Z" agent="Mozilla/5.0 (Macintosh; Intel Mac OS X 10_15_7) AppleWebKit/537.36 (KHTML, like Gecko) Chrome/126.0.0.0 Safari/537.36" etag="Vkn8_5MhLJZDz98HYsoH" version="24.6.0" type="github">
  <diagram name="Page-1" id="6Q5THwIDzIaW8luKvLqF">
    <mxGraphModel dx="715" dy="820" grid="1" gridSize="10" guides="1" tooltips="1" connect="1" arrows="1" fold="1" page="1" pageScale="1" pageWidth="900" pageHeight="1600" math="0" shadow="0">
      <root>
        <mxCell id="0" />
        <mxCell id="1" parent="0" />
        <UserObject label="" tags="Background" id="p5UnvhGX0PjjsRk6D67m-13">
          <mxCell style="vsdxID=13;fillColor=#b4d8d5;gradientColor=none;shape=stencil(nZBRDoQgDERP03+WHsHFe5iISyOCQdT19kIaIxq//Jtp3zTpAFaTaUYNUkwx+F6v1EYD+AUpyRkdKCYFqACrzgf9C352LfuxyWRWg1/yhT/nRE5IsZWuZtCSK8CPeI0e/hF+jV7AJM4PO7KWCyr390bSiNtEtQM=);strokeColor=#36a9cc;strokeWidth=2;spacingTop=-3;spacingBottom=-3;spacingLeft=-3;spacingRight=-3;points=[];labelBackgroundColor=none;rounded=0;html=1;whiteSpace=wrap;" vertex="1" parent="1">
            <mxGeometry x="4218" y="947" width="411" height="165" as="geometry" />
          </mxCell>
        </UserObject>
        <UserObject label="" tags="Background" id="p5UnvhGX0PjjsRk6D67m-17">
          <mxCell style="vsdxID=17;fillColor=#f4c18f;gradientColor=none;shape=stencil(jZFRDsIgEERPs58aYGM9QK33aCwVIkJDqdbbC1mbKiGmfzvDWyaZBaxH1Q4SBBuDdzf51F1QgCcQQlslvQ5xAmwA6955efVush3poU1kmu7ukX6YaY+lDcFepA4kz0ReJk8o/2U/cserfXUkbxbkcbZAogBhDuGW2BVfjEJwFssLsX9DjbYbW4nDWmavjaFbfL/n5UeLDofNGw==);strokeColor=#36a9cc;strokeWidth=2;spacingTop=-3;spacingBottom=-3;spacingLeft=-3;spacingRight=-3;points=[];labelBackgroundColor=none;rounded=0;html=1;whiteSpace=wrap;" vertex="1" parent="1">
            <mxGeometry x="2304" y="1769" width="491" height="447" as="geometry" />
          </mxCell>
        </UserObject>
        <UserObject label="" tags="Background" id="p5UnvhGX0PjjsRk6D67m-18">
          <mxCell style="vsdxID=18;fillColor=#f4c18f;gradientColor=none;shape=stencil(jZFRDsIgEERPs58aYGM9QK33aCwVIkJDqdbbC1mbKiGmfzvDWyaZBaxH1Q4SBBuDdzf51F1QgCcQQlslvQ5xAmwA6955efVush3poU1kmu7ukX6YaY+lDcFepA4kz0ReJk8o/2U/cserfXUkbxbkcbZAogBhDuGW2BVfjEJwFssLsX9DjbYbW4nDWmavjaFbfL/n5UeLDofNGw==);strokeColor=#36a9cc;strokeWidth=2;spacingTop=-3;spacingBottom=-3;spacingLeft=-3;spacingRight=-3;points=[];labelBackgroundColor=none;rounded=0;html=1;whiteSpace=wrap;" vertex="1" parent="1">
            <mxGeometry x="2795" y="1910" width="252" height="237" as="geometry" />
          </mxCell>
        </UserObject>
        <UserObject label="" tags="Background" id="p5UnvhGX0PjjsRk6D67m-19">
          <mxCell style="vsdxID=19;fillColor=#f4c18f;gradientColor=none;shape=stencil(jZFRDsIgEERPs58aYGM9QK33aCwVIkJDqdbbC1mbKiGmfzvDWyaZBaxH1Q4SBBuDdzf51F1QgCcQQlslvQ5xAmwA6955efVush3poU1kmu7ukX6YaY+lDcFepA4kz0ReJk8o/2U/cserfXUkbxbkcbZAogBhDuGW2BVfjEJwFssLsX9DjbYbW4nDWmavjaFbfL/n5UeLDofNGw==);strokeColor=#36a9cc;strokeWidth=2;spacingTop=-3;spacingBottom=-3;spacingLeft=-3;spacingRight=-3;points=[];labelBackgroundColor=none;rounded=0;html=1;whiteSpace=wrap;" vertex="1" parent="1">
            <mxGeometry x="3049" y="2024" width="108" height="91" as="geometry" />
          </mxCell>
        </UserObject>
        <UserObject label="" tags="Background" id="p5UnvhGX0PjjsRk6D67m-20">
          <mxCell style="vsdxID=20;fillColor=#b4d8d5;gradientColor=none;shape=stencil(lVLLDoMgEPwargYWTfRs7X+YiJXUisVH7d8Xig9AY9PbPmaZmWURTbsqbxkC3PVS3NmLF32F6AUB8KZikvcqQjRDNC2FZDcphqYweZtrpI4eYtQvTGYO6wnAb5ORIIJv4WqwzyEvNJa4YDedYBkOyQwAGzC/VfPG4k3iIEocbnxCTPAP6rUPx0Zc8g2+ignjf+jXwiLAtuNpOlaw7eoQfb74Hb3nfufHJT//cxVsx1Lyuja3Zvf941Ilc5g0+wA=);strokeColor=#36a9cc;strokeWidth=2;spacingTop=-3;spacingBottom=-3;spacingLeft=-3;spacingRight=-3;points=[];labelBackgroundColor=none;rounded=0;html=1;whiteSpace=wrap;" vertex="1" parent="1">
            <mxGeometry x="1582" y="327" width="283" height="263" as="geometry" />
          </mxCell>
        </UserObject>
        <UserObject label="" tags="Background" id="p5UnvhGX0PjjsRk6D67m-50">
          <mxCell style="vsdxID=50;fillColor=#b4d8d5;gradientColor=none;shape=stencil(nZBRDoQgDERP03+WHsHFe5iISyOCQdT19kIaIxq//Jtp3zTpAFaTaUYNUkwx+F6v1EYD+AUpyRkdKCYFqACrzgf9C352LfuxyWRWg1/yhT/nRE5IsZWuZtCSK8CPeI0e/hF+jV7AJM4PO7KWCyr390bSiNtEtQM=);dashed=1;strokeColor=#36a9cc;strokeWidth=2;spacingTop=-3;spacingBottom=-3;spacingLeft=-3;spacingRight=-3;points=[];labelBackgroundColor=none;rounded=0;html=1;whiteSpace=wrap;" vertex="1" parent="1">
            <mxGeometry x="1582" y="483" width="283" height="102" as="geometry" />
          </mxCell>
        </UserObject>
        <UserObject label="&lt;div style=&quot;font-size: 1px&quot;&gt;&lt;p style=&quot;text-align:center;margin-left:0;margin-right:0;margin-top:0px;margin-bottom:0px;text-indent:0;vertical-align:middle;direction:ltr;&quot;&gt;&lt;font style=&quot;font-size:13px;font-family:0;color:#15475b;direction:ltr;letter-spacing:0px;line-height:120%;opacity:1&quot;&gt;&lt;br/&gt;&lt;/font&gt;&lt;/p&gt;&lt;/div&gt;" tags="Background" id="p5UnvhGX0PjjsRk6D67m-66">
          <mxCell style="verticalAlign=middle;align=center;overflow=width;vsdxID=66;fillColor=#b4d8d5;gradientColor=none;shape=stencil(nZBRDoQgDERP03+WHsHFe5iISyOCQdT19kIaIxq//Jtp3zTpAFaTaUYNUkwx+F6v1EYD+AUpyRkdKCYFqACrzgf9C352LfuxyWRWg1/yhT/nRE5IsZWuZtCSK8CPeI0e/hF+jV7AJM4PO7KWCyr390bSiNtEtQM=);strokeColor=#36a9cc;strokeWidth=2;spacingTop=-3;spacingBottom=-3;spacingLeft=-3;spacingRight=-3;points=[];labelBackgroundColor=none;rounded=0;html=1;whiteSpace=wrap;" vertex="1" parent="1">
            <mxGeometry x="1546" y="119" width="140" height="123" as="geometry" />
          </mxCell>
        </UserObject>
        <UserObject label="&lt;div style=&quot;font-size: 1px&quot;&gt;&lt;p style=&quot;text-align:center;margin-left:0;margin-right:0;margin-top:0px;margin-bottom:0px;text-indent:0;vertical-align:middle;direction:ltr;&quot;&gt;&lt;font style=&quot;font-size:13px;font-family:0;color:#15475b;direction:ltr;letter-spacing:0px;line-height:120%;opacity:1&quot;&gt;创世块&lt;/font&gt;&lt;/p&gt;&lt;/div&gt;" tags="Background" id="p5UnvhGX0PjjsRk6D67m-67">
          <mxCell style="verticalAlign=middle;align=center;overflow=width;vsdxID=67;fillColor=#b4d8d5;gradientColor=none;shape=stencil(hZLBDoIwDIafZkfJaIPRM+J7EBmyiIyMofj2blZkMCK3tvva/m3HMO2qvBUMeGe0uomnLEzF8MQAZFMJLY21GGYM01JpcdWqbwry29yRzrqrh6swUF68j3jisoC/KMI/3pngWjYefMDo+Ae+9JpKx9/aPIlw5GM/gQ+wgvxiI4RhW5wzqzLDmRb4Uugu1DmJgJCB+SwYtsXNXW4s3hrTyUpZ13Rx/315Yhui74HZGw==);strokeColor=#36a9cc;strokeWidth=2;spacingTop=-3;spacingBottom=-3;spacingLeft=-3;spacingRight=-3;points=[];labelBackgroundColor=none;rounded=0;html=1;whiteSpace=wrap;" vertex="1" parent="1">
            <mxGeometry x="1357" y="155" width="108" height="52" as="geometry" />
          </mxCell>
        </UserObject>
        <UserObject label="&lt;div style=&quot;font-size: 1px&quot;&gt;&lt;p style=&quot;text-align:center;margin-left:0;margin-right:0;margin-top:0px;margin-bottom:0px;text-indent:0;vertical-align:middle;direction:ltr;&quot;&gt;&lt;font style=&quot;font-size:13px;font-family:0;color:#15475b;direction:ltr;letter-spacing:0px;line-height:120%;opacity:1&quot;&gt;交易1&lt;/font&gt;&lt;/p&gt;&lt;/div&gt;" tags="Background" id="p5UnvhGX0PjjsRk6D67m-68">
          <mxCell style="verticalAlign=middle;align=center;overflow=width;vsdxID=68;fillColor=#b4d8d5;gradientColor=none;shape=stencil(nZBRDoQgDERP03+WHsHFe5iISyOCQdT19kIaIxq//Jtp3zTpAFaTaUYNUkwx+F6v1EYD+AUpyRkdKCYFqACrzgf9C352LfuxyWRWg1/yhT/nRE5IsZWuZtCSK8CPeI0e/hF+jV7AJM4PO7KWCyr390bSiNtEtQM=);strokeColor=#36a9cc;strokeWidth=2;spacingTop=-3;spacingBottom=-3;spacingLeft=-3;spacingRight=-3;points=[];labelBackgroundColor=none;rounded=0;html=1;whiteSpace=wrap;" vertex="1" parent="1">
            <mxGeometry x="1620" y="497" width="30" height="74" as="geometry" />
          </mxCell>
        </UserObject>
        <UserObject label="&lt;div style=&quot;font-size: 1px&quot;&gt;&lt;p style=&quot;text-align:center;margin-left:0;margin-right:0;margin-top:0px;margin-bottom:0px;text-indent:0;vertical-align:middle;direction:ltr;&quot;&gt;&lt;font style=&quot;font-size:13px;font-family:0;color:#15475b;direction:ltr;letter-spacing:0px;line-height:120%;opacity:1&quot;&gt;交易2&lt;/font&gt;&lt;/p&gt;&lt;/div&gt;" tags="Background" id="p5UnvhGX0PjjsRk6D67m-69">
          <mxCell style="verticalAlign=middle;align=center;overflow=width;vsdxID=69;fillColor=#b4d8d5;gradientColor=none;shape=stencil(nZBRDoQgDERP03+WHsHFe5iISyOCQdT19kIaIxq//Jtp3zTpAFaTaUYNUkwx+F6v1EYD+AUpyRkdKCYFqACrzgf9C352LfuxyWRWg1/yhT/nRE5IsZWuZtCSK8CPeI0e/hF+jV7AJM4PO7KWCyr390bSiNtEtQM=);strokeColor=#36a9cc;strokeWidth=2;spacingTop=-3;spacingBottom=-3;spacingLeft=-3;spacingRight=-3;points=[];labelBackgroundColor=none;rounded=0;html=1;whiteSpace=wrap;" vertex="1" parent="1">
            <mxGeometry x="1682" y="497" width="30" height="74" as="geometry" />
          </mxCell>
        </UserObject>
        <UserObject label="&lt;div style=&quot;font-size: 1px&quot;&gt;&lt;p style=&quot;text-align:center;margin-left:0;margin-right:0;margin-top:0px;margin-bottom:0px;text-indent:0;vertical-align:middle;direction:ltr;&quot;&gt;&lt;font style=&quot;font-size:13px;font-family:0;color:#15475b;direction:ltr;letter-spacing:0px;line-height:120%;opacity:1&quot;&gt;交易3&lt;/font&gt;&lt;/p&gt;&lt;/div&gt;" tags="Background" id="p5UnvhGX0PjjsRk6D67m-70">
          <mxCell style="verticalAlign=middle;align=center;overflow=width;vsdxID=70;fillColor=#b4d8d5;gradientColor=none;shape=stencil(nZBRDoQgDERP03+WHsHFe5iISyOCQdT19kIaIxq//Jtp3zTpAFaTaUYNUkwx+F6v1EYD+AUpyRkdKCYFqACrzgf9C352LfuxyWRWg1/yhT/nRE5IsZWuZtCSK8CPeI0e/hF+jV7AJM4PO7KWCyr390bSiNtEtQM=);strokeColor=#36a9cc;strokeWidth=2;spacingTop=-3;spacingBottom=-3;spacingLeft=-3;spacingRight=-3;points=[];labelBackgroundColor=none;rounded=0;html=1;whiteSpace=wrap;" vertex="1" parent="1">
            <mxGeometry x="1744" y="497" width="30" height="74" as="geometry" />
          </mxCell>
        </UserObject>
        <UserObject label="&lt;div style=&quot;font-size: 1px&quot;&gt;&lt;p style=&quot;text-align:center;margin-left:0;margin-right:0;margin-top:0px;margin-bottom:0px;text-indent:0;vertical-align:middle;direction:ltr;&quot;&gt;&lt;font style=&quot;font-size:13px;font-family:0;color:#15475b;direction:ltr;letter-spacing:0px;line-height:120%;opacity:1&quot;&gt;交易5&lt;/font&gt;&lt;/p&gt;&lt;/div&gt;" tags="Background" id="p5UnvhGX0PjjsRk6D67m-71">
          <mxCell style="verticalAlign=middle;align=center;overflow=width;vsdxID=71;fillColor=#b4d8d5;gradientColor=none;shape=stencil(nZBRDoQgDERP03+WHsHFe5iISyOCQdT19kIaIxq//Jtp3zTpAFaTaUYNUkwx+F6v1EYD+AUpyRkdKCYFqACrzgf9C352LfuxyWRWg1/yhT/nRE5IsZWuZtCSK8CPeI0e/hF+jV7AJM4PO7KWCyr390bSiNtEtQM=);strokeColor=#36a9cc;strokeWidth=2;spacingTop=-3;spacingBottom=-3;spacingLeft=-3;spacingRight=-3;points=[];labelBackgroundColor=none;rounded=0;html=1;whiteSpace=wrap;" vertex="1" parent="1">
            <mxGeometry x="1802" y="497" width="30" height="74" as="geometry" />
          </mxCell>
        </UserObject>
        <UserObject label="&lt;div style=&quot;font-size: 1px&quot;&gt;&lt;p style=&quot;text-align:center;margin-left:0;margin-right:0;margin-top:0px;margin-bottom:0px;text-indent:0;vertical-align:middle;direction:ltr;&quot;&gt;&lt;font style=&quot;font-size:13px;font-family:0;color:#15475b;direction:ltr;letter-spacing:0px;line-height:120%;opacity:1&quot;&gt;hash&lt;/font&gt;&lt;/p&gt;&lt;/div&gt;" tags="Background" id="p5UnvhGX0PjjsRk6D67m-72">
          <mxCell style="verticalAlign=middle;align=center;overflow=width;vsdxID=72;fillColor=#b4d8d5;gradientColor=none;shape=stencil(nZBRDoQgDERP03+WHsHFe5iISyOCQdT19kIaIxq//Jtp3zTpAFaTaUYNUkwx+F6v1EYD+AUpyRkdKCYFqACrzgf9C352LfuxyWRWg1/yhT/nRE5IsZWuZtCSK8CPeI0e/hF+jV7AJM4PO7KWCyr390bSiNtEtQM=);strokeColor=#36a9cc;strokeWidth=2;spacingTop=-3;spacingBottom=-3;spacingLeft=-3;spacingRight=-3;points=[];labelBackgroundColor=none;rounded=0;html=1;whiteSpace=wrap;" vertex="1" parent="1">
            <mxGeometry x="1652" y="395" width="52" height="28" as="geometry" />
          </mxCell>
        </UserObject>
        <UserObject label="&lt;div style=&quot;font-size: 1px&quot;&gt;&lt;p style=&quot;text-align:center;margin-left:0;margin-right:0;margin-top:0px;margin-bottom:0px;text-indent:0;vertical-align:middle;direction:ltr;&quot;&gt;&lt;font style=&quot;font-size:13px;font-family:0;color:#15475b;direction:ltr;letter-spacing:0px;line-height:120%;opacity:1&quot;&gt;hash&lt;/font&gt;&lt;/p&gt;&lt;/div&gt;" tags="Background" id="p5UnvhGX0PjjsRk6D67m-73">
          <mxCell style="verticalAlign=middle;align=center;overflow=width;vsdxID=73;fillColor=#b4d8d5;gradientColor=none;shape=stencil(nZBRDoQgDERP03+WHsHFe5iISyOCQdT19kIaIxq//Jtp3zTpAFaTaUYNUkwx+F6v1EYD+AUpyRkdKCYFqACrzgf9C352LfuxyWRWg1/yhT/nRE5IsZWuZtCSK8CPeI0e/hF+jV7AJM4PO7KWCyr390bSiNtEtQM=);strokeColor=#36a9cc;strokeWidth=2;spacingTop=-3;spacingBottom=-3;spacingLeft=-3;spacingRight=-3;points=[];labelBackgroundColor=none;rounded=0;html=1;whiteSpace=wrap;" vertex="1" parent="1">
            <mxGeometry x="1733" y="395" width="52" height="28" as="geometry" />
          </mxCell>
        </UserObject>
        <UserObject label="&lt;div style=&quot;font-size: 1px&quot;&gt;&lt;p style=&quot;text-align:center;margin-left:0;margin-right:0;margin-top:0px;margin-bottom:0px;text-indent:0;vertical-align:middle;direction:ltr;&quot;&gt;&lt;font style=&quot;font-size:13px;font-family:0;color:#15475b;direction:ltr;letter-spacing:0px;line-height:120%;opacity:1&quot;&gt;hash&lt;/font&gt;&lt;/p&gt;&lt;/div&gt;" tags="Background" id="p5UnvhGX0PjjsRk6D67m-74">
          <mxCell style="verticalAlign=middle;align=center;overflow=width;vsdxID=74;fillColor=#b4d8d5;gradientColor=none;shape=stencil(nZBRDoQgDERP03+WHsHFe5iISyOCQdT19kIaIxq//Jtp3zTpAFaTaUYNUkwx+F6v1EYD+AUpyRkdKCYFqACrzgf9C352LfuxyWRWg1/yhT/nRE5IsZWuZtCSK8CPeI0e/hF+jV7AJM4PO7KWCyr390bSiNtEtQM=);strokeColor=#36a9cc;strokeWidth=2;spacingTop=-3;spacingBottom=-3;spacingLeft=-3;spacingRight=-3;points=[];labelBackgroundColor=none;rounded=0;html=1;whiteSpace=wrap;" vertex="1" parent="1">
            <mxGeometry x="1695" y="339" width="52" height="28" as="geometry" />
          </mxCell>
        </UserObject>
        <UserObject label="&lt;div style=&quot;font-size: 1px&quot;&gt;&lt;p style=&quot;text-align:center;margin-left:0;margin-right:0;margin-top:0px;margin-bottom:0px;text-indent:0;vertical-align:middle;direction:ltr;&quot;&gt;&lt;font style=&quot;font-size:13px;font-family:0;color:#15475b;direction:ltr;letter-spacing:0px;line-height:120%;opacity:1&quot;&gt;区块hash&lt;/font&gt;&lt;/p&gt;&lt;/div&gt;" tags="Background" id="p5UnvhGX0PjjsRk6D67m-75">
          <mxCell style="verticalAlign=middle;align=center;overflow=width;vsdxID=75;fillColor=#b4d8d5;gradientColor=none;shape=stencil(nZBRDoQgDERP03+WHsHFe5iISyOCQdT19kIaIxq//Jtp3zTpAFaTaUYNUkwx+F6v1EYD+AUpyRkdKCYFqACrzgf9C352LfuxyWRWg1/yhT/nRE5IsZWuZtCSK8CPeI0e/hF+jV7AJM4PO7KWCyr390bSiNtEtQM=);strokeColor=#36a9cc;strokeWidth=2;spacingTop=-3;spacingBottom=-3;spacingLeft=-3;spacingRight=-3;points=[];labelBackgroundColor=none;rounded=0;html=1;whiteSpace=wrap;" vertex="1" parent="1">
            <mxGeometry x="1546" y="117" width="140" height="28" as="geometry" />
          </mxCell>
        </UserObject>
        <UserObject label="&lt;div style=&quot;font-size: 1px&quot;&gt;&lt;p style=&quot;text-align:center;margin-left:0;margin-right:0;margin-top:0px;margin-bottom:0px;text-indent:0;vertical-align:middle;direction:ltr;&quot;&gt;&lt;font style=&quot;font-size:13px;font-family:0;color:#15475b;direction:ltr;letter-spacing:0px;line-height:120%;opacity:1&quot;&gt;默克尔树的根 hash&lt;/font&gt;&lt;/p&gt;&lt;/div&gt;" tags="Background" id="p5UnvhGX0PjjsRk6D67m-76">
          <mxCell style="verticalAlign=middle;align=center;overflow=width;vsdxID=76;fillColor=#b4d8d5;gradientColor=none;shape=stencil(nZBRDoQgDERP03+WHsHFe5iISyOCQdT19kIaIxq//Jtp3zTpAFaTaUYNUkwx+F6v1EYD+AUpyRkdKCYFqACrzgf9C352LfuxyWRWg1/yhT/nRE5IsZWuZtCSK8CPeI0e/hF+jV7AJM4PO7KWCyr390bSiNtEtQM=);strokeColor=#36a9cc;strokeWidth=2;spacingTop=-3;spacingBottom=-3;spacingLeft=-3;spacingRight=-3;points=[];labelBackgroundColor=none;rounded=0;html=1;whiteSpace=wrap;" vertex="1" parent="1">
            <mxGeometry x="1546" y="140" width="140" height="28" as="geometry" />
          </mxCell>
        </UserObject>
        <UserObject label="&lt;div style=&quot;font-size: 1px&quot;&gt;&lt;p style=&quot;text-align:center;margin-left:0;margin-right:0;margin-top:0px;margin-bottom:0px;text-indent:0;vertical-align:middle;direction:ltr;&quot;&gt;&lt;font style=&quot;font-size:13px;font-family:0;color:#15475b;direction:ltr;letter-spacing:0px;line-height:120%;opacity:1&quot;&gt;随机数&lt;/font&gt;&lt;/p&gt;&lt;/div&gt;" tags="Background" id="p5UnvhGX0PjjsRk6D67m-77">
          <mxCell style="verticalAlign=middle;align=center;overflow=width;vsdxID=77;fillColor=#b4d8d5;gradientColor=none;shape=stencil(nZBRDoQgDERP03+WHsHFe5iISyOCQdT19kIaIxq//Jtp3zTpAFaTaUYNUkwx+F6v1EYD+AUpyRkdKCYFqACrzgf9C352LfuxyWRWg1/yhT/nRE5IsZWuZtCSK8CPeI0e/hF+jV7AJM4PO7KWCyr390bSiNtEtQM=);strokeColor=#36a9cc;strokeWidth=2;spacingTop=-3;spacingBottom=-3;spacingLeft=-3;spacingRight=-3;points=[];labelBackgroundColor=none;rounded=0;html=1;whiteSpace=wrap;" vertex="1" parent="1">
            <mxGeometry x="1546" y="167" width="140" height="28" as="geometry" />
          </mxCell>
        </UserObject>
        <UserObject label="&lt;div style=&quot;font-size: 1px&quot;&gt;&lt;p style=&quot;text-align:center;margin-left:0;margin-right:0;margin-top:0px;margin-bottom:0px;text-indent:0;vertical-align:middle;direction:ltr;&quot;&gt;&lt;font style=&quot;font-size:13px;font-family:0;color:#15475b;direction:ltr;letter-spacing:0px;line-height:120%;opacity:1&quot;&gt;... ...&lt;/font&gt;&lt;/p&gt;&lt;/div&gt;" tags="Background" id="p5UnvhGX0PjjsRk6D67m-78">
          <mxCell style="verticalAlign=middle;align=center;overflow=width;vsdxID=78;fillColor=#b4d8d5;gradientColor=none;shape=stencil(nZBRDoQgDERP03+WHsHFe5iISyOCQdT19kIaIxq//Jtp3zTpAFaTaUYNUkwx+F6v1EYD+AUpyRkdKCYFqACrzgf9C352LfuxyWRWg1/yhT/nRE5IsZWuZtCSK8CPeI0e/hF+jV7AJM4PO7KWCyr390bSiNtEtQM=);strokeColor=#36a9cc;strokeWidth=2;spacingTop=-3;spacingBottom=-3;spacingLeft=-3;spacingRight=-3;points=[];labelBackgroundColor=none;rounded=0;html=1;whiteSpace=wrap;" vertex="1" parent="1">
            <mxGeometry x="1546" y="193" width="140" height="28" as="geometry" />
          </mxCell>
        </UserObject>
        <UserObject label="&lt;div style=&quot;font-size: 1px&quot;&gt;&lt;p style=&quot;text-align:center;margin-left:0;margin-right:0;margin-top:0px;margin-bottom:0px;text-indent:0;vertical-align:middle;direction:ltr;&quot;&gt;&lt;font style=&quot;font-size:13px;font-family:0;color:#15475b;direction:ltr;letter-spacing:0px;line-height:120%;opacity:1&quot;&gt;其他信息&lt;/font&gt;&lt;/p&gt;&lt;/div&gt;" tags="Background" id="p5UnvhGX0PjjsRk6D67m-79">
          <mxCell style="verticalAlign=middle;align=center;overflow=width;vsdxID=79;fillColor=#b4d8d5;gradientColor=none;shape=stencil(nZBRDoQgDERP03+WHsHFe5iISyOCQdT19kIaIxq//Jtp3zTpAFaTaUYNUkwx+F6v1EYD+AUpyRkdKCYFqACrzgf9C352LfuxyWRWg1/yhT/nRE5IsZWuZtCSK8CPeI0e/hF+jV7AJM4PO7KWCyr390bSiNtEtQM=);strokeColor=#36a9cc;strokeWidth=2;spacingTop=-3;spacingBottom=-3;spacingLeft=-3;spacingRight=-3;points=[];labelBackgroundColor=none;rounded=0;html=1;whiteSpace=wrap;" vertex="1" parent="1">
            <mxGeometry x="1546" y="216" width="140" height="28" as="geometry" />
          </mxCell>
        </UserObject>
        <UserObject label="&lt;div style=&quot;font-size: 1px&quot;&gt;&lt;p style=&quot;text-align:center;margin-left:0;margin-right:0;margin-top:0px;margin-bottom:0px;text-indent:0;vertical-align:middle;direction:ltr;&quot;&gt;&lt;font style=&quot;font-size:13px;font-family:0;color:#15475b;direction:ltr;letter-spacing:0px;line-height:120%;opacity:1&quot;&gt;&lt;br/&gt;&lt;/font&gt;&lt;/p&gt;&lt;/div&gt;" tags="Background" id="p5UnvhGX0PjjsRk6D67m-80">
          <mxCell style="verticalAlign=middle;align=center;overflow=width;vsdxID=80;fillColor=#b4d8d5;gradientColor=none;shape=stencil(nZBRDoQgDERP03+WHsHFe5iISyOCQdT19kIaIxq//Jtp3zTpAFaTaUYNUkwx+F6v1EYD+AUpyRkdKCYFqACrzgf9C352LfuxyWRWg1/yhT/nRE5IsZWuZtCSK8CPeI0e/hF+jV7AJM4PO7KWCyr390bSiNtEtQM=);strokeColor=#36a9cc;strokeWidth=2;spacingTop=-3;spacingBottom=-3;spacingLeft=-3;spacingRight=-3;points=[];labelBackgroundColor=none;rounded=0;html=1;whiteSpace=wrap;" vertex="1" parent="1">
            <mxGeometry x="1817" y="119" width="140" height="123" as="geometry" />
          </mxCell>
        </UserObject>
        <UserObject label="&lt;div style=&quot;font-size: 1px&quot;&gt;&lt;p style=&quot;text-align:center;margin-left:0;margin-right:0;margin-top:0px;margin-bottom:0px;text-indent:0;vertical-align:middle;direction:ltr;&quot;&gt;&lt;font style=&quot;font-size:13px;font-family:0;color:#15475b;direction:ltr;letter-spacing:0px;line-height:120%;opacity:1&quot;&gt;区块hash&lt;/font&gt;&lt;/p&gt;&lt;/div&gt;" tags="Background" id="p5UnvhGX0PjjsRk6D67m-81">
          <mxCell style="verticalAlign=middle;align=center;overflow=width;vsdxID=81;fillColor=#b4d8d5;gradientColor=none;shape=stencil(nZBRDoQgDERP03+WHsHFe5iISyOCQdT19kIaIxq//Jtp3zTpAFaTaUYNUkwx+F6v1EYD+AUpyRkdKCYFqACrzgf9C352LfuxyWRWg1/yhT/nRE5IsZWuZtCSK8CPeI0e/hF+jV7AJM4PO7KWCyr390bSiNtEtQM=);strokeColor=#36a9cc;strokeWidth=2;spacingTop=-3;spacingBottom=-3;spacingLeft=-3;spacingRight=-3;points=[];labelBackgroundColor=none;rounded=0;html=1;whiteSpace=wrap;" vertex="1" parent="1">
            <mxGeometry x="1817" y="117" width="140" height="28" as="geometry" />
          </mxCell>
        </UserObject>
        <UserObject label="&lt;div style=&quot;font-size: 1px&quot;&gt;&lt;p style=&quot;text-align:center;margin-left:0;margin-right:0;margin-top:0px;margin-bottom:0px;text-indent:0;vertical-align:middle;direction:ltr;&quot;&gt;&lt;font style=&quot;font-size:13px;font-family:0;color:#15475b;direction:ltr;letter-spacing:0px;line-height:120%;opacity:1&quot;&gt;默克尔树的根 hash&lt;/font&gt;&lt;/p&gt;&lt;/div&gt;" tags="Background" id="p5UnvhGX0PjjsRk6D67m-82">
          <mxCell style="verticalAlign=middle;align=center;overflow=width;vsdxID=82;fillColor=#b4d8d5;gradientColor=none;shape=stencil(nZBRDoQgDERP03+WHsHFe5iISyOCQdT19kIaIxq//Jtp3zTpAFaTaUYNUkwx+F6v1EYD+AUpyRkdKCYFqACrzgf9C352LfuxyWRWg1/yhT/nRE5IsZWuZtCSK8CPeI0e/hF+jV7AJM4PO7KWCyr390bSiNtEtQM=);strokeColor=#36a9cc;strokeWidth=2;spacingTop=-3;spacingBottom=-3;spacingLeft=-3;spacingRight=-3;points=[];labelBackgroundColor=none;rounded=0;html=1;whiteSpace=wrap;" vertex="1" parent="1">
            <mxGeometry x="1817" y="140" width="140" height="28" as="geometry" />
          </mxCell>
        </UserObject>
        <UserObject label="&lt;div style=&quot;font-size: 1px&quot;&gt;&lt;p style=&quot;text-align:center;margin-left:0;margin-right:0;margin-top:0px;margin-bottom:0px;text-indent:0;vertical-align:middle;direction:ltr;&quot;&gt;&lt;font style=&quot;font-size:13px;font-family:0;color:#15475b;direction:ltr;letter-spacing:0px;line-height:120%;opacity:1&quot;&gt;随机数&lt;/font&gt;&lt;/p&gt;&lt;/div&gt;" tags="Background" id="p5UnvhGX0PjjsRk6D67m-83">
          <mxCell style="verticalAlign=middle;align=center;overflow=width;vsdxID=83;fillColor=#b4d8d5;gradientColor=none;shape=stencil(nZBRDoQgDERP03+WHsHFe5iISyOCQdT19kIaIxq//Jtp3zTpAFaTaUYNUkwx+F6v1EYD+AUpyRkdKCYFqACrzgf9C352LfuxyWRWg1/yhT/nRE5IsZWuZtCSK8CPeI0e/hF+jV7AJM4PO7KWCyr390bSiNtEtQM=);strokeColor=#36a9cc;strokeWidth=2;spacingTop=-3;spacingBottom=-3;spacingLeft=-3;spacingRight=-3;points=[];labelBackgroundColor=none;rounded=0;html=1;whiteSpace=wrap;" vertex="1" parent="1">
            <mxGeometry x="1817" y="167" width="140" height="28" as="geometry" />
          </mxCell>
        </UserObject>
        <UserObject label="&lt;div style=&quot;font-size: 1px&quot;&gt;&lt;p style=&quot;text-align:center;margin-left:0;margin-right:0;margin-top:0px;margin-bottom:0px;text-indent:0;vertical-align:middle;direction:ltr;&quot;&gt;&lt;font style=&quot;font-size:13px;font-family:0;color:#15475b;direction:ltr;letter-spacing:0px;line-height:120%;opacity:1&quot;&gt;... ...&lt;/font&gt;&lt;/p&gt;&lt;/div&gt;" tags="Background" id="p5UnvhGX0PjjsRk6D67m-84">
          <mxCell style="verticalAlign=middle;align=center;overflow=width;vsdxID=84;fillColor=#b4d8d5;gradientColor=none;shape=stencil(nZBRDoQgDERP03+WHsHFe5iISyOCQdT19kIaIxq//Jtp3zTpAFaTaUYNUkwx+F6v1EYD+AUpyRkdKCYFqACrzgf9C352LfuxyWRWg1/yhT/nRE5IsZWuZtCSK8CPeI0e/hF+jV7AJM4PO7KWCyr390bSiNtEtQM=);strokeColor=#36a9cc;strokeWidth=2;spacingTop=-3;spacingBottom=-3;spacingLeft=-3;spacingRight=-3;points=[];labelBackgroundColor=none;rounded=0;html=1;whiteSpace=wrap;" vertex="1" parent="1">
            <mxGeometry x="1817" y="193" width="140" height="28" as="geometry" />
          </mxCell>
        </UserObject>
        <UserObject label="&lt;div style=&quot;font-size: 1px&quot;&gt;&lt;p style=&quot;text-align:center;margin-left:0;margin-right:0;margin-top:0px;margin-bottom:0px;text-indent:0;vertical-align:middle;direction:ltr;&quot;&gt;&lt;font style=&quot;font-size:13px;font-family:0;color:#15475b;direction:ltr;letter-spacing:0px;line-height:120%;opacity:1&quot;&gt;其他信息&lt;/font&gt;&lt;/p&gt;&lt;/div&gt;" tags="Background" id="p5UnvhGX0PjjsRk6D67m-85">
          <mxCell style="verticalAlign=middle;align=center;overflow=width;vsdxID=85;fillColor=#b4d8d5;gradientColor=none;shape=stencil(nZBRDoQgDERP03+WHsHFe5iISyOCQdT19kIaIxq//Jtp3zTpAFaTaUYNUkwx+F6v1EYD+AUpyRkdKCYFqACrzgf9C352LfuxyWRWg1/yhT/nRE5IsZWuZtCSK8CPeI0e/hF+jV7AJM4PO7KWCyr390bSiNtEtQM=);strokeColor=#36a9cc;strokeWidth=2;spacingTop=-3;spacingBottom=-3;spacingLeft=-3;spacingRight=-3;points=[];labelBackgroundColor=none;rounded=0;html=1;whiteSpace=wrap;" vertex="1" parent="1">
            <mxGeometry x="1817" y="216" width="140" height="28" as="geometry" />
          </mxCell>
        </UserObject>
        <UserObject label="&lt;div style=&quot;font-size: 1px&quot;&gt;&lt;p style=&quot;text-align:center;margin-left:0;margin-right:0;margin-top:0px;margin-bottom:0px;text-indent:0;vertical-align:middle;direction:ltr;&quot;&gt;&lt;font style=&quot;font-size:13px;font-family:0;color:#15475b;direction:ltr;letter-spacing:0px;line-height:120%;opacity:1&quot;&gt;时间戳&lt;/font&gt;&lt;/p&gt;&lt;/div&gt;" tags="Background" id="p5UnvhGX0PjjsRk6D67m-86">
          <mxCell style="verticalAlign=middle;align=center;overflow=width;vsdxID=86;fillColor=#b4d8d5;gradientColor=none;shape=stencil(nZBRDoQgDERP03+WHsHFe5iISyOCQdT19kIaIxq//Jtp3zTpAFaTaUYNUkwx+F6v1EYD+AUpyRkdKCYFqACrzgf9C352LfuxyWRWg1/yhT/nRE5IsZWuZtCSK8CPeI0e/hF+jV7AJM4PO7KWCyr390bSiNtEtQM=);strokeColor=#36a9cc;strokeWidth=2;spacingTop=-3;spacingBottom=-3;spacingLeft=-3;spacingRight=-3;points=[];labelBackgroundColor=none;rounded=0;html=1;whiteSpace=wrap;" vertex="1" parent="1">
            <mxGeometry x="1546" y="94" width="140" height="28" as="geometry" />
          </mxCell>
        </UserObject>
        <UserObject label="&lt;div style=&quot;font-size: 1px&quot;&gt;&lt;p style=&quot;text-align:center;margin-left:0;margin-right:0;margin-top:0px;margin-bottom:0px;text-indent:0;vertical-align:middle;direction:ltr;&quot;&gt;&lt;font style=&quot;font-size:13px;font-family:0;color:#15475b;direction:ltr;letter-spacing:0px;line-height:120%;opacity:1&quot;&gt;时间戳&lt;/font&gt;&lt;/p&gt;&lt;/div&gt;" tags="Background" id="p5UnvhGX0PjjsRk6D67m-87">
          <mxCell style="verticalAlign=middle;align=center;overflow=width;vsdxID=87;fillColor=#b4d8d5;gradientColor=none;shape=stencil(nZBRDoQgDERP03+WHsHFe5iISyOCQdT19kIaIxq//Jtp3zTpAFaTaUYNUkwx+F6v1EYD+AUpyRkdKCYFqACrzgf9C352LfuxyWRWg1/yhT/nRE5IsZWuZtCSK8CPeI0e/hF+jV7AJM4PO7KWCyr390bSiNtEtQM=);strokeColor=#36a9cc;strokeWidth=2;spacingTop=-3;spacingBottom=-3;spacingLeft=-3;spacingRight=-3;points=[];labelBackgroundColor=none;rounded=0;html=1;whiteSpace=wrap;" vertex="1" parent="1">
            <mxGeometry x="1817" y="94" width="140" height="28" as="geometry" />
          </mxCell>
        </UserObject>
        <UserObject label="&lt;div style=&quot;font-size: 1px&quot;&gt;&lt;p style=&quot;text-align:center;margin-left:0;margin-right:0;margin-top:0px;margin-bottom:0px;text-indent:0;vertical-align:middle;direction:ltr;&quot;&gt;&lt;font style=&quot;font-size:13px;font-family:0;color:#15475b;direction:ltr;letter-spacing:0px;line-height:120%;opacity:1&quot;&gt;大概 200 字节&lt;/font&gt;&lt;/p&gt;&lt;/div&gt;" tags="Background" id="p5UnvhGX0PjjsRk6D67m-88">
          <mxCell style="verticalAlign=middle;align=center;overflow=width;vsdxID=88;fillColor=#f4c18f;gradientColor=none;shape=stencil(nZBRDoQgDERP03+WHsHFe5iISyOCQdT19kIaIxq//Jtp3zTpAFaTaUYNUkwx+F6v1EYD+AUpyRkdKCYFqACrzgf9C352LfuxyWRWg1/yhT/nRE5IsZWuZtCSK8CPeI0e/hF+jV7AJM4PO7KWCyr390bSiNtEtQM=);strokeColor=#36a9cc;strokeWidth=2;spacingTop=-3;spacingBottom=-3;spacingLeft=-3;spacingRight=-3;points=[];labelBackgroundColor=none;rounded=0;html=1;whiteSpace=wrap;" vertex="1" parent="1">
            <mxGeometry x="1546" y="51" width="140" height="28" as="geometry" />
          </mxCell>
        </UserObject>
        <UserObject label="&lt;div style=&quot;font-size: 1px&quot;&gt;&lt;p style=&quot;text-align:center;margin-left:0;margin-right:0;margin-top:0px;margin-bottom:0px;text-indent:0;vertical-align:middle;direction:ltr;&quot;&gt;&lt;font style=&quot;font-size:13px;font-family:0;color:#15475b;direction:ltr;letter-spacing:0px;line-height:120%;opacity:1&quot;&gt;大概 &lt;/font&gt;&lt;font style=&quot;font-size:13px;font-family:0;color:#15475b;direction:ltr;letter-spacing:0px;line-height:120%;opacity:1&quot;&gt;200 字节&lt;/font&gt;&lt;/p&gt;&lt;/div&gt;" tags="Background" id="p5UnvhGX0PjjsRk6D67m-89">
          <mxCell style="verticalAlign=middle;align=center;overflow=width;vsdxID=89;fillColor=#f4c18f;gradientColor=none;shape=stencil(nZBRDoQgDERP03+WHsHFe5iISyOCQdT19kIaIxq//Jtp3zTpAFaTaUYNUkwx+F6v1EYD+AUpyRkdKCYFqACrzgf9C352LfuxyWRWg1/yhT/nRE5IsZWuZtCSK8CPeI0e/hF+jV7AJM4PO7KWCyr390bSiNtEtQM=);strokeColor=#36a9cc;strokeWidth=2;spacingTop=-3;spacingBottom=-3;spacingLeft=-3;spacingRight=-3;points=[];labelBackgroundColor=none;rounded=0;html=1;whiteSpace=wrap;" vertex="1" parent="1">
            <mxGeometry x="1817" y="51" width="140" height="28" as="geometry" />
          </mxCell>
        </UserObject>
        <UserObject label="&lt;div style=&quot;font-size: 1px&quot;&gt;&lt;p style=&quot;text-align:center;margin-left:0;margin-right:0;margin-top:0px;margin-bottom:0px;text-indent:0;vertical-align:middle;direction:ltr;&quot;&gt;&lt;font style=&quot;font-size:13px;font-family:0;color:#15475b;direction:ltr;letter-spacing:0px;line-height:120%;opacity:1&quot;&gt;&lt;br/&gt;&lt;/font&gt;&lt;/p&gt;&lt;/div&gt;" tags="Background" id="p5UnvhGX0PjjsRk6D67m-90">
          <mxCell style="verticalAlign=middle;align=center;overflow=width;vsdxID=90;fillColor=#b4d8d5;gradientColor=none;shape=stencil(nZBRDoQgDERP03+WHsHFe5iISyOCQdT19kIaIxq//Jtp3zTpAFaTaUYNUkwx+F6v1EYD+AUpyRkdKCYFqACrzgf9C352LfuxyWRWg1/yhT/nRE5IsZWuZtCSK8CPeI0e/hF+jV7AJM4PO7KWCyr390bSiNtEtQM=);strokeColor=#36a9cc;strokeWidth=2;spacingTop=-3;spacingBottom=-3;spacingLeft=-3;spacingRight=-3;points=[];labelBackgroundColor=none;rounded=0;html=1;whiteSpace=wrap;" vertex="1" parent="1">
            <mxGeometry x="2098" y="119" width="140" height="123" as="geometry" />
          </mxCell>
        </UserObject>
        <UserObject label="&lt;div style=&quot;font-size: 1px&quot;&gt;&lt;p style=&quot;text-align:center;margin-left:0;margin-right:0;margin-top:0px;margin-bottom:0px;text-indent:0;vertical-align:middle;direction:ltr;&quot;&gt;&lt;font style=&quot;font-size:13px;font-family:0;color:#15475b;direction:ltr;letter-spacing:0px;line-height:120%;opacity:1&quot;&gt;区块hash&lt;/font&gt;&lt;/p&gt;&lt;/div&gt;" tags="Background" id="p5UnvhGX0PjjsRk6D67m-91">
          <mxCell style="verticalAlign=middle;align=center;overflow=width;vsdxID=91;fillColor=#b4d8d5;gradientColor=none;shape=stencil(nZBRDoQgDERP03+WHsHFe5iISyOCQdT19kIaIxq//Jtp3zTpAFaTaUYNUkwx+F6v1EYD+AUpyRkdKCYFqACrzgf9C352LfuxyWRWg1/yhT/nRE5IsZWuZtCSK8CPeI0e/hF+jV7AJM4PO7KWCyr390bSiNtEtQM=);strokeColor=#36a9cc;strokeWidth=2;spacingTop=-3;spacingBottom=-3;spacingLeft=-3;spacingRight=-3;points=[];labelBackgroundColor=none;rounded=0;html=1;whiteSpace=wrap;" vertex="1" parent="1">
            <mxGeometry x="2098" y="117" width="140" height="28" as="geometry" />
          </mxCell>
        </UserObject>
        <UserObject label="&lt;div style=&quot;font-size: 1px&quot;&gt;&lt;p style=&quot;text-align:center;margin-left:0;margin-right:0;margin-top:0px;margin-bottom:0px;text-indent:0;vertical-align:middle;direction:ltr;&quot;&gt;&lt;font style=&quot;font-size:13px;font-family:0;color:#15475b;direction:ltr;letter-spacing:0px;line-height:120%;opacity:1&quot;&gt;默克尔树的根 hash&lt;/font&gt;&lt;/p&gt;&lt;/div&gt;" tags="Background" id="p5UnvhGX0PjjsRk6D67m-92">
          <mxCell style="verticalAlign=middle;align=center;overflow=width;vsdxID=92;fillColor=#b4d8d5;gradientColor=none;shape=stencil(nZBRDoQgDERP03+WHsHFe5iISyOCQdT19kIaIxq//Jtp3zTpAFaTaUYNUkwx+F6v1EYD+AUpyRkdKCYFqACrzgf9C352LfuxyWRWg1/yhT/nRE5IsZWuZtCSK8CPeI0e/hF+jV7AJM4PO7KWCyr390bSiNtEtQM=);strokeColor=#36a9cc;strokeWidth=2;spacingTop=-3;spacingBottom=-3;spacingLeft=-3;spacingRight=-3;points=[];labelBackgroundColor=none;rounded=0;html=1;whiteSpace=wrap;" vertex="1" parent="1">
            <mxGeometry x="2098" y="140" width="140" height="28" as="geometry" />
          </mxCell>
        </UserObject>
        <UserObject label="&lt;div style=&quot;font-size: 1px&quot;&gt;&lt;p style=&quot;text-align:center;margin-left:0;margin-right:0;margin-top:0px;margin-bottom:0px;text-indent:0;vertical-align:middle;direction:ltr;&quot;&gt;&lt;font style=&quot;font-size:13px;font-family:0;color:#15475b;direction:ltr;letter-spacing:0px;line-height:120%;opacity:1&quot;&gt;随机数&lt;/font&gt;&lt;/p&gt;&lt;/div&gt;" tags="Background" id="p5UnvhGX0PjjsRk6D67m-93">
          <mxCell style="verticalAlign=middle;align=center;overflow=width;vsdxID=93;fillColor=#b4d8d5;gradientColor=none;shape=stencil(nZBRDoQgDERP03+WHsHFe5iISyOCQdT19kIaIxq//Jtp3zTpAFaTaUYNUkwx+F6v1EYD+AUpyRkdKCYFqACrzgf9C352LfuxyWRWg1/yhT/nRE5IsZWuZtCSK8CPeI0e/hF+jV7AJM4PO7KWCyr390bSiNtEtQM=);strokeColor=#36a9cc;strokeWidth=2;spacingTop=-3;spacingBottom=-3;spacingLeft=-3;spacingRight=-3;points=[];labelBackgroundColor=none;rounded=0;html=1;whiteSpace=wrap;" vertex="1" parent="1">
            <mxGeometry x="2098" y="167" width="140" height="28" as="geometry" />
          </mxCell>
        </UserObject>
        <UserObject label="&lt;div style=&quot;font-size: 1px&quot;&gt;&lt;p style=&quot;text-align:center;margin-left:0;margin-right:0;margin-top:0px;margin-bottom:0px;text-indent:0;vertical-align:middle;direction:ltr;&quot;&gt;&lt;font style=&quot;font-size:13px;font-family:0;color:#15475b;direction:ltr;letter-spacing:0px;line-height:120%;opacity:1&quot;&gt;... ...&lt;/font&gt;&lt;/p&gt;&lt;/div&gt;" tags="Background" id="p5UnvhGX0PjjsRk6D67m-94">
          <mxCell style="verticalAlign=middle;align=center;overflow=width;vsdxID=94;fillColor=#b4d8d5;gradientColor=none;shape=stencil(nZBRDoQgDERP03+WHsHFe5iISyOCQdT19kIaIxq//Jtp3zTpAFaTaUYNUkwx+F6v1EYD+AUpyRkdKCYFqACrzgf9C352LfuxyWRWg1/yhT/nRE5IsZWuZtCSK8CPeI0e/hF+jV7AJM4PO7KWCyr390bSiNtEtQM=);strokeColor=#36a9cc;strokeWidth=2;spacingTop=-3;spacingBottom=-3;spacingLeft=-3;spacingRight=-3;points=[];labelBackgroundColor=none;rounded=0;html=1;whiteSpace=wrap;" vertex="1" parent="1">
            <mxGeometry x="2098" y="193" width="140" height="28" as="geometry" />
          </mxCell>
        </UserObject>
        <UserObject label="&lt;div style=&quot;font-size: 1px&quot;&gt;&lt;p style=&quot;text-align:center;margin-left:0;margin-right:0;margin-top:0px;margin-bottom:0px;text-indent:0;vertical-align:middle;direction:ltr;&quot;&gt;&lt;font style=&quot;font-size:13px;font-family:0;color:#15475b;direction:ltr;letter-spacing:0px;line-height:120%;opacity:1&quot;&gt;其他信息&lt;/font&gt;&lt;/p&gt;&lt;/div&gt;" tags="Background" id="p5UnvhGX0PjjsRk6D67m-95">
          <mxCell style="verticalAlign=middle;align=center;overflow=width;vsdxID=95;fillColor=#b4d8d5;gradientColor=none;shape=stencil(nZBRDoQgDERP03+WHsHFe5iISyOCQdT19kIaIxq//Jtp3zTpAFaTaUYNUkwx+F6v1EYD+AUpyRkdKCYFqACrzgf9C352LfuxyWRWg1/yhT/nRE5IsZWuZtCSK8CPeI0e/hF+jV7AJM4PO7KWCyr390bSiNtEtQM=);strokeColor=#36a9cc;strokeWidth=2;spacingTop=-3;spacingBottom=-3;spacingLeft=-3;spacingRight=-3;points=[];labelBackgroundColor=none;rounded=0;html=1;whiteSpace=wrap;" vertex="1" parent="1">
            <mxGeometry x="2098" y="216" width="140" height="28" as="geometry" />
          </mxCell>
        </UserObject>
        <UserObject label="&lt;div style=&quot;font-size: 1px&quot;&gt;&lt;p style=&quot;text-align:center;margin-left:0;margin-right:0;margin-top:0px;margin-bottom:0px;text-indent:0;vertical-align:middle;direction:ltr;&quot;&gt;&lt;font style=&quot;font-size:13px;font-family:0;color:#15475b;direction:ltr;letter-spacing:0px;line-height:120%;opacity:1&quot;&gt;时间戳&lt;/font&gt;&lt;/p&gt;&lt;/div&gt;" tags="Background" id="p5UnvhGX0PjjsRk6D67m-96">
          <mxCell style="verticalAlign=middle;align=center;overflow=width;vsdxID=96;fillColor=#b4d8d5;gradientColor=none;shape=stencil(nZBRDoQgDERP03+WHsHFe5iISyOCQdT19kIaIxq//Jtp3zTpAFaTaUYNUkwx+F6v1EYD+AUpyRkdKCYFqACrzgf9C352LfuxyWRWg1/yhT/nRE5IsZWuZtCSK8CPeI0e/hF+jV7AJM4PO7KWCyr390bSiNtEtQM=);strokeColor=#36a9cc;strokeWidth=2;spacingTop=-3;spacingBottom=-3;spacingLeft=-3;spacingRight=-3;points=[];labelBackgroundColor=none;rounded=0;html=1;whiteSpace=wrap;" vertex="1" parent="1">
            <mxGeometry x="2098" y="94" width="140" height="28" as="geometry" />
          </mxCell>
        </UserObject>
        <UserObject label="&lt;div style=&quot;font-size: 1px&quot;&gt;&lt;p style=&quot;text-align:center;margin-left:0;margin-right:0;margin-top:0px;margin-bottom:0px;text-indent:0;vertical-align:middle;direction:ltr;&quot;&gt;&lt;font style=&quot;font-size:13px;font-family:0;color:#15475b;direction:ltr;letter-spacing:0px;line-height:120%;opacity:1&quot;&gt;大概 &lt;/font&gt;&lt;font style=&quot;font-size:13px;font-family:0;color:#15475b;direction:ltr;letter-spacing:0px;line-height:120%;opacity:1&quot;&gt;200 字节&lt;/font&gt;&lt;/p&gt;&lt;/div&gt;" tags="Background" id="p5UnvhGX0PjjsRk6D67m-97">
          <mxCell style="verticalAlign=middle;align=center;overflow=width;vsdxID=97;fillColor=#f4c18f;gradientColor=none;shape=stencil(nZBRDoQgDERP03+WHsHFe5iISyOCQdT19kIaIxq//Jtp3zTpAFaTaUYNUkwx+F6v1EYD+AUpyRkdKCYFqACrzgf9C352LfuxyWRWg1/yhT/nRE5IsZWuZtCSK8CPeI0e/hF+jV7AJM4PO7KWCyr390bSiNtEtQM=);strokeColor=#36a9cc;strokeWidth=2;spacingTop=-3;spacingBottom=-3;spacingLeft=-3;spacingRight=-3;points=[];labelBackgroundColor=none;rounded=0;html=1;whiteSpace=wrap;" vertex="1" parent="1">
            <mxGeometry x="2098" y="51" width="140" height="28" as="geometry" />
          </mxCell>
        </UserObject>
        <UserObject label="&lt;div style=&quot;font-size: 1px&quot;&gt;&lt;p style=&quot;text-align:center;margin-left:0;margin-right:0;margin-top:0px;margin-bottom:0px;text-indent:0;vertical-align:middle;direction:ltr;&quot;&gt;&lt;font style=&quot;font-size:13px;font-family:0;color:#15475b;direction:ltr;letter-spacing:0px;line-height:120%;opacity:1&quot;&gt;区块 1&lt;/font&gt;&lt;/p&gt;&lt;/div&gt;" tags="Background" id="p5UnvhGX0PjjsRk6D67m-98">
          <mxCell style="verticalAlign=middle;align=center;overflow=width;vsdxID=98;fillColor=#f4c18f;gradientColor=none;shape=stencil(nZBRDoQgDERP03+WHsHFe5iISyOCQdT19kIaIxq//Jtp3zTpAFaTaUYNUkwx+F6v1EYD+AUpyRkdKCYFqACrzgf9C352LfuxyWRWg1/yhT/nRE5IsZWuZtCSK8CPeI0e/hF+jV7AJM4PO7KWCyr390bSiNtEtQM=);strokeColor=#36a9cc;strokeWidth=2;spacingTop=-3;spacingBottom=-3;spacingLeft=-3;spacingRight=-3;points=[];labelBackgroundColor=none;rounded=0;html=1;whiteSpace=wrap;" vertex="1" parent="1">
            <mxGeometry x="1546" y="239" width="140" height="28" as="geometry" />
          </mxCell>
        </UserObject>
        <UserObject label="&lt;div style=&quot;font-size: 1px&quot;&gt;&lt;p style=&quot;text-align:center;margin-left:0;margin-right:0;margin-top:0px;margin-bottom:0px;text-indent:0;vertical-align:middle;direction:ltr;&quot;&gt;&lt;font style=&quot;font-size:13px;font-family:0;color:#15475b;direction:ltr;letter-spacing:0px;line-height:120%;opacity:1&quot;&gt;区块 2&lt;/font&gt;&lt;/p&gt;&lt;/div&gt;" tags="Background" id="p5UnvhGX0PjjsRk6D67m-99">
          <mxCell style="verticalAlign=middle;align=center;overflow=width;vsdxID=99;fillColor=#f4c18f;gradientColor=none;shape=stencil(nZBRDoQgDERP03+WHsHFe5iISyOCQdT19kIaIxq//Jtp3zTpAFaTaUYNUkwx+F6v1EYD+AUpyRkdKCYFqACrzgf9C352LfuxyWRWg1/yhT/nRE5IsZWuZtCSK8CPeI0e/hF+jV7AJM4PO7KWCyr390bSiNtEtQM=);strokeColor=#36a9cc;strokeWidth=2;spacingTop=-3;spacingBottom=-3;spacingLeft=-3;spacingRight=-3;points=[];labelBackgroundColor=none;rounded=0;html=1;whiteSpace=wrap;" vertex="1" parent="1">
            <mxGeometry x="1817" y="239" width="140" height="28" as="geometry" />
          </mxCell>
        </UserObject>
        <UserObject label="&lt;div style=&quot;font-size: 1px&quot;&gt;&lt;p style=&quot;text-align:center;margin-left:0;margin-right:0;margin-top:0px;margin-bottom:0px;text-indent:0;vertical-align:middle;direction:ltr;&quot;&gt;&lt;font style=&quot;font-size:13px;font-family:0;color:#15475b;direction:ltr;letter-spacing:0px;line-height:120%;opacity:1&quot;&gt;区块 3&lt;/font&gt;&lt;/p&gt;&lt;/div&gt;" tags="Background" id="p5UnvhGX0PjjsRk6D67m-100">
          <mxCell style="verticalAlign=middle;align=center;overflow=width;vsdxID=100;fillColor=#f4c18f;gradientColor=none;shape=stencil(nZBRDoQgDERP03+WHsHFe5iISyOCQdT19kIaIxq//Jtp3zTpAFaTaUYNUkwx+F6v1EYD+AUpyRkdKCYFqACrzgf9C352LfuxyWRWg1/yhT/nRE5IsZWuZtCSK8CPeI0e/hF+jV7AJM4PO7KWCyr390bSiNtEtQM=);strokeColor=#36a9cc;strokeWidth=2;spacingTop=-3;spacingBottom=-3;spacingLeft=-3;spacingRight=-3;points=[];labelBackgroundColor=none;rounded=0;html=1;whiteSpace=wrap;" vertex="1" parent="1">
            <mxGeometry x="2098" y="239" width="140" height="28" as="geometry" />
          </mxCell>
        </UserObject>
        <UserObject label="&lt;div style=&quot;font-size: 1px&quot;&gt;&lt;p style=&quot;text-align:center;margin-left:0;margin-right:0;margin-top:0px;margin-bottom:0px;text-indent:0;vertical-align:middle;direction:ltr;&quot;&gt;&lt;font style=&quot;font-size:13px;font-family:0;color:#15475b;direction:ltr;letter-spacing:0px;line-height:120%;opacity:1&quot;&gt;hash&lt;/font&gt;&lt;/p&gt;&lt;/div&gt;" tags="Background" id="p5UnvhGX0PjjsRk6D67m-101">
          <mxCell style="verticalAlign=middle;align=center;overflow=width;vsdxID=101;fillColor=#b4d8d5;gradientColor=none;shape=stencil(nZBRDoQgDERP03+WHsHFe5iISyOCQdT19kIaIxq//Jtp3zTpAFaTaUYNUkwx+F6v1EYD+AUpyRkdKCYFqACrzgf9C352LfuxyWRWg1/yhT/nRE5IsZWuZtCSK8CPeI0e/hF+jV7AJM4PO7KWCyr390bSiNtEtQM=);strokeColor=#36a9cc;strokeWidth=2;spacingTop=-3;spacingBottom=-3;spacingLeft=-3;spacingRight=-3;points=[];labelBackgroundColor=none;rounded=0;html=1;whiteSpace=wrap;" vertex="1" parent="1">
            <mxGeometry x="1609" y="451" width="52" height="28" as="geometry" />
          </mxCell>
        </UserObject>
        <UserObject label="&lt;div style=&quot;font-size: 1px&quot;&gt;&lt;p style=&quot;text-align:center;margin-left:0;margin-right:0;margin-top:0px;margin-bottom:0px;text-indent:0;vertical-align:middle;direction:ltr;&quot;&gt;&lt;font style=&quot;font-size:13px;font-family:0;color:#15475b;direction:ltr;letter-spacing:0px;line-height:120%;opacity:1&quot;&gt;hash&lt;/font&gt;&lt;/p&gt;&lt;/div&gt;" tags="Background" id="p5UnvhGX0PjjsRk6D67m-102">
          <mxCell style="verticalAlign=middle;align=center;overflow=width;vsdxID=102;fillColor=#b4d8d5;gradientColor=none;shape=stencil(nZBRDoQgDERP03+WHsHFe5iISyOCQdT19kIaIxq//Jtp3zTpAFaTaUYNUkwx+F6v1EYD+AUpyRkdKCYFqACrzgf9C352LfuxyWRWg1/yhT/nRE5IsZWuZtCSK8CPeI0e/hF+jV7AJM4PO7KWCyr390bSiNtEtQM=);strokeColor=#36a9cc;strokeWidth=2;spacingTop=-3;spacingBottom=-3;spacingLeft=-3;spacingRight=-3;points=[];labelBackgroundColor=none;rounded=0;html=1;whiteSpace=wrap;" vertex="1" parent="1">
            <mxGeometry x="1671" y="451" width="52" height="28" as="geometry" />
          </mxCell>
        </UserObject>
        <UserObject label="&lt;div style=&quot;font-size: 1px&quot;&gt;&lt;p style=&quot;text-align:center;margin-left:0;margin-right:0;margin-top:0px;margin-bottom:0px;text-indent:0;vertical-align:middle;direction:ltr;&quot;&gt;&lt;font style=&quot;font-size:13px;font-family:0;color:#15475b;direction:ltr;letter-spacing:0px;line-height:120%;opacity:1&quot;&gt;hash&lt;/font&gt;&lt;/p&gt;&lt;/div&gt;" tags="Background" id="p5UnvhGX0PjjsRk6D67m-103">
          <mxCell style="verticalAlign=middle;align=center;overflow=width;vsdxID=103;fillColor=#b4d8d5;gradientColor=none;shape=stencil(nZBRDoQgDERP03+WHsHFe5iISyOCQdT19kIaIxq//Jtp3zTpAFaTaUYNUkwx+F6v1EYD+AUpyRkdKCYFqACrzgf9C352LfuxyWRWg1/yhT/nRE5IsZWuZtCSK8CPeI0e/hF+jV7AJM4PO7KWCyr390bSiNtEtQM=);strokeColor=#36a9cc;strokeWidth=2;spacingTop=-3;spacingBottom=-3;spacingLeft=-3;spacingRight=-3;points=[];labelBackgroundColor=none;rounded=0;html=1;whiteSpace=wrap;" vertex="1" parent="1">
            <mxGeometry x="1733" y="451" width="52" height="28" as="geometry" />
          </mxCell>
        </UserObject>
        <UserObject label="&lt;div style=&quot;font-size: 1px&quot;&gt;&lt;p style=&quot;text-align:center;margin-left:0;margin-right:0;margin-top:0px;margin-bottom:0px;text-indent:0;vertical-align:middle;direction:ltr;&quot;&gt;&lt;font style=&quot;font-size:13px;font-family:0;color:#15475b;direction:ltr;letter-spacing:0px;line-height:120%;opacity:1&quot;&gt;hash&lt;/font&gt;&lt;/p&gt;&lt;/div&gt;" tags="Background" id="p5UnvhGX0PjjsRk6D67m-104">
          <mxCell style="verticalAlign=middle;align=center;overflow=width;vsdxID=104;fillColor=#b4d8d5;gradientColor=none;shape=stencil(nZBRDoQgDERP03+WHsHFe5iISyOCQdT19kIaIxq//Jtp3zTpAFaTaUYNUkwx+F6v1EYD+AUpyRkdKCYFqACrzgf9C352LfuxyWRWg1/yhT/nRE5IsZWuZtCSK8CPeI0e/hF+jV7AJM4PO7KWCyr390bSiNtEtQM=);strokeColor=#36a9cc;strokeWidth=2;spacingTop=-3;spacingBottom=-3;spacingLeft=-3;spacingRight=-3;points=[];labelBackgroundColor=none;rounded=0;html=1;whiteSpace=wrap;" vertex="1" parent="1">
            <mxGeometry x="1791" y="451" width="52" height="28" as="geometry" />
          </mxCell>
        </UserObject>
        <UserObject label="&lt;div style=&quot;font-size: 1px&quot;&gt;&lt;p style=&quot;text-align:center;margin-left:0;margin-right:0;margin-top:0px;margin-bottom:0px;text-indent:0;vertical-align:middle;direction:ltr;&quot;&gt;&lt;font style=&quot;font-size:13px;font-family:0;color:#15475b;direction:ltr;letter-spacing:0px;line-height:120%;opacity:1&quot;&gt;交易列表&lt;/font&gt;&lt;/p&gt;&lt;/div&gt;" tags="Background" id="p5UnvhGX0PjjsRk6D67m-105">
          <mxCell style="verticalAlign=middle;align=center;overflow=width;vsdxID=105;fillColor=#f4c18f;gradientColor=none;shape=stencil(nZBRDoQgDERP03+WHsHFe5iISyOCQdT19kIaIxq//Jtp3zTpAFaTaUYNUkwx+F6v1EYD+AUpyRkdKCYFqACrzgf9C352LfuxyWRWg1/yhT/nRE5IsZWuZtCSK8CPeI0e/hF+jV7AJM4PO7KWCyr390bSiNtEtQM=);strokeColor=#36a9cc;strokeWidth=2;spacingTop=-3;spacingBottom=-3;spacingLeft=-3;spacingRight=-3;points=[];labelBackgroundColor=none;rounded=0;html=1;whiteSpace=wrap;" vertex="1" parent="1">
            <mxGeometry x="1550" y="480" width="31" height="109" as="geometry" />
          </mxCell>
        </UserObject>
        <UserObject label="&lt;div style=&quot;font-size: 1px&quot;&gt;&lt;p style=&quot;text-align:center;margin-left:0;margin-right:0;margin-top:0px;margin-bottom:0px;text-indent:0;vertical-align:middle;direction:ltr;&quot;&gt;&lt;font style=&quot;font-size:13px;font-family:0;color:#15475b;direction:ltr;letter-spacing:0px;line-height:120%;opacity:1&quot;&gt;默克尔树&lt;/font&gt;&lt;/p&gt;&lt;/div&gt;" tags="Background" id="p5UnvhGX0PjjsRk6D67m-106">
          <mxCell style="verticalAlign=middle;align=center;overflow=width;vsdxID=106;fillColor=#f4c18f;gradientColor=none;shape=stencil(nZBRDoQgDERP03+WHsHFe5iISyOCQdT19kIaIxq//Jtp3zTpAFaTaUYNUkwx+F6v1EYD+AUpyRkdKCYFqACrzgf9C352LfuxyWRWg1/yhT/nRE5IsZWuZtCSK8CPeI0e/hF+jV7AJM4PO7KWCyr390bSiNtEtQM=);strokeColor=#36a9cc;strokeWidth=2;spacingTop=-3;spacingBottom=-3;spacingLeft=-3;spacingRight=-3;points=[];labelBackgroundColor=none;rounded=0;html=1;whiteSpace=wrap;" vertex="1" parent="1">
            <mxGeometry x="1550" y="330" width="32" height="153" as="geometry" />
          </mxCell>
        </UserObject>
        <UserObject label="&lt;div style=&quot;font-size: 1px&quot;&gt;&lt;p style=&quot;margin: 0px; text-indent: 0px; vertical-align: middle; direction: ltr;&quot;&gt;&lt;font style=&quot;font-size:25px;font-family:0;color:#15475b;direction:ltr;letter-spacing:0px;line-height:120%;opacity:1&quot;&gt;0&lt;/font&gt;&lt;/p&gt;&lt;/div&gt;" tags="Background" id="p5UnvhGX0PjjsRk6D67m-107">
          <mxCell style="verticalAlign=middle;align=center;overflow=width;vsdxID=107;fillColor=#b4d8d5;gradientColor=none;shape=stencil(nZBRDoQgDERP03+WHsHFe5iISyOCQdT19kIaIxq//Jtp3zTpAFaTaUYNUkwx+F6v1EYD+AUpyRkdKCYFqACrzgf9C352LfuxyWRWg1/yhT/nRE5IsZWuZtCSK8CPeI0e/hF+jV7AJM4PO7KWCyr390bSiNtEtQM=);strokeColor=#36a9cc;strokeWidth=2;spacingTop=-3;spacingBottom=-3;spacingLeft=-3;spacingRight=-3;points=[];labelBackgroundColor=none;rounded=0;html=1;whiteSpace=wrap;" vertex="1" parent="1">
            <mxGeometry x="2517" y="304" width="36" height="36" as="geometry" />
          </mxCell>
        </UserObject>
        <UserObject label="&lt;div style=&quot;font-size: 1px&quot;&gt;&lt;p style=&quot;margin: 0px; text-indent: 0px; vertical-align: middle; direction: ltr;&quot;&gt;&lt;font style=&quot;font-size:25px;font-family:0;color:#15475b;direction:ltr;letter-spacing:0px;line-height:120%;opacity:1&quot;&gt;0&lt;/font&gt;&lt;/p&gt;&lt;/div&gt;" tags="Background" id="p5UnvhGX0PjjsRk6D67m-108">
          <mxCell style="verticalAlign=middle;align=center;overflow=width;vsdxID=108;fillColor=#b4d8d5;gradientColor=none;shape=stencil(nZBRDoQgDERP03+WHsHFe5iISyOCQdT19kIaIxq//Jtp3zTpAFaTaUYNUkwx+F6v1EYD+AUpyRkdKCYFqACrzgf9C352LfuxyWRWg1/yhT/nRE5IsZWuZtCSK8CPeI0e/hF+jV7AJM4PO7KWCyr390bSiNtEtQM=);strokeColor=#36a9cc;strokeWidth=2;spacingTop=-3;spacingBottom=-3;spacingLeft=-3;spacingRight=-3;points=[];labelBackgroundColor=none;rounded=0;html=1;whiteSpace=wrap;" vertex="1" parent="1">
            <mxGeometry x="2550" y="304" width="36" height="36" as="geometry" />
          </mxCell>
        </UserObject>
        <UserObject label="&lt;div style=&quot;font-size: 1px&quot;&gt;&lt;p style=&quot;margin: 0px; text-indent: 0px; vertical-align: middle; direction: ltr;&quot;&gt;&lt;font style=&quot;font-size:25px;font-family:0;color:#15475b;direction:ltr;letter-spacing:0px;line-height:120%;opacity:1&quot;&gt;0&lt;/font&gt;&lt;/p&gt;&lt;/div&gt;" tags="Background" id="p5UnvhGX0PjjsRk6D67m-109">
          <mxCell style="verticalAlign=middle;align=center;overflow=width;vsdxID=109;fillColor=#b4d8d5;gradientColor=none;shape=stencil(nZBRDoQgDERP03+WHsHFe5iISyOCQdT19kIaIxq//Jtp3zTpAFaTaUYNUkwx+F6v1EYD+AUpyRkdKCYFqACrzgf9C352LfuxyWRWg1/yhT/nRE5IsZWuZtCSK8CPeI0e/hF+jV7AJM4PO7KWCyr390bSiNtEtQM=);strokeColor=#36a9cc;strokeWidth=2;spacingTop=-3;spacingBottom=-3;spacingLeft=-3;spacingRight=-3;points=[];labelBackgroundColor=none;rounded=0;html=1;whiteSpace=wrap;" vertex="1" parent="1">
            <mxGeometry x="2584" y="304" width="36" height="36" as="geometry" />
          </mxCell>
        </UserObject>
        <UserObject label="&lt;div style=&quot;font-size: 1px&quot;&gt;&lt;p style=&quot;margin: 0px; text-indent: 0px; vertical-align: middle; direction: ltr;&quot;&gt;&lt;font style=&quot;font-size:25px;font-family:0;color:#15475b;direction:ltr;letter-spacing:0px;line-height:120%;opacity:1&quot;&gt;0&lt;/font&gt;&lt;/p&gt;&lt;/div&gt;" tags="Background" id="p5UnvhGX0PjjsRk6D67m-110">
          <mxCell style="verticalAlign=middle;align=center;overflow=width;vsdxID=110;fillColor=#b4d8d5;gradientColor=none;shape=stencil(nZBRDoQgDERP03+WHsHFe5iISyOCQdT19kIaIxq//Jtp3zTpAFaTaUYNUkwx+F6v1EYD+AUpyRkdKCYFqACrzgf9C352LfuxyWRWg1/yhT/nRE5IsZWuZtCSK8CPeI0e/hF+jV7AJM4PO7KWCyr390bSiNtEtQM=);strokeColor=#36a9cc;strokeWidth=2;spacingTop=-3;spacingBottom=-3;spacingLeft=-3;spacingRight=-3;points=[];labelBackgroundColor=none;rounded=0;html=1;whiteSpace=wrap;" vertex="1" parent="1">
            <mxGeometry x="2622" y="304" width="36" height="36" as="geometry" />
          </mxCell>
        </UserObject>
        <UserObject label="&lt;div style=&quot;font-size: 1px&quot;&gt;&lt;p style=&quot;margin: 0px; text-indent: 0px; vertical-align: middle; direction: ltr;&quot;&gt;&lt;font style=&quot;font-size:25px;font-family:0;color:#15475b;direction:ltr;letter-spacing:0px;line-height:120%;opacity:1&quot;&gt;0&lt;/font&gt;&lt;/p&gt;&lt;/div&gt;" tags="Background" id="p5UnvhGX0PjjsRk6D67m-111">
          <mxCell style="verticalAlign=middle;align=center;overflow=width;vsdxID=111;fillColor=#b4d8d5;gradientColor=none;shape=stencil(nZBRDoQgDERP03+WHsHFe5iISyOCQdT19kIaIxq//Jtp3zTpAFaTaUYNUkwx+F6v1EYD+AUpyRkdKCYFqACrzgf9C352LfuxyWRWg1/yhT/nRE5IsZWuZtCSK8CPeI0e/hF+jV7AJM4PO7KWCyr390bSiNtEtQM=);strokeColor=#36a9cc;strokeWidth=2;spacingTop=-3;spacingBottom=-3;spacingLeft=-3;spacingRight=-3;points=[];labelBackgroundColor=none;rounded=0;html=1;whiteSpace=wrap;" vertex="1" parent="1">
            <mxGeometry x="2659" y="304" width="36" height="36" as="geometry" />
          </mxCell>
        </UserObject>
        <UserObject label="&lt;div style=&quot;font-size: 1px&quot;&gt;&lt;p style=&quot;margin: 0px; text-indent: 0px; vertical-align: middle; direction: ltr;&quot;&gt;&lt;font style=&quot;font-size:25px;font-family:0;color:#15475b;direction:ltr;letter-spacing:0px;line-height:120%;opacity:1&quot;&gt;a&lt;/font&gt;&lt;/p&gt;&lt;/div&gt;" tags="Background" id="p5UnvhGX0PjjsRk6D67m-112">
          <mxCell style="verticalAlign=middle;align=center;overflow=width;vsdxID=112;fillColor=#f4c18f;gradientColor=none;shape=stencil(nZBRDoQgDERP03+WHsHFe5iISyOCQdT19kIaIxq//Jtp3zTpAFaTaUYNUkwx+F6v1EYD+AUpyRkdKCYFqACrzgf9C352LfuxyWRWg1/yhT/nRE5IsZWuZtCSK8CPeI0e/hF+jV7AJM4PO7KWCyr390bSiNtEtQM=);strokeColor=#36a9cc;strokeWidth=2;spacingTop=-3;spacingBottom=-3;spacingLeft=-3;spacingRight=-3;points=[];labelBackgroundColor=none;rounded=0;html=1;whiteSpace=wrap;" vertex="1" parent="1">
            <mxGeometry x="2696" y="304" width="36" height="36" as="geometry" />
          </mxCell>
        </UserObject>
        <UserObject label="&lt;div style=&quot;font-size: 1px&quot;&gt;&lt;p style=&quot;margin: 0px; text-indent: 0px; vertical-align: middle; direction: ltr;&quot;&gt;&lt;font style=&quot;font-size:25px;font-family:0;color:#15475b;direction:ltr;letter-spacing:0px;line-height:120%;opacity:1&quot;&gt;b&lt;/font&gt;&lt;/p&gt;&lt;/div&gt;" tags="Background" id="p5UnvhGX0PjjsRk6D67m-113">
          <mxCell style="verticalAlign=middle;align=center;overflow=width;vsdxID=113;fillColor=#f4c18f;gradientColor=none;shape=stencil(nZBRDoQgDERP03+WHsHFe5iISyOCQdT19kIaIxq//Jtp3zTpAFaTaUYNUkwx+F6v1EYD+AUpyRkdKCYFqACrzgf9C352LfuxyWRWg1/yhT/nRE5IsZWuZtCSK8CPeI0e/hF+jV7AJM4PO7KWCyr390bSiNtEtQM=);strokeColor=#36a9cc;strokeWidth=2;spacingTop=-3;spacingBottom=-3;spacingLeft=-3;spacingRight=-3;points=[];labelBackgroundColor=none;rounded=0;html=1;whiteSpace=wrap;" vertex="1" parent="1">
            <mxGeometry x="2734" y="304" width="36" height="36" as="geometry" />
          </mxCell>
        </UserObject>
        <UserObject label="&lt;div style=&quot;font-size: 1px&quot;&gt;&lt;p style=&quot;margin: 0px; text-indent: 0px; vertical-align: middle; direction: ltr;&quot;&gt;&lt;font style=&quot;font-size:25px;font-family:0;color:#15475b;direction:ltr;letter-spacing:0px;line-height:120%;opacity:1&quot;&gt;d&lt;/font&gt;&lt;/p&gt;&lt;/div&gt;" tags="Background" id="p5UnvhGX0PjjsRk6D67m-114">
          <mxCell style="verticalAlign=middle;align=center;overflow=width;vsdxID=114;fillColor=#f4c18f;gradientColor=none;shape=stencil(nZBRDoQgDERP03+WHsHFe5iISyOCQdT19kIaIxq//Jtp3zTpAFaTaUYNUkwx+F6v1EYD+AUpyRkdKCYFqACrzgf9C352LfuxyWRWg1/yhT/nRE5IsZWuZtCSK8CPeI0e/hF+jV7AJM4PO7KWCyr390bSiNtEtQM=);strokeColor=#36a9cc;strokeWidth=2;spacingTop=-3;spacingBottom=-3;spacingLeft=-3;spacingRight=-3;points=[];labelBackgroundColor=none;rounded=0;html=1;whiteSpace=wrap;" vertex="1" parent="1">
            <mxGeometry x="2772" y="304" width="36" height="36" as="geometry" />
          </mxCell>
        </UserObject>
        <UserObject label="&lt;div style=&quot;font-size: 1px&quot;&gt;&lt;p style=&quot;margin: 0px; text-indent: 0px; vertical-align: middle; direction: ltr;&quot;&gt;&lt;font style=&quot;font-size:25px;font-family:0;color:#15475b;direction:ltr;letter-spacing:0px;line-height:120%;opacity:1&quot;&gt;e&lt;/font&gt;&lt;/p&gt;&lt;/div&gt;" tags="Background" id="p5UnvhGX0PjjsRk6D67m-115">
          <mxCell style="verticalAlign=middle;align=center;overflow=width;vsdxID=115;fillColor=#f4c18f;gradientColor=none;shape=stencil(nZBRDoQgDERP03+WHsHFe5iISyOCQdT19kIaIxq//Jtp3zTpAFaTaUYNUkwx+F6v1EYD+AUpyRkdKCYFqACrzgf9C352LfuxyWRWg1/yhT/nRE5IsZWuZtCSK8CPeI0e/hF+jV7AJM4PO7KWCyr390bSiNtEtQM=);strokeColor=#36a9cc;strokeWidth=2;spacingTop=-3;spacingBottom=-3;spacingLeft=-3;spacingRight=-3;points=[];labelBackgroundColor=none;rounded=0;html=1;whiteSpace=wrap;" vertex="1" parent="1">
            <mxGeometry x="2805" y="304" width="36" height="36" as="geometry" />
          </mxCell>
        </UserObject>
        <UserObject label="&lt;div style=&quot;font-size: 1px&quot;&gt;&lt;p style=&quot;margin: 0px; text-indent: 0px; vertical-align: middle; direction: ltr;&quot;&gt;&lt;font style=&quot;font-size:25px;font-family:0;color:#15475b;direction:ltr;letter-spacing:0px;line-height:120%;opacity:1&quot;&gt;f&lt;/font&gt;&lt;/p&gt;&lt;/div&gt;" tags="Background" id="p5UnvhGX0PjjsRk6D67m-116">
          <mxCell style="verticalAlign=middle;align=center;overflow=width;vsdxID=116;fillColor=#f4c18f;gradientColor=none;shape=stencil(nZBRDoQgDERP03+WHsHFe5iISyOCQdT19kIaIxq//Jtp3zTpAFaTaUYNUkwx+F6v1EYD+AUpyRkdKCYFqACrzgf9C352LfuxyWRWg1/yhT/nRE5IsZWuZtCSK8CPeI0e/hF+jV7AJM4PO7KWCyr390bSiNtEtQM=);strokeColor=#36a9cc;strokeWidth=2;spacingTop=-3;spacingBottom=-3;spacingLeft=-3;spacingRight=-3;points=[];labelBackgroundColor=none;rounded=0;html=1;whiteSpace=wrap;" vertex="1" parent="1">
            <mxGeometry x="2844" y="304" width="36" height="36" as="geometry" />
          </mxCell>
        </UserObject>
        <UserObject label="&lt;div style=&quot;font-size: 1px&quot;&gt;&lt;p style=&quot;margin: 0px; text-indent: 0px; vertical-align: middle; direction: ltr;&quot;&gt;&lt;font style=&quot;font-size:25px;font-family:0;color:#15475b;direction:ltr;letter-spacing:0px;line-height:120%;opacity:1&quot;&gt;0&lt;/font&gt;&lt;/p&gt;&lt;/div&gt;" tags="Background" id="p5UnvhGX0PjjsRk6D67m-117">
          <mxCell style="verticalAlign=middle;align=center;overflow=width;vsdxID=117;fillColor=#b4d8d5;gradientColor=none;shape=stencil(nZBRDoQgDERP03+WHsHFe5iISyOCQdT19kIaIxq//Jtp3zTpAFaTaUYNUkwx+F6v1EYD+AUpyRkdKCYFqACrzgf9C352LfuxyWRWg1/yhT/nRE5IsZWuZtCSK8CPeI0e/hF+jV7AJM4PO7KWCyr390bSiNtEtQM=);strokeColor=#36a9cc;strokeWidth=2;spacingTop=-3;spacingBottom=-3;spacingLeft=-3;spacingRight=-3;points=[];labelBackgroundColor=none;rounded=0;html=1;whiteSpace=wrap;" vertex="1" parent="1">
            <mxGeometry x="2517" y="235" width="36" height="36" as="geometry" />
          </mxCell>
        </UserObject>
        <UserObject label="&lt;div style=&quot;font-size: 1px&quot;&gt;&lt;p style=&quot;margin: 0px; text-indent: 0px; vertical-align: middle; direction: ltr;&quot;&gt;&lt;font style=&quot;font-size:25px;font-family:0;color:#15475b;direction:ltr;letter-spacing:0px;line-height:120%;opacity:1&quot;&gt;0&lt;/font&gt;&lt;/p&gt;&lt;/div&gt;" tags="Background" id="p5UnvhGX0PjjsRk6D67m-118">
          <mxCell style="verticalAlign=middle;align=center;overflow=width;vsdxID=118;fillColor=#b4d8d5;gradientColor=none;shape=stencil(nZBRDoQgDERP03+WHsHFe5iISyOCQdT19kIaIxq//Jtp3zTpAFaTaUYNUkwx+F6v1EYD+AUpyRkdKCYFqACrzgf9C352LfuxyWRWg1/yhT/nRE5IsZWuZtCSK8CPeI0e/hF+jV7AJM4PO7KWCyr390bSiNtEtQM=);strokeColor=#36a9cc;strokeWidth=2;spacingTop=-3;spacingBottom=-3;spacingLeft=-3;spacingRight=-3;points=[];labelBackgroundColor=none;rounded=0;html=1;whiteSpace=wrap;" vertex="1" parent="1">
            <mxGeometry x="2550" y="235" width="36" height="36" as="geometry" />
          </mxCell>
        </UserObject>
        <UserObject label="&lt;div style=&quot;font-size: 1px&quot;&gt;&lt;p style=&quot;margin: 0px; text-indent: 0px; vertical-align: middle; direction: ltr;&quot;&gt;&lt;font style=&quot;font-size:25px;font-family:0;color:#15475b;direction:ltr;letter-spacing:0px;line-height:120%;opacity:1&quot;&gt;0&lt;/font&gt;&lt;/p&gt;&lt;/div&gt;" tags="Background" id="p5UnvhGX0PjjsRk6D67m-119">
          <mxCell style="verticalAlign=middle;align=center;overflow=width;vsdxID=119;fillColor=#b4d8d5;gradientColor=none;shape=stencil(nZBRDoQgDERP03+WHsHFe5iISyOCQdT19kIaIxq//Jtp3zTpAFaTaUYNUkwx+F6v1EYD+AUpyRkdKCYFqACrzgf9C352LfuxyWRWg1/yhT/nRE5IsZWuZtCSK8CPeI0e/hF+jV7AJM4PO7KWCyr390bSiNtEtQM=);strokeColor=#36a9cc;strokeWidth=2;spacingTop=-3;spacingBottom=-3;spacingLeft=-3;spacingRight=-3;points=[];labelBackgroundColor=none;rounded=0;html=1;whiteSpace=wrap;" vertex="1" parent="1">
            <mxGeometry x="2584" y="235" width="36" height="36" as="geometry" />
          </mxCell>
        </UserObject>
        <UserObject label="&lt;div style=&quot;font-size: 1px&quot;&gt;&lt;p style=&quot;margin: 0px; text-indent: 0px; vertical-align: middle; direction: ltr;&quot;&gt;&lt;font style=&quot;font-size:25px;font-family:0;color:#15475b;direction:ltr;letter-spacing:0px;line-height:120%;opacity:1&quot;&gt;0&lt;/font&gt;&lt;/p&gt;&lt;/div&gt;" tags="Background" id="p5UnvhGX0PjjsRk6D67m-120">
          <mxCell style="verticalAlign=middle;align=center;overflow=width;vsdxID=120;fillColor=#b4d8d5;gradientColor=none;shape=stencil(nZBRDoQgDERP03+WHsHFe5iISyOCQdT19kIaIxq//Jtp3zTpAFaTaUYNUkwx+F6v1EYD+AUpyRkdKCYFqACrzgf9C352LfuxyWRWg1/yhT/nRE5IsZWuZtCSK8CPeI0e/hF+jV7AJM4PO7KWCyr390bSiNtEtQM=);strokeColor=#36a9cc;strokeWidth=2;spacingTop=-3;spacingBottom=-3;spacingLeft=-3;spacingRight=-3;points=[];labelBackgroundColor=none;rounded=0;html=1;whiteSpace=wrap;" vertex="1" parent="1">
            <mxGeometry x="2622" y="235" width="36" height="36" as="geometry" />
          </mxCell>
        </UserObject>
        <UserObject label="&lt;div style=&quot;font-size: 1px&quot;&gt;&lt;p style=&quot;margin: 0px; text-indent: 0px; vertical-align: middle; direction: ltr;&quot;&gt;&lt;font style=&quot;font-size:25px;font-family:0;color:#15475b;direction:ltr;letter-spacing:0px;line-height:120%;opacity:1&quot;&gt;0&lt;/font&gt;&lt;/p&gt;&lt;/div&gt;" tags="Background" id="p5UnvhGX0PjjsRk6D67m-121">
          <mxCell style="verticalAlign=middle;align=center;overflow=width;vsdxID=121;fillColor=#b4d8d5;gradientColor=none;shape=stencil(nZBRDoQgDERP03+WHsHFe5iISyOCQdT19kIaIxq//Jtp3zTpAFaTaUYNUkwx+F6v1EYD+AUpyRkdKCYFqACrzgf9C352LfuxyWRWg1/yhT/nRE5IsZWuZtCSK8CPeI0e/hF+jV7AJM4PO7KWCyr390bSiNtEtQM=);strokeColor=#36a9cc;strokeWidth=2;spacingTop=-3;spacingBottom=-3;spacingLeft=-3;spacingRight=-3;points=[];labelBackgroundColor=none;rounded=0;html=1;whiteSpace=wrap;" vertex="1" parent="1">
            <mxGeometry x="2659" y="235" width="36" height="36" as="geometry" />
          </mxCell>
        </UserObject>
        <UserObject label="&lt;div style=&quot;font-size: 1px&quot;&gt;&lt;p style=&quot;margin: 0px; text-indent: 0px; vertical-align: middle; direction: ltr;&quot;&gt;&lt;font style=&quot;font-size:25px;font-family:0;color:#15475b;direction:ltr;letter-spacing:0px;line-height:120%;opacity:1&quot;&gt;*&lt;/font&gt;&lt;/p&gt;&lt;/div&gt;" tags="Background" id="p5UnvhGX0PjjsRk6D67m-122">
          <mxCell style="verticalAlign=middle;align=center;overflow=width;vsdxID=122;fillColor=#f4c18f;gradientColor=none;shape=stencil(nZBRDoQgDERP03+WHsHFe5iISyOCQdT19kIaIxq//Jtp3zTpAFaTaUYNUkwx+F6v1EYD+AUpyRkdKCYFqACrzgf9C352LfuxyWRWg1/yhT/nRE5IsZWuZtCSK8CPeI0e/hF+jV7AJM4PO7KWCyr390bSiNtEtQM=);strokeColor=#36a9cc;strokeWidth=2;spacingTop=-3;spacingBottom=-3;spacingLeft=-3;spacingRight=-3;points=[];labelBackgroundColor=none;rounded=0;html=1;whiteSpace=wrap;" vertex="1" parent="1">
            <mxGeometry x="2696" y="235" width="36" height="36" as="geometry" />
          </mxCell>
        </UserObject>
        <UserObject label="&lt;div style=&quot;font-size: 1px&quot;&gt;&lt;p style=&quot;margin: 0px; text-indent: 0px; vertical-align: middle; direction: ltr;&quot;&gt;&lt;font style=&quot;font-size:25px;font-family:0;color:#15475b;direction:ltr;letter-spacing:0px;line-height:120%;opacity:1&quot;&gt;*&lt;/font&gt;&lt;/p&gt;&lt;/div&gt;" tags="Background" id="p5UnvhGX0PjjsRk6D67m-123">
          <mxCell style="verticalAlign=middle;align=center;overflow=width;vsdxID=123;fillColor=#f4c18f;gradientColor=none;shape=stencil(nZBRDoQgDERP03+WHsHFe5iISyOCQdT19kIaIxq//Jtp3zTpAFaTaUYNUkwx+F6v1EYD+AUpyRkdKCYFqACrzgf9C352LfuxyWRWg1/yhT/nRE5IsZWuZtCSK8CPeI0e/hF+jV7AJM4PO7KWCyr390bSiNtEtQM=);strokeColor=#36a9cc;strokeWidth=2;spacingTop=-3;spacingBottom=-3;spacingLeft=-3;spacingRight=-3;points=[];labelBackgroundColor=none;rounded=0;html=1;whiteSpace=wrap;" vertex="1" parent="1">
            <mxGeometry x="2734" y="235" width="36" height="36" as="geometry" />
          </mxCell>
        </UserObject>
        <UserObject label="&lt;div style=&quot;font-size: 1px&quot;&gt;&lt;p style=&quot;margin: 0px; text-indent: 0px; vertical-align: middle; direction: ltr;&quot;&gt;&lt;font style=&quot;font-size:25px;font-family:0;color:#15475b;direction:ltr;letter-spacing:0px;line-height:120%;opacity:1&quot;&gt;*&lt;/font&gt;&lt;/p&gt;&lt;/div&gt;" tags="Background" id="p5UnvhGX0PjjsRk6D67m-124">
          <mxCell style="verticalAlign=middle;align=center;overflow=width;vsdxID=124;fillColor=#f4c18f;gradientColor=none;shape=stencil(nZBRDoQgDERP03+WHsHFe5iISyOCQdT19kIaIxq//Jtp3zTpAFaTaUYNUkwx+F6v1EYD+AUpyRkdKCYFqACrzgf9C352LfuxyWRWg1/yhT/nRE5IsZWuZtCSK8CPeI0e/hF+jV7AJM4PO7KWCyr390bSiNtEtQM=);strokeColor=#36a9cc;strokeWidth=2;spacingTop=-3;spacingBottom=-3;spacingLeft=-3;spacingRight=-3;points=[];labelBackgroundColor=none;rounded=0;html=1;whiteSpace=wrap;" vertex="1" parent="1">
            <mxGeometry x="2772" y="235" width="36" height="36" as="geometry" />
          </mxCell>
        </UserObject>
        <UserObject label="&lt;div style=&quot;font-size: 1px&quot;&gt;&lt;p style=&quot;margin: 0px; text-indent: 0px; vertical-align: middle; direction: ltr;&quot;&gt;&lt;font style=&quot;font-size:25px;font-family:0;color:#15475b;direction:ltr;letter-spacing:0px;line-height:120%;opacity:1&quot;&gt;*&lt;/font&gt;&lt;/p&gt;&lt;/div&gt;" tags="Background" id="p5UnvhGX0PjjsRk6D67m-125">
          <mxCell style="verticalAlign=middle;align=center;overflow=width;vsdxID=125;fillColor=#f4c18f;gradientColor=none;shape=stencil(nZBRDoQgDERP03+WHsHFe5iISyOCQdT19kIaIxq//Jtp3zTpAFaTaUYNUkwx+F6v1EYD+AUpyRkdKCYFqACrzgf9C352LfuxyWRWg1/yhT/nRE5IsZWuZtCSK8CPeI0e/hF+jV7AJM4PO7KWCyr390bSiNtEtQM=);strokeColor=#36a9cc;strokeWidth=2;spacingTop=-3;spacingBottom=-3;spacingLeft=-3;spacingRight=-3;points=[];labelBackgroundColor=none;rounded=0;html=1;whiteSpace=wrap;" vertex="1" parent="1">
            <mxGeometry x="2805" y="235" width="36" height="36" as="geometry" />
          </mxCell>
        </UserObject>
        <UserObject label="&lt;div style=&quot;font-size: 1px&quot;&gt;&lt;p style=&quot;margin: 0px; text-indent: 0px; vertical-align: middle; direction: ltr;&quot;&gt;&lt;font style=&quot;font-size:25px;font-family:0;color:#15475b;direction:ltr;letter-spacing:0px;line-height:120%;opacity:1&quot;&gt;*&lt;/font&gt;&lt;/p&gt;&lt;/div&gt;" tags="Background" id="p5UnvhGX0PjjsRk6D67m-126">
          <mxCell style="verticalAlign=middle;align=center;overflow=width;vsdxID=126;fillColor=#f4c18f;gradientColor=none;shape=stencil(nZBRDoQgDERP03+WHsHFe5iISyOCQdT19kIaIxq//Jtp3zTpAFaTaUYNUkwx+F6v1EYD+AUpyRkdKCYFqACrzgf9C352LfuxyWRWg1/yhT/nRE5IsZWuZtCSK8CPeI0e/hF+jV7AJM4PO7KWCyr390bSiNtEtQM=);strokeColor=#36a9cc;strokeWidth=2;spacingTop=-3;spacingBottom=-3;spacingLeft=-3;spacingRight=-3;points=[];labelBackgroundColor=none;rounded=0;html=1;whiteSpace=wrap;" vertex="1" parent="1">
            <mxGeometry x="2844" y="235" width="36" height="36" as="geometry" />
          </mxCell>
        </UserObject>
        <UserObject label="&lt;div style=&quot;font-size: 1px&quot;&gt;&lt;p style=&quot;text-align:center;margin-left:0;margin-right:0;margin-top:0px;margin-bottom:0px;text-indent:0;vertical-align:middle;direction:ltr;&quot;&gt;&lt;font style=&quot;font-size:13px;font-family:0;color:#15475b;direction:ltr;letter-spacing:0px;line-height:120%;opacity:1&quot;&gt;节点A&lt;/font&gt;&lt;/p&gt;&lt;/div&gt;" tags="Background" id="p5UnvhGX0PjjsRk6D67m-127">
          <mxCell style="verticalAlign=middle;align=center;overflow=width;vsdxID=127;fillColor=#b4d8d5;gradientColor=none;shape=stencil(jZFRDsIgEERPs58aYGM9QK33aCwVIkJDqdbbC1mbKiGmfzvDWyaZBaxH1Q4SBBuDdzf51F1QgCcQQlslvQ5xAmwA6955efVush3poU1kmu7ukX6YaY+lDcFepA4kz0ReJk8o/2U/cserfXUkbxbkcbZAogBhDuGW2BVfjEJwFssLsX9DjbYbW4nDWmavjaFbfL/n5UeLDofNGw==);strokeColor=#36a9cc;strokeWidth=2;spacingTop=-3;spacingBottom=-3;spacingLeft=-3;spacingRight=-3;points=[];labelBackgroundColor=none;rounded=0;html=1;whiteSpace=wrap;" vertex="1" parent="1">
            <mxGeometry x="2304" y="728" width="70" height="69" as="geometry" />
          </mxCell>
        </UserObject>
        <UserObject label="&lt;div style=&quot;font-size: 1px&quot;&gt;&lt;p style=&quot;text-align:center;margin-left:0;margin-right:0;margin-top:0px;margin-bottom:0px;text-indent:0;vertical-align:middle;direction:ltr;&quot;&gt;&lt;font style=&quot;font-size:13px;font-family:0;color:#15475b;direction:ltr;letter-spacing:0px;line-height:120%;opacity:1&quot;&gt;节点B&lt;/font&gt;&lt;/p&gt;&lt;/div&gt;" tags="Background" id="p5UnvhGX0PjjsRk6D67m-128">
          <mxCell style="verticalAlign=middle;align=center;overflow=width;vsdxID=128;fillColor=#b4d8d5;gradientColor=none;shape=stencil(jZFRDsIgEERPs58aYGM9QK33aCwVIkJDqdbbC1mbKiGmfzvDWyaZBaxH1Q4SBBuDdzf51F1QgCcQQlslvQ5xAmwA6955efVush3poU1kmu7ukX6YaY+lDcFepA4kz0ReJk8o/2U/cserfXUkbxbkcbZAogBhDuGW2BVfjEJwFssLsX9DjbYbW4nDWmavjaFbfL/n5UeLDofNGw==);strokeColor=#36a9cc;strokeWidth=2;spacingTop=-3;spacingBottom=-3;spacingLeft=-3;spacingRight=-3;points=[];labelBackgroundColor=none;rounded=0;html=1;whiteSpace=wrap;" vertex="1" parent="1">
            <mxGeometry x="2621" y="728" width="70" height="69" as="geometry" />
          </mxCell>
        </UserObject>
        <UserObject label="&lt;div style=&quot;font-size: 1px&quot;&gt;&lt;p style=&quot;text-align:center;margin-left:0;margin-right:0;margin-top:0px;margin-bottom:0px;text-indent:0;vertical-align:middle;direction:ltr;&quot;&gt;&lt;font style=&quot;font-size:13px;font-family:0;color:#15475b;direction:ltr;letter-spacing:0px;line-height:120%;opacity:1&quot;&gt;节点C&lt;/font&gt;&lt;/p&gt;&lt;/div&gt;" tags="Background" id="p5UnvhGX0PjjsRk6D67m-129">
          <mxCell style="verticalAlign=middle;align=center;overflow=width;vsdxID=129;fillColor=#b4d8d5;gradientColor=none;shape=stencil(jZFRDsIgEERPs58aYGM9QK33aCwVIkJDqdbbC1mbKiGmfzvDWyaZBaxH1Q4SBBuDdzf51F1QgCcQQlslvQ5xAmwA6955efVush3poU1kmu7ukX6YaY+lDcFepA4kz0ReJk8o/2U/cserfXUkbxbkcbZAogBhDuGW2BVfjEJwFssLsX9DjbYbW4nDWmavjaFbfL/n5UeLDofNGw==);strokeColor=#36a9cc;strokeWidth=2;spacingTop=-3;spacingBottom=-3;spacingLeft=-3;spacingRight=-3;points=[];labelBackgroundColor=none;rounded=0;html=1;whiteSpace=wrap;" vertex="1" parent="1">
            <mxGeometry x="2453" y="821" width="70" height="69" as="geometry" />
          </mxCell>
        </UserObject>
        <UserObject label="&lt;div style=&quot;font-size: 1px&quot;&gt;&lt;p style=&quot;text-align:center;margin-left:0;margin-right:0;margin-top:0px;margin-bottom:0px;text-indent:0;vertical-align:middle;direction:ltr;&quot;&gt;&lt;font style=&quot;font-size:13px;font-family:0;color:#15475b;direction:ltr;letter-spacing:0px;line-height:120%;opacity:1&quot;&gt;节点D&lt;/font&gt;&lt;/p&gt;&lt;/div&gt;" tags="Background" id="p5UnvhGX0PjjsRk6D67m-130">
          <mxCell style="verticalAlign=middle;align=center;overflow=width;vsdxID=130;fillColor=#b4d8d5;gradientColor=none;shape=stencil(jZFRDsIgEERPs58aYGM9QK33aCwVIkJDqdbbC1mbKiGmfzvDWyaZBaxH1Q4SBBuDdzf51F1QgCcQQlslvQ5xAmwA6955efVush3poU1kmu7ukX6YaY+lDcFepA4kz0ReJk8o/2U/cserfXUkbxbkcbZAogBhDuGW2BVfjEJwFssLsX9DjbYbW4nDWmavjaFbfL/n5UeLDofNGw==);strokeColor=#36a9cc;strokeWidth=2;spacingTop=-3;spacingBottom=-3;spacingLeft=-3;spacingRight=-3;points=[];labelBackgroundColor=none;rounded=0;html=1;whiteSpace=wrap;" vertex="1" parent="1">
            <mxGeometry x="2443" y="619" width="70" height="69" as="geometry" />
          </mxCell>
        </UserObject>
        <UserObject label="&lt;div style=&quot;font-size: 1px&quot;&gt;&lt;p style=&quot;text-align:center;margin-left:0;margin-right:0;margin-top:0px;margin-bottom:0px;text-indent:0;vertical-align:middle;direction:ltr;&quot;&gt;&lt;font style=&quot;font-size:13px;font-family:0;color:#15475b;direction:ltr;letter-spacing:0px;line-height:120%;opacity:1&quot;&gt;节点E&lt;/font&gt;&lt;/p&gt;&lt;/div&gt;" tags="Background" id="p5UnvhGX0PjjsRk6D67m-131">
          <mxCell style="verticalAlign=middle;align=center;overflow=width;vsdxID=131;fillColor=#b4d8d5;gradientColor=none;shape=stencil(jZFRDsIgEERPs58aYGM9QK33aCwVIkJDqdbbC1mbKiGmfzvDWyaZBaxH1Q4SBBuDdzf51F1QgCcQQlslvQ5xAmwA6955efVush3poU1kmu7ukX6YaY+lDcFepA4kz0ReJk8o/2U/cserfXUkbxbkcbZAogBhDuGW2BVfjEJwFssLsX9DjbYbW4nDWmavjaFbfL/n5UeLDofNGw==);strokeColor=#36a9cc;strokeWidth=2;spacingTop=-3;spacingBottom=-3;spacingLeft=-3;spacingRight=-3;points=[];labelBackgroundColor=none;rounded=0;html=1;whiteSpace=wrap;" vertex="1" parent="1">
            <mxGeometry x="2779" y="804" width="70" height="69" as="geometry" />
          </mxCell>
        </UserObject>
        <UserObject label="&lt;div style=&quot;font-size: 1px&quot;&gt;&lt;p style=&quot;text-align:center;margin-left:0;margin-right:0;margin-top:0px;margin-bottom:0px;text-indent:0;vertical-align:middle;direction:ltr;&quot;&gt;&lt;font style=&quot;font-size:13px;font-family:0;color:#15475b;direction:ltr;letter-spacing:0px;line-height:120%;opacity:1&quot;&gt;节点F&lt;/font&gt;&lt;/p&gt;&lt;/div&gt;" tags="Background" id="p5UnvhGX0PjjsRk6D67m-132">
          <mxCell style="verticalAlign=middle;align=center;overflow=width;vsdxID=132;fillColor=#b4d8d5;gradientColor=none;shape=stencil(jZFRDsIgEERPs58aYGM9QK33aCwVIkJDqdbbC1mbKiGmfzvDWyaZBaxH1Q4SBBuDdzf51F1QgCcQQlslvQ5xAmwA6955efVush3poU1kmu7ukX6YaY+lDcFepA4kz0ReJk8o/2U/cserfXUkbxbkcbZAogBhDuGW2BVfjEJwFssLsX9DjbYbW4nDWmavjaFbfL/n5UeLDofNGw==);strokeColor=#36a9cc;strokeWidth=2;spacingTop=-3;spacingBottom=-3;spacingLeft=-3;spacingRight=-3;points=[];labelBackgroundColor=none;rounded=0;html=1;whiteSpace=wrap;" vertex="1" parent="1">
            <mxGeometry x="2757" y="592" width="70" height="69" as="geometry" />
          </mxCell>
        </UserObject>
        <UserObject label="&lt;div style=&quot;font-size: 1px&quot;&gt;&lt;p style=&quot;text-align:center;margin-left:0;margin-right:0;margin-top:0px;margin-bottom:0px;text-indent:0;vertical-align:middle;direction:ltr;&quot;&gt;&lt;font style=&quot;font-size:13px;font-family:0;color:#15475b;direction:ltr;letter-spacing:0px;line-height:120%;opacity:1&quot;&gt;节点H&lt;/font&gt;&lt;/p&gt;&lt;/div&gt;" tags="Background" id="p5UnvhGX0PjjsRk6D67m-133">
          <mxCell style="verticalAlign=middle;align=center;overflow=width;vsdxID=133;fillColor=#b4d8d5;gradientColor=none;shape=stencil(jZFRDsIgEERPs58aYGM9QK33aCwVIkJDqdbbC1mbKiGmfzvDWyaZBaxH1Q4SBBuDdzf51F1QgCcQQlslvQ5xAmwA6955efVush3poU1kmu7ukX6YaY+lDcFepA4kz0ReJk8o/2U/cserfXUkbxbkcbZAogBhDuGW2BVfjEJwFssLsX9DjbYbW4nDWmavjaFbfL/n5UeLDofNGw==);strokeColor=#36a9cc;strokeWidth=2;spacingTop=-3;spacingBottom=-3;spacingLeft=-3;spacingRight=-3;points=[];labelBackgroundColor=none;rounded=0;html=1;whiteSpace=wrap;" vertex="1" parent="1">
            <mxGeometry x="2873" y="701" width="70" height="69" as="geometry" />
          </mxCell>
        </UserObject>
        <UserObject label="&lt;div style=&quot;font-size: 1px&quot;&gt;&lt;p style=&quot;text-align:center;margin-left:0;margin-right:0;margin-top:0px;margin-bottom:0px;text-indent:0;vertical-align:middle;direction:ltr;&quot;&gt;&lt;font style=&quot;font-size:13px;font-family:0;color:#15475b;direction:ltr;letter-spacing:0px;line-height:120%;opacity:1&quot;&gt;节点K&lt;/font&gt;&lt;/p&gt;&lt;/div&gt;" tags="Background" id="p5UnvhGX0PjjsRk6D67m-134">
          <mxCell style="verticalAlign=middle;align=center;overflow=width;vsdxID=134;fillColor=#f4c18f;gradientColor=none;shape=stencil(jZFRDsIgEERPs58aYGM9QK33aCwVIkJDqdbbC1mbKiGmfzvDWyaZBaxH1Q4SBBuDdzf51F1QgCcQQlslvQ5xAmwA6955efVush3poU1kmu7ukX6YaY+lDcFepA4kz0ReJk8o/2U/cserfXUkbxbkcbZAogBhDuGW2BVfjEJwFssLsX9DjbYbW4nDWmavjaFbfL/n5UeLDofNGw==);strokeColor=#36a9cc;strokeWidth=2;spacingTop=-3;spacingBottom=-3;spacingLeft=-3;spacingRight=-3;points=[];labelBackgroundColor=none;rounded=0;html=1;whiteSpace=wrap;" vertex="1" parent="1">
            <mxGeometry x="2564" y="957" width="70" height="69" as="geometry" />
          </mxCell>
        </UserObject>
        <UserObject label="&lt;div style=&quot;font-size: 1px&quot;&gt;&lt;p style=&quot;text-align:center;margin-left:0;margin-right:0;margin-top:0px;margin-bottom:0px;text-indent:0;vertical-align:middle;direction:ltr;&quot;&gt;&lt;font style=&quot;font-size:13px;font-family:0;color:#15475b;direction:ltr;letter-spacing:0px;line-height:120%;opacity:1&quot;&gt;种子节点：节点B&lt;/font&gt;&lt;/p&gt;&lt;/div&gt;" tags="Background" id="p5UnvhGX0PjjsRk6D67m-135">
          <mxCell style="verticalAlign=middle;align=center;overflow=width;vsdxID=135;fillColor=#f4c18f;gradientColor=none;shape=stencil(nZBRDoQgDERP03+WHsHFe5iISyOCQdT19kIaIxq//Jtp3zTpAFaTaUYNUkwx+F6v1EYD+AUpyRkdKCYFqACrzgf9C352LfuxyWRWg1/yhT/nRE5IsZWuZtCSK8CPeI0e/hF+jV7AJM4PO7KWCyr390bSiNtEtQM=);strokeColor=#36a9cc;strokeWidth=2;spacingTop=-3;spacingBottom=-3;spacingLeft=-3;spacingRight=-3;points=[];labelBackgroundColor=none;rounded=0;html=1;whiteSpace=wrap;" vertex="1" parent="1">
            <mxGeometry x="2637" y="961" width="140" height="61" as="geometry" />
          </mxCell>
        </UserObject>
        <UserObject label="&lt;div style=&quot;font-size: 1px&quot;&gt;&lt;p style=&quot;text-align:center;margin-left:0;margin-right:0;margin-top:0px;margin-bottom:0px;text-indent:0;vertical-align:middle;direction:ltr;&quot;&gt;&lt;font style=&quot;font-size:20px;font-family:0;color:#15475b;direction:ltr;letter-spacing:0px;line-height:120%;opacity:1&quot;&gt;&lt;b&gt;bucket1&lt;/b&gt;&lt;/font&gt;&lt;/p&gt;&lt;/div&gt;" tags="Background" id="p5UnvhGX0PjjsRk6D67m-136">
          <mxCell style="verticalAlign=middle;align=center;overflow=width;vsdxID=136;fillColor=#b4d8d5;gradientColor=none;shape=stencil(nZBRDoQgDERP03+WHsHFe5iISyOCQdT19kIaIxq//Jtp3zTpAFaTaUYNUkwx+F6v1EYD+AUpyRkdKCYFqACrzgf9C352LfuxyWRWg1/yhT/nRE5IsZWuZtCSK8CPeI0e/hF+jV7AJM4PO7KWCyr390bSiNtEtQM=);strokeColor=#36a9cc;strokeWidth=2;spacingTop=-3;spacingBottom=-3;spacingLeft=-3;spacingRight=-3;points=[];labelBackgroundColor=none;rounded=0;html=1;whiteSpace=wrap;" vertex="1" parent="1">
            <mxGeometry x="2399" y="1224" width="131" height="36" as="geometry" />
          </mxCell>
        </UserObject>
        <UserObject label="&lt;div style=&quot;font-size: 1px&quot;&gt;&lt;p style=&quot;text-align:center;margin-left:0;margin-right:0;margin-top:0px;margin-bottom:0px;text-indent:0;vertical-align:middle;direction:ltr;&quot;&gt;&lt;font style=&quot;font-size:20px;font-family:0;color:#15475b;direction:ltr;letter-spacing:0px;line-height:120%;opacity:1&quot;&gt;&lt;b&gt;bucket2&lt;/b&gt;&lt;/font&gt;&lt;/p&gt;&lt;/div&gt;" tags="Background" id="p5UnvhGX0PjjsRk6D67m-137">
          <mxCell style="verticalAlign=middle;align=center;overflow=width;vsdxID=137;fillColor=#b4d8d5;gradientColor=none;shape=stencil(nZBRDoQgDERP03+WHsHFe5iISyOCQdT19kIaIxq//Jtp3zTpAFaTaUYNUkwx+F6v1EYD+AUpyRkdKCYFqACrzgf9C352LfuxyWRWg1/yhT/nRE5IsZWuZtCSK8CPeI0e/hF+jV7AJM4PO7KWCyr390bSiNtEtQM=);strokeColor=#36a9cc;strokeWidth=2;spacingTop=-3;spacingBottom=-3;spacingLeft=-3;spacingRight=-3;points=[];labelBackgroundColor=none;rounded=0;html=1;whiteSpace=wrap;" vertex="1" parent="1">
            <mxGeometry x="2399" y="1257" width="131" height="36" as="geometry" />
          </mxCell>
        </UserObject>
        <UserObject label="&lt;div style=&quot;font-size: 1px&quot;&gt;&lt;p style=&quot;text-align:center;margin-left:0;margin-right:0;margin-top:0px;margin-bottom:0px;text-indent:0;vertical-align:middle;direction:ltr;&quot;&gt;&lt;font style=&quot;font-size:20px;font-family:0;color:#15475b;direction:ltr;letter-spacing:0px;line-height:120%;opacity:1&quot;&gt;&lt;b&gt;bucket3&lt;/b&gt;&lt;/font&gt;&lt;/p&gt;&lt;/div&gt;" tags="Background" id="p5UnvhGX0PjjsRk6D67m-138">
          <mxCell style="verticalAlign=middle;align=center;overflow=width;vsdxID=138;fillColor=#b4d8d5;gradientColor=none;shape=stencil(nZBRDoQgDERP03+WHsHFe5iISyOCQdT19kIaIxq//Jtp3zTpAFaTaUYNUkwx+F6v1EYD+AUpyRkdKCYFqACrzgf9C352LfuxyWRWg1/yhT/nRE5IsZWuZtCSK8CPeI0e/hF+jV7AJM4PO7KWCyr390bSiNtEtQM=);strokeColor=#36a9cc;strokeWidth=2;spacingTop=-3;spacingBottom=-3;spacingLeft=-3;spacingRight=-3;points=[];labelBackgroundColor=none;rounded=0;html=1;whiteSpace=wrap;" vertex="1" parent="1">
            <mxGeometry x="2399" y="1291" width="131" height="36" as="geometry" />
          </mxCell>
        </UserObject>
        <UserObject label="&lt;div style=&quot;font-size: 1px&quot;&gt;&lt;p style=&quot;text-align:center;margin-left:0;margin-right:0;margin-top:0px;margin-bottom:0px;text-indent:0;vertical-align:middle;direction:ltr;&quot;&gt;&lt;font style=&quot;font-size:20px;font-family:0;color:#15475b;direction:ltr;letter-spacing:0px;line-height:120%;opacity:1&quot;&gt;&lt;b&gt;bucket4&lt;/b&gt;&lt;/font&gt;&lt;/p&gt;&lt;/div&gt;" tags="Background" id="p5UnvhGX0PjjsRk6D67m-139">
          <mxCell style="verticalAlign=middle;align=center;overflow=width;vsdxID=139;fillColor=#b4d8d5;gradientColor=none;shape=stencil(nZBRDoQgDERP03+WHsHFe5iISyOCQdT19kIaIxq//Jtp3zTpAFaTaUYNUkwx+F6v1EYD+AUpyRkdKCYFqACrzgf9C352LfuxyWRWg1/yhT/nRE5IsZWuZtCSK8CPeI0e/hF+jV7AJM4PO7KWCyr390bSiNtEtQM=);strokeColor=#36a9cc;strokeWidth=2;spacingTop=-3;spacingBottom=-3;spacingLeft=-3;spacingRight=-3;points=[];labelBackgroundColor=none;rounded=0;html=1;whiteSpace=wrap;" vertex="1" parent="1">
            <mxGeometry x="2399" y="1321" width="131" height="36" as="geometry" />
          </mxCell>
        </UserObject>
        <UserObject label="&lt;div style=&quot;font-size: 1px&quot;&gt;&lt;p style=&quot;text-align:center;margin-left:0;margin-right:0;margin-top:0px;margin-bottom:0px;text-indent:0;vertical-align:middle;direction:ltr;&quot;&gt;&lt;font style=&quot;font-size:20px;font-family:0;color:#15475b;direction:ltr;letter-spacing:0px;line-height:120%;opacity:1&quot;&gt;&lt;b&gt;bucket5&lt;/b&gt;&lt;/font&gt;&lt;/p&gt;&lt;/div&gt;" tags="Background" id="p5UnvhGX0PjjsRk6D67m-140">
          <mxCell style="verticalAlign=middle;align=center;overflow=width;vsdxID=140;fillColor=#b4d8d5;gradientColor=none;shape=stencil(nZBRDoQgDERP03+WHsHFe5iISyOCQdT19kIaIxq//Jtp3zTpAFaTaUYNUkwx+F6v1EYD+AUpyRkdKCYFqACrzgf9C352LfuxyWRWg1/yhT/nRE5IsZWuZtCSK8CPeI0e/hF+jV7AJM4PO7KWCyr390bSiNtEtQM=);strokeColor=#36a9cc;strokeWidth=2;spacingTop=-3;spacingBottom=-3;spacingLeft=-3;spacingRight=-3;points=[];labelBackgroundColor=none;rounded=0;html=1;whiteSpace=wrap;" vertex="1" parent="1">
            <mxGeometry x="2399" y="1356" width="131" height="36" as="geometry" />
          </mxCell>
        </UserObject>
        <UserObject label="&lt;div style=&quot;font-size: 1px&quot;&gt;&lt;p style=&quot;text-align:center;margin-left:0;margin-right:0;margin-top:0px;margin-bottom:0px;text-indent:0;vertical-align:middle;direction:ltr;&quot;&gt;&lt;font style=&quot;font-size:20px;font-family:0;color:#15475b;direction:ltr;letter-spacing:0px;line-height:120%;opacity:1&quot;&gt;&lt;b&gt;... ... &lt;/b&gt;&lt;/font&gt;&lt;/p&gt;&lt;/div&gt;" tags="Background" id="p5UnvhGX0PjjsRk6D67m-141">
          <mxCell style="verticalAlign=middle;align=center;overflow=width;vsdxID=141;fillColor=#b4d8d5;gradientColor=none;shape=stencil(nZBRDoQgDERP03+WHsHFe5iISyOCQdT19kIaIxq//Jtp3zTpAFaTaUYNUkwx+F6v1EYD+AUpyRkdKCYFqACrzgf9C352LfuxyWRWg1/yhT/nRE5IsZWuZtCSK8CPeI0e/hF+jV7AJM4PO7KWCyr390bSiNtEtQM=);strokeColor=#36a9cc;strokeWidth=2;spacingTop=-3;spacingBottom=-3;spacingLeft=-3;spacingRight=-3;points=[];labelBackgroundColor=none;rounded=0;html=1;whiteSpace=wrap;" vertex="1" parent="1">
            <mxGeometry x="2399" y="1387" width="131" height="36" as="geometry" />
          </mxCell>
        </UserObject>
        <UserObject label="&lt;div style=&quot;font-size: 1px&quot;&gt;&lt;p style=&quot;text-align:center;margin-left:0;margin-right:0;margin-top:0px;margin-bottom:0px;text-indent:0;vertical-align:middle;direction:ltr;&quot;&gt;&lt;font style=&quot;font-size:20px;font-family:0;color:#15475b;direction:ltr;letter-spacing:0px;line-height:120%;opacity:1&quot;&gt;&lt;b&gt;bucket159&lt;/b&gt;&lt;/font&gt;&lt;/p&gt;&lt;/div&gt;" tags="Background" id="p5UnvhGX0PjjsRk6D67m-142">
          <mxCell style="verticalAlign=middle;align=center;overflow=width;vsdxID=142;fillColor=#b4d8d5;gradientColor=none;shape=stencil(nZBRDoQgDERP03+WHsHFe5iISyOCQdT19kIaIxq//Jtp3zTpAFaTaUYNUkwx+F6v1EYD+AUpyRkdKCYFqACrzgf9C352LfuxyWRWg1/yhT/nRE5IsZWuZtCSK8CPeI0e/hF+jV7AJM4PO7KWCyr390bSiNtEtQM=);strokeColor=#36a9cc;strokeWidth=2;spacingTop=-3;spacingBottom=-3;spacingLeft=-3;spacingRight=-3;points=[];labelBackgroundColor=none;rounded=0;html=1;whiteSpace=wrap;" vertex="1" parent="1">
            <mxGeometry x="2399" y="1419" width="131" height="36" as="geometry" />
          </mxCell>
        </UserObject>
        <UserObject label="&lt;div style=&quot;font-size: 1px&quot;&gt;&lt;p style=&quot;text-align:center;margin-left:0;margin-right:0;margin-top:0px;margin-bottom:0px;text-indent:0;vertical-align:middle;direction:ltr;&quot;&gt;&lt;font style=&quot;font-size:20px;font-family:0;color:#15475b;direction:ltr;letter-spacing:0px;line-height:120%;opacity:1&quot;&gt;&lt;b&gt;节点A&lt;/b&gt;&lt;/font&gt;&lt;/p&gt;&lt;/div&gt;" tags="Background" id="p5UnvhGX0PjjsRk6D67m-143">
          <mxCell style="verticalAlign=middle;align=center;overflow=width;vsdxID=143;fillColor=#f4c18f;gradientColor=none;shape=stencil(nZBRDoQgDERP03+WHsHFe5iISyOCQdT19kIaIxq//Jtp3zTpAFaTaUYNUkwx+F6v1EYD+AUpyRkdKCYFqACrzgf9C352LfuxyWRWg1/yhT/nRE5IsZWuZtCSK8CPeI0e/hF+jV7AJM4PO7KWCyr390bSiNtEtQM=);strokeColor=#36a9cc;strokeWidth=2;spacingTop=-3;spacingBottom=-3;spacingLeft=-3;spacingRight=-3;points=[];labelBackgroundColor=none;rounded=0;html=1;whiteSpace=wrap;" vertex="1" parent="1">
            <mxGeometry x="2533" y="1224" width="131" height="36" as="geometry" />
          </mxCell>
        </UserObject>
        <UserObject label="&lt;div style=&quot;font-size: 1px&quot;&gt;&lt;p style=&quot;text-align:center;margin-left:0;margin-right:0;margin-top:0px;margin-bottom:0px;text-indent:0;vertical-align:middle;direction:ltr;&quot;&gt;&lt;font style=&quot;font-size:20px;font-family:0;color:#15475b;direction:ltr;letter-spacing:0px;line-height:120%;opacity:1&quot;&gt;&lt;b&gt;节点B&lt;/b&gt;&lt;/font&gt;&lt;/p&gt;&lt;/div&gt;" tags="Background" id="p5UnvhGX0PjjsRk6D67m-144">
          <mxCell style="verticalAlign=middle;align=center;overflow=width;vsdxID=144;fillColor=#f4c18f;gradientColor=none;shape=stencil(nZBRDoQgDERP03+WHsHFe5iISyOCQdT19kIaIxq//Jtp3zTpAFaTaUYNUkwx+F6v1EYD+AUpyRkdKCYFqACrzgf9C352LfuxyWRWg1/yhT/nRE5IsZWuZtCSK8CPeI0e/hF+jV7AJM4PO7KWCyr390bSiNtEtQM=);strokeColor=#36a9cc;strokeWidth=2;spacingTop=-3;spacingBottom=-3;spacingLeft=-3;spacingRight=-3;points=[];labelBackgroundColor=none;rounded=0;html=1;whiteSpace=wrap;" vertex="1" parent="1">
            <mxGeometry x="2533" y="1257" width="131" height="36" as="geometry" />
          </mxCell>
        </UserObject>
        <UserObject label="&lt;div style=&quot;font-size: 1px&quot;&gt;&lt;p style=&quot;text-align:center;margin-left:0;margin-right:0;margin-top:0px;margin-bottom:0px;text-indent:0;vertical-align:middle;direction:ltr;&quot;&gt;&lt;font style=&quot;font-size:20px;font-family:0;color:#15475b;direction:ltr;letter-spacing:0px;line-height:120%;opacity:1&quot;&gt;&lt;b&gt;节点C&lt;/b&gt;&lt;/font&gt;&lt;/p&gt;&lt;/div&gt;" tags="Background" id="p5UnvhGX0PjjsRk6D67m-145">
          <mxCell style="verticalAlign=middle;align=center;overflow=width;vsdxID=145;fillColor=#f4c18f;gradientColor=none;shape=stencil(nZBRDoQgDERP03+WHsHFe5iISyOCQdT19kIaIxq//Jtp3zTpAFaTaUYNUkwx+F6v1EYD+AUpyRkdKCYFqACrzgf9C352LfuxyWRWg1/yhT/nRE5IsZWuZtCSK8CPeI0e/hF+jV7AJM4PO7KWCyr390bSiNtEtQM=);strokeColor=#36a9cc;strokeWidth=2;spacingTop=-3;spacingBottom=-3;spacingLeft=-3;spacingRight=-3;points=[];labelBackgroundColor=none;rounded=0;html=1;whiteSpace=wrap;" vertex="1" parent="1">
            <mxGeometry x="2688" y="1257" width="131" height="36" as="geometry" />
          </mxCell>
        </UserObject>
        <UserObject label="&lt;div style=&quot;font-size: 1px&quot;&gt;&lt;p style=&quot;text-align:center;margin-left:0;margin-right:0;margin-top:0px;margin-bottom:0px;text-indent:0;vertical-align:middle;direction:ltr;&quot;&gt;&lt;font style=&quot;font-size:20px;font-family:0;color:#15475b;direction:ltr;letter-spacing:0px;line-height:120%;opacity:1&quot;&gt;&lt;b&gt;节点D&lt;/b&gt;&lt;/font&gt;&lt;/p&gt;&lt;/div&gt;" tags="Background" id="p5UnvhGX0PjjsRk6D67m-146">
          <mxCell style="verticalAlign=middle;align=center;overflow=width;vsdxID=146;fillColor=#f4c18f;gradientColor=none;shape=stencil(nZBRDoQgDERP03+WHsHFe5iISyOCQdT19kIaIxq//Jtp3zTpAFaTaUYNUkwx+F6v1EYD+AUpyRkdKCYFqACrzgf9C352LfuxyWRWg1/yhT/nRE5IsZWuZtCSK8CPeI0e/hF+jV7AJM4PO7KWCyr390bSiNtEtQM=);strokeColor=#36a9cc;strokeWidth=2;spacingTop=-3;spacingBottom=-3;spacingLeft=-3;spacingRight=-3;points=[];labelBackgroundColor=none;rounded=0;html=1;whiteSpace=wrap;" vertex="1" parent="1">
            <mxGeometry x="2533" y="1291" width="131" height="36" as="geometry" />
          </mxCell>
        </UserObject>
        <UserObject label="&lt;div style=&quot;font-size: 1px&quot;&gt;&lt;p style=&quot;text-align:center;margin-left:0;margin-right:0;margin-top:0px;margin-bottom:0px;text-indent:0;vertical-align:middle;direction:ltr;&quot;&gt;&lt;font style=&quot;font-size:20px;font-family:0;color:#15475b;direction:ltr;letter-spacing:0px;line-height:120%;opacity:1&quot;&gt;&lt;b&gt;节点E&lt;/b&gt;&lt;/font&gt;&lt;/p&gt;&lt;/div&gt;" tags="Background" id="p5UnvhGX0PjjsRk6D67m-147">
          <mxCell style="verticalAlign=middle;align=center;overflow=width;vsdxID=147;fillColor=#f4c18f;gradientColor=none;shape=stencil(nZBRDoQgDERP03+WHsHFe5iISyOCQdT19kIaIxq//Jtp3zTpAFaTaUYNUkwx+F6v1EYD+AUpyRkdKCYFqACrzgf9C352LfuxyWRWg1/yhT/nRE5IsZWuZtCSK8CPeI0e/hF+jV7AJM4PO7KWCyr390bSiNtEtQM=);strokeColor=#36a9cc;strokeWidth=2;spacingTop=-3;spacingBottom=-3;spacingLeft=-3;spacingRight=-3;points=[];labelBackgroundColor=none;rounded=0;html=1;whiteSpace=wrap;" vertex="1" parent="1">
            <mxGeometry x="2688" y="1291" width="131" height="36" as="geometry" />
          </mxCell>
        </UserObject>
        <UserObject label="&lt;div style=&quot;font-size: 1px&quot;&gt;&lt;p style=&quot;text-align:center;margin-left:0;margin-right:0;margin-top:0px;margin-bottom:0px;text-indent:0;vertical-align:middle;direction:ltr;&quot;&gt;&lt;font style=&quot;font-size:20px;font-family:0;color:#15475b;direction:ltr;letter-spacing:0px;line-height:120%;opacity:1&quot;&gt;&lt;b&gt;节点F&lt;/b&gt;&lt;/font&gt;&lt;/p&gt;&lt;/div&gt;" tags="Background" id="p5UnvhGX0PjjsRk6D67m-148">
          <mxCell style="verticalAlign=middle;align=center;overflow=width;vsdxID=148;fillColor=#f4c18f;gradientColor=none;shape=stencil(nZBRDoQgDERP03+WHsHFe5iISyOCQdT19kIaIxq//Jtp3zTpAFaTaUYNUkwx+F6v1EYD+AUpyRkdKCYFqACrzgf9C352LfuxyWRWg1/yhT/nRE5IsZWuZtCSK8CPeI0e/hF+jV7AJM4PO7KWCyr390bSiNtEtQM=);strokeColor=#36a9cc;strokeWidth=2;spacingTop=-3;spacingBottom=-3;spacingLeft=-3;spacingRight=-3;points=[];labelBackgroundColor=none;rounded=0;html=1;whiteSpace=wrap;" vertex="1" parent="1">
            <mxGeometry x="2533" y="1321" width="131" height="36" as="geometry" />
          </mxCell>
        </UserObject>
        <UserObject label="&lt;div style=&quot;font-size: 1px&quot;&gt;&lt;p style=&quot;text-align:center;margin-left:0;margin-right:0;margin-top:0px;margin-bottom:0px;text-indent:0;vertical-align:middle;direction:ltr;&quot;&gt;&lt;font style=&quot;font-size:20px;font-family:0;color:#15475b;direction:ltr;letter-spacing:0px;line-height:120%;opacity:1&quot;&gt;&lt;b&gt;节点G&lt;/b&gt;&lt;/font&gt;&lt;/p&gt;&lt;/div&gt;" tags="Background" id="p5UnvhGX0PjjsRk6D67m-149">
          <mxCell style="verticalAlign=middle;align=center;overflow=width;vsdxID=149;fillColor=#f4c18f;gradientColor=none;shape=stencil(nZBRDoQgDERP03+WHsHFe5iISyOCQdT19kIaIxq//Jtp3zTpAFaTaUYNUkwx+F6v1EYD+AUpyRkdKCYFqACrzgf9C352LfuxyWRWg1/yhT/nRE5IsZWuZtCSK8CPeI0e/hF+jV7AJM4PO7KWCyr390bSiNtEtQM=);strokeColor=#36a9cc;strokeWidth=2;spacingTop=-3;spacingBottom=-3;spacingLeft=-3;spacingRight=-3;points=[];labelBackgroundColor=none;rounded=0;html=1;whiteSpace=wrap;" vertex="1" parent="1">
            <mxGeometry x="2688" y="1321" width="131" height="36" as="geometry" />
          </mxCell>
        </UserObject>
        <UserObject label="&lt;div style=&quot;font-size: 1px&quot;&gt;&lt;p style=&quot;text-align:center;margin-left:0;margin-right:0;margin-top:0px;margin-bottom:0px;text-indent:0;vertical-align:middle;direction:ltr;&quot;&gt;&lt;font style=&quot;font-size:20px;font-family:0;color:#15475b;direction:ltr;letter-spacing:0px;line-height:120%;opacity:1&quot;&gt;&lt;b&gt;... ...&lt;/b&gt;&lt;/font&gt;&lt;/p&gt;&lt;/div&gt;" tags="Background" id="p5UnvhGX0PjjsRk6D67m-150">
          <mxCell style="verticalAlign=middle;align=center;overflow=width;vsdxID=150;fillColor=#f4c18f;gradientColor=none;shape=stencil(nZBRDoQgDERP03+WHsHFe5iISyOCQdT19kIaIxq//Jtp3zTpAFaTaUYNUkwx+F6v1EYD+AUpyRkdKCYFqACrzgf9C352LfuxyWRWg1/yhT/nRE5IsZWuZtCSK8CPeI0e/hF+jV7AJM4PO7KWCyr390bSiNtEtQM=);strokeColor=#36a9cc;strokeWidth=2;spacingTop=-3;spacingBottom=-3;spacingLeft=-3;spacingRight=-3;points=[];labelBackgroundColor=none;rounded=0;html=1;whiteSpace=wrap;" vertex="1" parent="1">
            <mxGeometry x="2854" y="1321" width="131" height="36" as="geometry" />
          </mxCell>
        </UserObject>
        <UserObject label="&lt;div style=&quot;font-size: 1px&quot;&gt;&lt;p style=&quot;text-align:center;margin-left:0;margin-right:0;margin-top:0px;margin-bottom:0px;text-indent:0;vertical-align:middle;direction:ltr;&quot;&gt;&lt;font style=&quot;font-size:20px;font-family:0;color:#15475b;direction:ltr;letter-spacing:0px;line-height:120%;opacity:1&quot;&gt;&lt;b&gt;节点F&lt;/b&gt;&lt;/font&gt;&lt;/p&gt;&lt;/div&gt;" tags="Background" id="p5UnvhGX0PjjsRk6D67m-151">
          <mxCell style="verticalAlign=middle;align=center;overflow=width;vsdxID=151;fillColor=#f4c18f;gradientColor=none;shape=stencil(nZBRDoQgDERP03+WHsHFe5iISyOCQdT19kIaIxq//Jtp3zTpAFaTaUYNUkwx+F6v1EYD+AUpyRkdKCYFqACrzgf9C352LfuxyWRWg1/yhT/nRE5IsZWuZtCSK8CPeI0e/hF+jV7AJM4PO7KWCyr390bSiNtEtQM=);strokeColor=#36a9cc;strokeWidth=2;spacingTop=-3;spacingBottom=-3;spacingLeft=-3;spacingRight=-3;points=[];labelBackgroundColor=none;rounded=0;html=1;whiteSpace=wrap;" vertex="1" parent="1">
            <mxGeometry x="2533" y="1419" width="131" height="36" as="geometry" />
          </mxCell>
        </UserObject>
        <UserObject label="&lt;div style=&quot;font-size: 1px&quot;&gt;&lt;p style=&quot;text-align:center;margin-left:0;margin-right:0;margin-top:0px;margin-bottom:0px;text-indent:0;vertical-align:middle;direction:ltr;&quot;&gt;&lt;font style=&quot;font-size:20px;font-family:0;color:#15475b;direction:ltr;letter-spacing:0px;line-height:120%;opacity:1&quot;&gt;&lt;b&gt;节点I&lt;/b&gt;&lt;/font&gt;&lt;/p&gt;&lt;/div&gt;" tags="Background" id="p5UnvhGX0PjjsRk6D67m-152">
          <mxCell style="verticalAlign=middle;align=center;overflow=width;vsdxID=152;fillColor=#f4c18f;gradientColor=none;shape=stencil(nZBRDoQgDERP03+WHsHFe5iISyOCQdT19kIaIxq//Jtp3zTpAFaTaUYNUkwx+F6v1EYD+AUpyRkdKCYFqACrzgf9C352LfuxyWRWg1/yhT/nRE5IsZWuZtCSK8CPeI0e/hF+jV7AJM4PO7KWCyr390bSiNtEtQM=);strokeColor=#36a9cc;strokeWidth=2;spacingTop=-3;spacingBottom=-3;spacingLeft=-3;spacingRight=-3;points=[];labelBackgroundColor=none;rounded=0;html=1;whiteSpace=wrap;" vertex="1" parent="1">
            <mxGeometry x="2533" y="1356" width="131" height="36" as="geometry" />
          </mxCell>
        </UserObject>
        <UserObject label="&lt;div style=&quot;font-size: 1px&quot;&gt;&lt;p style=&quot;text-align:center;margin-left:0;margin-right:0;margin-top:0px;margin-bottom:0px;text-indent:0;vertical-align:middle;direction:ltr;&quot;&gt;&lt;font style=&quot;font-size:20px;font-family:0;color:#15475b;direction:ltr;letter-spacing:0px;line-height:120%;opacity:1&quot;&gt;&lt;b&gt;... ...&lt;/b&gt;&lt;/font&gt;&lt;/p&gt;&lt;/div&gt;" tags="Background" id="p5UnvhGX0PjjsRk6D67m-153">
          <mxCell style="verticalAlign=middle;align=center;overflow=width;vsdxID=153;fillColor=#f4c18f;gradientColor=none;shape=stencil(nZBRDoQgDERP03+WHsHFe5iISyOCQdT19kIaIxq//Jtp3zTpAFaTaUYNUkwx+F6v1EYD+AUpyRkdKCYFqACrzgf9C352LfuxyWRWg1/yhT/nRE5IsZWuZtCSK8CPeI0e/hF+jV7AJM4PO7KWCyr390bSiNtEtQM=);strokeColor=#36a9cc;strokeWidth=2;spacingTop=-3;spacingBottom=-3;spacingLeft=-3;spacingRight=-3;points=[];labelBackgroundColor=none;rounded=0;html=1;whiteSpace=wrap;" vertex="1" parent="1">
            <mxGeometry x="2688" y="1356" width="131" height="36" as="geometry" />
          </mxCell>
        </UserObject>
        <UserObject label="&lt;div style=&quot;font-size: 1px&quot;&gt;&lt;p style=&quot;text-align:center;margin-left:0;margin-right:0;margin-top:0px;margin-bottom:0px;text-indent:0;vertical-align:middle;direction:ltr;&quot;&gt;&lt;font style=&quot;font-size:20px;font-family:0;color:#15475b;direction:ltr;letter-spacing:0px;line-height:120%;opacity:1&quot;&gt;&lt;b&gt;距离2^[0,1)&lt;/b&gt;&lt;/font&gt;&lt;/p&gt;&lt;/div&gt;" tags="Background" id="p5UnvhGX0PjjsRk6D67m-154">
          <mxCell style="verticalAlign=middle;align=center;overflow=width;vsdxID=154;fillColor=#b4d8d5;gradientColor=none;shape=stencil(nZBRDoQgDERP03+WHsHFe5iISyOCQdT19kIaIxq//Jtp3zTpAFaTaUYNUkwx+F6v1EYD+AUpyRkdKCYFqACrzgf9C352LfuxyWRWg1/yhT/nRE5IsZWuZtCSK8CPeI0e/hF+jV7AJM4PO7KWCyr390bSiNtEtQM=);strokeColor=#36a9cc;strokeWidth=2;spacingTop=-3;spacingBottom=-3;spacingLeft=-3;spacingRight=-3;points=[];labelBackgroundColor=none;rounded=0;html=1;whiteSpace=wrap;" vertex="1" parent="1">
            <mxGeometry x="2229" y="1224" width="170" height="36" as="geometry" />
          </mxCell>
        </UserObject>
        <UserObject label="&lt;div style=&quot;font-size: 1px&quot;&gt;&lt;p style=&quot;text-align:center;margin-left:0;margin-right:0;margin-top:0px;margin-bottom:0px;text-indent:0;vertical-align:middle;direction:ltr;&quot;&gt;&lt;font style=&quot;font-size:20px;font-family:0;color:#15475b;direction:ltr;letter-spacing:0px;line-height:120%;opacity:1&quot;&gt;&lt;b&gt;距离2^[1,2)&lt;/b&gt;&lt;/font&gt;&lt;/p&gt;&lt;/div&gt;" tags="Background" id="p5UnvhGX0PjjsRk6D67m-155">
          <mxCell style="verticalAlign=middle;align=center;overflow=width;vsdxID=155;fillColor=#b4d8d5;gradientColor=none;shape=stencil(nZBRDoQgDERP03+WHsHFe5iISyOCQdT19kIaIxq//Jtp3zTpAFaTaUYNUkwx+F6v1EYD+AUpyRkdKCYFqACrzgf9C352LfuxyWRWg1/yhT/nRE5IsZWuZtCSK8CPeI0e/hF+jV7AJM4PO7KWCyr390bSiNtEtQM=);strokeColor=#36a9cc;strokeWidth=2;spacingTop=-3;spacingBottom=-3;spacingLeft=-3;spacingRight=-3;points=[];labelBackgroundColor=none;rounded=0;html=1;whiteSpace=wrap;" vertex="1" parent="1">
            <mxGeometry x="2229" y="1257" width="170" height="36" as="geometry" />
          </mxCell>
        </UserObject>
        <UserObject label="&lt;div style=&quot;font-size: 1px&quot;&gt;&lt;p style=&quot;text-align:center;margin-left:0;margin-right:0;margin-top:0px;margin-bottom:0px;text-indent:0;vertical-align:middle;direction:ltr;&quot;&gt;&lt;font style=&quot;font-size:20px;font-family:0;color:#15475b;direction:ltr;letter-spacing:0px;line-height:120%;opacity:1&quot;&gt;&lt;b&gt;距离2^[2,3)&lt;/b&gt;&lt;/font&gt;&lt;/p&gt;&lt;/div&gt;" tags="Background" id="p5UnvhGX0PjjsRk6D67m-156">
          <mxCell style="verticalAlign=middle;align=center;overflow=width;vsdxID=156;fillColor=#b4d8d5;gradientColor=none;shape=stencil(nZBRDoQgDERP03+WHsHFe5iISyOCQdT19kIaIxq//Jtp3zTpAFaTaUYNUkwx+F6v1EYD+AUpyRkdKCYFqACrzgf9C352LfuxyWRWg1/yhT/nRE5IsZWuZtCSK8CPeI0e/hF+jV7AJM4PO7KWCyr390bSiNtEtQM=);strokeColor=#36a9cc;strokeWidth=2;spacingTop=-3;spacingBottom=-3;spacingLeft=-3;spacingRight=-3;points=[];labelBackgroundColor=none;rounded=0;html=1;whiteSpace=wrap;" vertex="1" parent="1">
            <mxGeometry x="2229" y="1291" width="170" height="36" as="geometry" />
          </mxCell>
        </UserObject>
        <UserObject label="&lt;div style=&quot;font-size: 1px&quot;&gt;&lt;p style=&quot;text-align:center;margin-left:0;margin-right:0;margin-top:0px;margin-bottom:0px;text-indent:0;vertical-align:middle;direction:ltr;&quot;&gt;&lt;font style=&quot;font-size:20px;font-family:0;color:#15475b;direction:ltr;letter-spacing:0px;line-height:120%;opacity:1&quot;&gt;&lt;b&gt;距离2^[3,4)&lt;/b&gt;&lt;/font&gt;&lt;/p&gt;&lt;/div&gt;" tags="Background" id="p5UnvhGX0PjjsRk6D67m-157">
          <mxCell style="verticalAlign=middle;align=center;overflow=width;vsdxID=157;fillColor=#b4d8d5;gradientColor=none;shape=stencil(nZBRDoQgDERP03+WHsHFe5iISyOCQdT19kIaIxq//Jtp3zTpAFaTaUYNUkwx+F6v1EYD+AUpyRkdKCYFqACrzgf9C352LfuxyWRWg1/yhT/nRE5IsZWuZtCSK8CPeI0e/hF+jV7AJM4PO7KWCyr390bSiNtEtQM=);strokeColor=#36a9cc;strokeWidth=2;spacingTop=-3;spacingBottom=-3;spacingLeft=-3;spacingRight=-3;points=[];labelBackgroundColor=none;rounded=0;html=1;whiteSpace=wrap;" vertex="1" parent="1">
            <mxGeometry x="2229" y="1322" width="170" height="36" as="geometry" />
          </mxCell>
        </UserObject>
        <UserObject label="&lt;div style=&quot;font-size: 1px&quot;&gt;&lt;p style=&quot;text-align:center;margin-left:0;margin-right:0;margin-top:0px;margin-bottom:0px;text-indent:0;vertical-align:middle;direction:ltr;&quot;&gt;&lt;font style=&quot;font-size:20px;font-family:0;color:#15475b;direction:ltr;letter-spacing:0px;line-height:120%;opacity:1&quot;&gt;&lt;b&gt;距离2^[4,5)&lt;/b&gt;&lt;/font&gt;&lt;/p&gt;&lt;/div&gt;" tags="Background" id="p5UnvhGX0PjjsRk6D67m-158">
          <mxCell style="verticalAlign=middle;align=center;overflow=width;vsdxID=158;fillColor=#b4d8d5;gradientColor=none;shape=stencil(nZBRDoQgDERP03+WHsHFe5iISyOCQdT19kIaIxq//Jtp3zTpAFaTaUYNUkwx+F6v1EYD+AUpyRkdKCYFqACrzgf9C352LfuxyWRWg1/yhT/nRE5IsZWuZtCSK8CPeI0e/hF+jV7AJM4PO7KWCyr390bSiNtEtQM=);strokeColor=#36a9cc;strokeWidth=2;spacingTop=-3;spacingBottom=-3;spacingLeft=-3;spacingRight=-3;points=[];labelBackgroundColor=none;rounded=0;html=1;whiteSpace=wrap;" vertex="1" parent="1">
            <mxGeometry x="2229" y="1356" width="170" height="36" as="geometry" />
          </mxCell>
        </UserObject>
        <UserObject label="&lt;div style=&quot;font-size: 1px&quot;&gt;&lt;p style=&quot;text-align:center;margin-left:0;margin-right:0;margin-top:0px;margin-bottom:0px;text-indent:0;vertical-align:middle;direction:ltr;&quot;&gt;&lt;font style=&quot;font-size:20px;font-family:0;color:#15475b;direction:ltr;letter-spacing:0px;line-height:120%;opacity:1&quot;&gt;&lt;b&gt;距离2^[158,159)&lt;/b&gt;&lt;/font&gt;&lt;/p&gt;&lt;/div&gt;" tags="Background" id="p5UnvhGX0PjjsRk6D67m-159">
          <mxCell style="verticalAlign=middle;align=center;overflow=width;vsdxID=159;fillColor=#b4d8d5;gradientColor=none;shape=stencil(nZBRDoQgDERP03+WHsHFe5iISyOCQdT19kIaIxq//Jtp3zTpAFaTaUYNUkwx+F6v1EYD+AUpyRkdKCYFqACrzgf9C352LfuxyWRWg1/yhT/nRE5IsZWuZtCSK8CPeI0e/hF+jV7AJM4PO7KWCyr390bSiNtEtQM=);strokeColor=#36a9cc;strokeWidth=2;spacingTop=-3;spacingBottom=-3;spacingLeft=-3;spacingRight=-3;points=[];labelBackgroundColor=none;rounded=0;html=1;whiteSpace=wrap;" vertex="1" parent="1">
            <mxGeometry x="2229" y="1419" width="170" height="36" as="geometry" />
          </mxCell>
        </UserObject>
        <UserObject label="&lt;div style=&quot;font-size: 1px&quot;&gt;&lt;p style=&quot;text-align:center;margin-left:0;margin-right:0;margin-top:0px;margin-bottom:0px;text-indent:0;vertical-align:middle;direction:ltr;&quot;&gt;&lt;font style=&quot;font-size:13px;font-family:0;color:#15475b;direction:ltr;letter-spacing:0px;line-height:120%;opacity:1&quot;&gt;000&lt;/font&gt;&lt;/p&gt;&lt;/div&gt;" tags="Background" id="p5UnvhGX0PjjsRk6D67m-160">
          <mxCell style="verticalAlign=middle;align=center;overflow=width;vsdxID=160;fillColor=#b4d8d5;gradientColor=none;shape=stencil(jZFRDsIgEERPs58aYGM9QK33aCwVIkJDqdbbC1mbKiGmfzvDWyaZBaxH1Q4SBBuDdzf51F1QgCcQQlslvQ5xAmwA6955efVush3poU1kmu7ukX6YaY+lDcFepA4kz0ReJk8o/2U/cserfXUkbxbkcbZAogBhDuGW2BVfjEJwFssLsX9DjbYbW4nDWmavjaFbfL/n5UeLDofNGw==);strokeColor=#36a9cc;strokeWidth=2;spacingTop=-3;spacingBottom=-3;spacingLeft=-3;spacingRight=-3;points=[];labelBackgroundColor=none;rounded=0;html=1;whiteSpace=wrap;" vertex="1" parent="1">
            <mxGeometry x="2344" y="2039" width="70" height="61" as="geometry" />
          </mxCell>
        </UserObject>
        <UserObject label="&lt;div style=&quot;font-size: 1px&quot;&gt;&lt;p style=&quot;text-align:center;margin-left:0;margin-right:0;margin-top:0px;margin-bottom:0px;text-indent:0;vertical-align:middle;direction:ltr;&quot;&gt;&lt;font style=&quot;font-size:13px;font-family:0;color:#15475b;direction:ltr;letter-spacing:0px;line-height:120%;opacity:1&quot;&gt;001&lt;/font&gt;&lt;/p&gt;&lt;/div&gt;" tags="Background" id="p5UnvhGX0PjjsRk6D67m-161">
          <mxCell style="verticalAlign=middle;align=center;overflow=width;vsdxID=161;fillColor=#b4d8d5;gradientColor=none;shape=stencil(jZFRDsIgEERPs58aYGM9QK33aCwVIkJDqdbbC1mbKiGmfzvDWyaZBaxH1Q4SBBuDdzf51F1QgCcQQlslvQ5xAmwA6955efVush3poU1kmu7ukX6YaY+lDcFepA4kz0ReJk8o/2U/cserfXUkbxbkcbZAogBhDuGW2BVfjEJwFssLsX9DjbYbW4nDWmavjaFbfL/n5UeLDofNGw==);strokeColor=#36a9cc;strokeWidth=2;spacingTop=-3;spacingBottom=-3;spacingLeft=-3;spacingRight=-3;points=[];labelBackgroundColor=none;rounded=0;html=1;whiteSpace=wrap;" vertex="1" parent="1">
            <mxGeometry x="2463" y="2039" width="70" height="61" as="geometry" />
          </mxCell>
        </UserObject>
        <UserObject label="&lt;div style=&quot;font-size: 1px&quot;&gt;&lt;p style=&quot;text-align:center;margin-left:0;margin-right:0;margin-top:0px;margin-bottom:0px;text-indent:0;vertical-align:middle;direction:ltr;&quot;&gt;&lt;font style=&quot;font-size:13px;font-family:0;color:#15475b;direction:ltr;letter-spacing:0px;line-height:120%;opacity:1&quot;&gt;010&lt;/font&gt;&lt;/p&gt;&lt;/div&gt;" tags="Background" id="p5UnvhGX0PjjsRk6D67m-162">
          <mxCell style="verticalAlign=middle;align=center;overflow=width;vsdxID=162;fillColor=#b4d8d5;gradientColor=none;shape=stencil(jZFRDsIgEERPs58aYGM9QK33aCwVIkJDqdbbC1mbKiGmfzvDWyaZBaxH1Q4SBBuDdzf51F1QgCcQQlslvQ5xAmwA6955efVush3poU1kmu7ukX6YaY+lDcFepA4kz0ReJk8o/2U/cserfXUkbxbkcbZAogBhDuGW2BVfjEJwFssLsX9DjbYbW4nDWmavjaFbfL/n5UeLDofNGw==);strokeColor=#36a9cc;strokeWidth=2;spacingTop=-3;spacingBottom=-3;spacingLeft=-3;spacingRight=-3;points=[];labelBackgroundColor=none;rounded=0;html=1;whiteSpace=wrap;" vertex="1" parent="1">
            <mxGeometry x="2583" y="2039" width="70" height="61" as="geometry" />
          </mxCell>
        </UserObject>
        <UserObject label="&lt;div style=&quot;font-size: 1px&quot;&gt;&lt;p style=&quot;text-align:center;margin-left:0;margin-right:0;margin-top:0px;margin-bottom:0px;text-indent:0;vertical-align:middle;direction:ltr;&quot;&gt;&lt;font style=&quot;font-size:13px;font-family:0;color:#15475b;direction:ltr;letter-spacing:0px;line-height:120%;opacity:1&quot;&gt;011&lt;/font&gt;&lt;/p&gt;&lt;/div&gt;" tags="Background" id="p5UnvhGX0PjjsRk6D67m-163">
          <mxCell style="verticalAlign=middle;align=center;overflow=width;vsdxID=163;fillColor=#b4d8d5;gradientColor=none;shape=stencil(jZFRDsIgEERPs58aYGM9QK33aCwVIkJDqdbbC1mbKiGmfzvDWyaZBaxH1Q4SBBuDdzf51F1QgCcQQlslvQ5xAmwA6955efVush3poU1kmu7ukX6YaY+lDcFepA4kz0ReJk8o/2U/cserfXUkbxbkcbZAogBhDuGW2BVfjEJwFssLsX9DjbYbW4nDWmavjaFbfL/n5UeLDofNGw==);strokeColor=#36a9cc;strokeWidth=2;spacingTop=-3;spacingBottom=-3;spacingLeft=-3;spacingRight=-3;points=[];labelBackgroundColor=none;rounded=0;html=1;whiteSpace=wrap;" vertex="1" parent="1">
            <mxGeometry x="2700" y="2039" width="70" height="61" as="geometry" />
          </mxCell>
        </UserObject>
        <UserObject label="&lt;div style=&quot;font-size: 1px&quot;&gt;&lt;p style=&quot;text-align:center;margin-left:0;margin-right:0;margin-top:0px;margin-bottom:0px;text-indent:0;vertical-align:middle;direction:ltr;&quot;&gt;&lt;font style=&quot;font-size:13px;font-family:0;color:#15475b;direction:ltr;letter-spacing:0px;line-height:120%;opacity:1&quot;&gt;100&lt;/font&gt;&lt;/p&gt;&lt;/div&gt;" tags="Background" id="p5UnvhGX0PjjsRk6D67m-164">
          <mxCell style="verticalAlign=middle;align=center;overflow=width;vsdxID=164;fillColor=#b4d8d5;gradientColor=none;shape=stencil(jZFRDsIgEERPs58aYGM9QK33aCwVIkJDqdbbC1mbKiGmfzvDWyaZBaxH1Q4SBBuDdzf51F1QgCcQQlslvQ5xAmwA6955efVush3poU1kmu7ukX6YaY+lDcFepA4kz0ReJk8o/2U/cserfXUkbxbkcbZAogBhDuGW2BVfjEJwFssLsX9DjbYbW4nDWmavjaFbfL/n5UeLDofNGw==);strokeColor=#36a9cc;strokeWidth=2;spacingTop=-3;spacingBottom=-3;spacingLeft=-3;spacingRight=-3;points=[];labelBackgroundColor=none;rounded=0;html=1;whiteSpace=wrap;" vertex="1" parent="1">
            <mxGeometry x="2829" y="2039" width="70" height="61" as="geometry" />
          </mxCell>
        </UserObject>
        <UserObject label="&lt;div style=&quot;font-size: 1px&quot;&gt;&lt;p style=&quot;text-align:center;margin-left:0;margin-right:0;margin-top:0px;margin-bottom:0px;text-indent:0;vertical-align:middle;direction:ltr;&quot;&gt;&lt;font style=&quot;font-size:13px;font-family:0;color:#15475b;direction:ltr;letter-spacing:0px;line-height:120%;opacity:1&quot;&gt;101&lt;/font&gt;&lt;/p&gt;&lt;/div&gt;" tags="Background" id="p5UnvhGX0PjjsRk6D67m-165">
          <mxCell style="verticalAlign=middle;align=center;overflow=width;vsdxID=165;fillColor=#b4d8d5;gradientColor=none;shape=stencil(jZFRDsIgEERPs58aYGM9QK33aCwVIkJDqdbbC1mbKiGmfzvDWyaZBaxH1Q4SBBuDdzf51F1QgCcQQlslvQ5xAmwA6955efVush3poU1kmu7ukX6YaY+lDcFepA4kz0ReJk8o/2U/cserfXUkbxbkcbZAogBhDuGW2BVfjEJwFssLsX9DjbYbW4nDWmavjaFbfL/n5UeLDofNGw==);strokeColor=#36a9cc;strokeWidth=2;spacingTop=-3;spacingBottom=-3;spacingLeft=-3;spacingRight=-3;points=[];labelBackgroundColor=none;rounded=0;html=1;whiteSpace=wrap;" vertex="1" parent="1">
            <mxGeometry x="2963" y="2046" width="70" height="61" as="geometry" />
          </mxCell>
        </UserObject>
        <UserObject label="&lt;div style=&quot;font-size: 1px&quot;&gt;&lt;p style=&quot;text-align:center;margin-left:0;margin-right:0;margin-top:0px;margin-bottom:0px;text-indent:0;vertical-align:middle;direction:ltr;&quot;&gt;&lt;font style=&quot;font-size:13px;font-family:0;color:#15475b;direction:ltr;letter-spacing:0px;line-height:120%;opacity:1&quot;&gt;110&lt;/font&gt;&lt;/p&gt;&lt;/div&gt;" tags="Background" id="p5UnvhGX0PjjsRk6D67m-166">
          <mxCell style="verticalAlign=middle;align=center;overflow=width;vsdxID=166;fillColor=#b4d8d5;gradientColor=none;shape=stencil(jZFRDsIgEERPs58aYGM9QK33aCwVIkJDqdbbC1mbKiGmfzvDWyaZBaxH1Q4SBBuDdzf51F1QgCcQQlslvQ5xAmwA6955efVush3poU1kmu7ukX6YaY+lDcFepA4kz0ReJk8o/2U/cserfXUkbxbkcbZAogBhDuGW2BVfjEJwFssLsX9DjbYbW4nDWmavjaFbfL/n5UeLDofNGw==);strokeColor=#36a9cc;strokeWidth=2;spacingTop=-3;spacingBottom=-3;spacingLeft=-3;spacingRight=-3;points=[];labelBackgroundColor=none;rounded=0;html=1;whiteSpace=wrap;" vertex="1" parent="1">
            <mxGeometry x="3068" y="2039" width="70" height="61" as="geometry" />
          </mxCell>
        </UserObject>
        <UserObject label="&lt;div style=&quot;font-size: 1px&quot;&gt;&lt;p style=&quot;text-align:center;margin-left:0;margin-right:0;margin-top:0px;margin-bottom:0px;text-indent:0;vertical-align:middle;direction:ltr;&quot;&gt;&lt;font style=&quot;font-size:13px;font-family:0;color:#15475b;direction:ltr;letter-spacing:0px;line-height:120%;opacity:1&quot;&gt;111&lt;/font&gt;&lt;/p&gt;&lt;/div&gt;" tags="Background" id="p5UnvhGX0PjjsRk6D67m-167">
          <mxCell style="verticalAlign=middle;align=center;overflow=width;vsdxID=167;fillColor=#b4d8d5;gradientColor=none;shape=stencil(jZFRDsIgEERPs58aYGM9QK33aCwVIkJDqdbbC1mbKiGmfzvDWyaZBaxH1Q4SBBuDdzf51F1QgCcQQlslvQ5xAmwA6955efVush3poU1kmu7ukX6YaY+lDcFepA4kz0ReJk8o/2U/cserfXUkbxbkcbZAogBhDuGW2BVfjEJwFssLsX9DjbYbW4nDWmavjaFbfL/n5UeLDofNGw==);strokeColor=#36a9cc;strokeWidth=2;spacingTop=-3;spacingBottom=-3;spacingLeft=-3;spacingRight=-3;points=[];labelBackgroundColor=none;rounded=0;html=1;whiteSpace=wrap;" vertex="1" parent="1">
            <mxGeometry x="3206" y="2039" width="70" height="61" as="geometry" />
          </mxCell>
        </UserObject>
        <UserObject label="&lt;div style=&quot;font-size: 1px&quot;&gt;&lt;p style=&quot;text-align:center;margin-left:0;margin-right:0;margin-top:0px;margin-bottom:0px;text-indent:0;vertical-align:middle;direction:ltr;&quot;&gt;&lt;font style=&quot;font-size:13px;font-family:0;color:#15475b;direction:ltr;letter-spacing:0px;line-height:120%;opacity:1&quot;&gt;0&lt;/font&gt;&lt;/p&gt;&lt;/div&gt;" tags="Background" id="p5UnvhGX0PjjsRk6D67m-168">
          <mxCell style="verticalAlign=middle;align=center;overflow=width;vsdxID=168;fillColor=#b4d8d5;gradientColor=none;shape=stencil(jZFRDsIgEERPs58aYGM9QK33aCwVIkJDqdbbC1mbKiGmfzvDWyaZBaxH1Q4SBBuDdzf51F1QgCcQQlslvQ5xAmwA6955efVush3poU1kmu7ukX6YaY+lDcFepA4kz0ReJk8o/2U/cserfXUkbxbkcbZAogBhDuGW2BVfjEJwFssLsX9DjbYbW4nDWmavjaFbfL/n5UeLDofNGw==);strokeColor=#36a9cc;strokeWidth=2;spacingTop=-3;spacingBottom=-3;spacingLeft=-3;spacingRight=-3;points=[];labelBackgroundColor=none;rounded=0;html=1;whiteSpace=wrap;" vertex="1" parent="1">
            <mxGeometry x="2403" y="1917" width="70" height="61" as="geometry" />
          </mxCell>
        </UserObject>
        <UserObject label="&lt;div style=&quot;font-size: 1px&quot;&gt;&lt;p style=&quot;text-align:center;margin-left:0;margin-right:0;margin-top:0px;margin-bottom:0px;text-indent:0;vertical-align:middle;direction:ltr;&quot;&gt;&lt;font style=&quot;font-size:13px;font-family:0;color:#15475b;direction:ltr;letter-spacing:0px;line-height:120%;opacity:1&quot;&gt;1&lt;/font&gt;&lt;/p&gt;&lt;/div&gt;" tags="Background" id="p5UnvhGX0PjjsRk6D67m-169">
          <mxCell style="verticalAlign=middle;align=center;overflow=width;vsdxID=169;fillColor=#b4d8d5;gradientColor=none;shape=stencil(jZFRDsIgEERPs58aYGM9QK33aCwVIkJDqdbbC1mbKiGmfzvDWyaZBaxH1Q4SBBuDdzf51F1QgCcQQlslvQ5xAmwA6955efVush3poU1kmu7ukX6YaY+lDcFepA4kz0ReJk8o/2U/cserfXUkbxbkcbZAogBhDuGW2BVfjEJwFssLsX9DjbYbW4nDWmavjaFbfL/n5UeLDofNGw==);strokeColor=#36a9cc;strokeWidth=2;spacingTop=-3;spacingBottom=-3;spacingLeft=-3;spacingRight=-3;points=[];labelBackgroundColor=none;rounded=0;html=1;whiteSpace=wrap;" vertex="1" parent="1">
            <mxGeometry x="2633" y="1926" width="70" height="61" as="geometry" />
          </mxCell>
        </UserObject>
        <UserObject label="&lt;div style=&quot;font-size: 1px&quot;&gt;&lt;p style=&quot;text-align:center;margin-left:0;margin-right:0;margin-top:0px;margin-bottom:0px;text-indent:0;vertical-align:middle;direction:ltr;&quot;&gt;&lt;font style=&quot;font-size:13px;font-family:0;color:#15475b;direction:ltr;letter-spacing:0px;line-height:120%;opacity:1&quot;&gt;0&lt;/font&gt;&lt;/p&gt;&lt;/div&gt;" tags="Background" id="p5UnvhGX0PjjsRk6D67m-170">
          <mxCell style="verticalAlign=middle;align=center;overflow=width;vsdxID=170;fillColor=#b4d8d5;gradientColor=none;shape=stencil(jZFRDsIgEERPs58aYGM9QK33aCwVIkJDqdbbC1mbKiGmfzvDWyaZBaxH1Q4SBBuDdzf51F1QgCcQQlslvQ5xAmwA6955efVush3poU1kmu7ukX6YaY+lDcFepA4kz0ReJk8o/2U/cserfXUkbxbkcbZAogBhDuGW2BVfjEJwFssLsX9DjbYbW4nDWmavjaFbfL/n5UeLDofNGw==);strokeColor=#36a9cc;strokeWidth=2;spacingTop=-3;spacingBottom=-3;spacingLeft=-3;spacingRight=-3;points=[];labelBackgroundColor=none;rounded=0;html=1;whiteSpace=wrap;" vertex="1" parent="1">
            <mxGeometry x="2897" y="1917" width="70" height="61" as="geometry" />
          </mxCell>
        </UserObject>
        <UserObject label="&lt;div style=&quot;font-size: 1px&quot;&gt;&lt;p style=&quot;text-align:center;margin-left:0;margin-right:0;margin-top:0px;margin-bottom:0px;text-indent:0;vertical-align:middle;direction:ltr;&quot;&gt;&lt;font style=&quot;font-size:13px;font-family:0;color:#15475b;direction:ltr;letter-spacing:0px;line-height:120%;opacity:1&quot;&gt;1&lt;/font&gt;&lt;/p&gt;&lt;/div&gt;" tags="Background" id="p5UnvhGX0PjjsRk6D67m-171">
          <mxCell style="verticalAlign=middle;align=center;overflow=width;vsdxID=171;fillColor=#b4d8d5;gradientColor=none;shape=stencil(jZFRDsIgEERPs58aYGM9QK33aCwVIkJDqdbbC1mbKiGmfzvDWyaZBaxH1Q4SBBuDdzf51F1QgCcQQlslvQ5xAmwA6955efVush3poU1kmu7ukX6YaY+lDcFepA4kz0ReJk8o/2U/cserfXUkbxbkcbZAogBhDuGW2BVfjEJwFssLsX9DjbYbW4nDWmavjaFbfL/n5UeLDofNGw==);strokeColor=#36a9cc;strokeWidth=2;spacingTop=-3;spacingBottom=-3;spacingLeft=-3;spacingRight=-3;points=[];labelBackgroundColor=none;rounded=0;html=1;whiteSpace=wrap;" vertex="1" parent="1">
            <mxGeometry x="3127" y="1917" width="70" height="61" as="geometry" />
          </mxCell>
        </UserObject>
        <UserObject label="&lt;div style=&quot;font-size: 1px&quot;&gt;&lt;p style=&quot;text-align:center;margin-left:0;margin-right:0;margin-top:0px;margin-bottom:0px;text-indent:0;vertical-align:middle;direction:ltr;&quot;&gt;&lt;font style=&quot;font-size:13px;font-family:0;color:#15475b;direction:ltr;letter-spacing:0px;line-height:120%;opacity:1&quot;&gt;0&lt;/font&gt;&lt;/p&gt;&lt;/div&gt;" tags="Background" id="p5UnvhGX0PjjsRk6D67m-172">
          <mxCell style="verticalAlign=middle;align=center;overflow=width;vsdxID=172;fillColor=#b4d8d5;gradientColor=none;shape=stencil(jZFRDsIgEERPs58aYGM9QK33aCwVIkJDqdbbC1mbKiGmfzvDWyaZBaxH1Q4SBBuDdzf51F1QgCcQQlslvQ5xAmwA6955efVush3poU1kmu7ukX6YaY+lDcFepA4kz0ReJk8o/2U/cserfXUkbxbkcbZAogBhDuGW2BVfjEJwFssLsX9DjbYbW4nDWmavjaFbfL/n5UeLDofNGw==);strokeColor=#36a9cc;strokeWidth=2;spacingTop=-3;spacingBottom=-3;spacingLeft=-3;spacingRight=-3;points=[];labelBackgroundColor=none;rounded=0;html=1;whiteSpace=wrap;" vertex="1" parent="1">
            <mxGeometry x="2530" y="1784" width="70" height="61" as="geometry" />
          </mxCell>
        </UserObject>
        <UserObject label="&lt;div style=&quot;font-size: 1px&quot;&gt;&lt;p style=&quot;text-align:center;margin-left:0;margin-right:0;margin-top:0px;margin-bottom:0px;text-indent:0;vertical-align:middle;direction:ltr;&quot;&gt;&lt;font style=&quot;font-size:13px;font-family:0;color:#15475b;direction:ltr;letter-spacing:0px;line-height:120%;opacity:1&quot;&gt;1&lt;/font&gt;&lt;/p&gt;&lt;/div&gt;" tags="Background" id="p5UnvhGX0PjjsRk6D67m-173">
          <mxCell style="verticalAlign=middle;align=center;overflow=width;vsdxID=173;fillColor=#b4d8d5;gradientColor=none;shape=stencil(jZFRDsIgEERPs58aYGM9QK33aCwVIkJDqdbbC1mbKiGmfzvDWyaZBaxH1Q4SBBuDdzf51F1QgCcQQlslvQ5xAmwA6955efVush3poU1kmu7ukX6YaY+lDcFepA4kz0ReJk8o/2U/cserfXUkbxbkcbZAogBhDuGW2BVfjEJwFssLsX9DjbYbW4nDWmavjaFbfL/n5UeLDofNGw==);strokeColor=#36a9cc;strokeWidth=2;spacingTop=-3;spacingBottom=-3;spacingLeft=-3;spacingRight=-3;points=[];labelBackgroundColor=none;rounded=0;html=1;whiteSpace=wrap;" vertex="1" parent="1">
            <mxGeometry x="3001" y="1799" width="70" height="61" as="geometry" />
          </mxCell>
        </UserObject>
        <UserObject label="" tags="Background" id="p5UnvhGX0PjjsRk6D67m-174">
          <mxCell style="vsdxID=174;fillColor=#b4d8d5;gradientColor=none;shape=stencil(jZFRDsIgEERPs58aYGM9QK33aCwVIkJDqdbbC1mbKiGmfzvDWyaZBaxH1Q4SBBuDdzf51F1QgCcQQlslvQ5xAmwA6955efVush3poU1kmu7ukX6YaY+lDcFepA4kz0ReJk8o/2U/cserfXUkbxbkcbZAogBhDuGW2BVfjEJwFssLsX9DjbYbW4nDWmavjaFbfL/n5UeLDofNGw==);strokeColor=#36a9cc;strokeWidth=2;spacingTop=-3;spacingBottom=-3;spacingLeft=-3;spacingRight=-3;points=[];labelBackgroundColor=none;rounded=0;html=1;whiteSpace=wrap;" vertex="1" parent="1">
            <mxGeometry x="2740" y="1622" width="70" height="61" as="geometry" />
          </mxCell>
        </UserObject>
        <UserObject label="&lt;div style=&quot;font-size: 1px&quot;&gt;&lt;p style=&quot;text-align:center;margin-left:0;margin-right:0;margin-top:0px;margin-bottom:0px;text-indent:0;vertical-align:middle;direction:ltr;&quot;&gt;&lt;font style=&quot;font-size:25px;font-family:0;color:#15475b;direction:ltr;letter-spacing:0px;line-height:120%;opacity:1&quot;&gt;&lt;b&gt;距离为2^[0,1)&lt;/b&gt;&lt;/font&gt;&lt;/p&gt;&lt;/div&gt;" tags="Background" id="p5UnvhGX0PjjsRk6D67m-175">
          <mxCell style="verticalAlign=middle;align=center;overflow=width;vsdxID=175;fillColor=none;gradientColor=none;shape=stencil(nZBLDoAgDAVP0z3SIyjeg0SURgWD+Lu9EGL8xBW7N828Ji1gOWs5KeBs9s72aqPGa8AKOCejlSMfEqAALFvrVOfsYprEk4xmTKNd44Y99VhscHY8qU7iQOYhFixbvfhXzlZfYgj3hQG+54dReh2KEw==);strokeColor=none;strokeWidth=0;spacingTop=-3;spacingBottom=-3;spacingLeft=-3;spacingRight=-3;points=[];labelBackgroundColor=none;rounded=0;html=1;whiteSpace=wrap;" vertex="1" parent="1">
            <mxGeometry x="3046" y="2147" width="170" height="42" as="geometry" />
          </mxCell>
        </UserObject>
        <UserObject label="&lt;div style=&quot;font-size: 1px&quot;&gt;&lt;p style=&quot;text-align:center;margin-left:0;margin-right:0;margin-top:0px;margin-bottom:0px;text-indent:0;vertical-align:middle;direction:ltr;&quot;&gt;&lt;font style=&quot;font-size:25px;font-family:0;color:#15475b;direction:ltr;letter-spacing:0px;line-height:120%;opacity:1&quot;&gt;&lt;b&gt;距离为2^[1,2)&lt;/b&gt;&lt;/font&gt;&lt;/p&gt;&lt;/div&gt;" tags="Background" id="p5UnvhGX0PjjsRk6D67m-176">
          <mxCell style="verticalAlign=middle;align=center;overflow=width;vsdxID=176;fillColor=none;gradientColor=none;shape=stencil(nZBLDoAgDAVP0z3SIyjeg0SURgWD+Lu9EGL8xBW7N828Ji1gOWs5KeBs9s72aqPGa8AKOCejlSMfEqAALFvrVOfsYprEk4xmTKNd44Y99VhscHY8qU7iQOYhFixbvfhXzlZfYgj3hQG+54dReh2KEw==);strokeColor=none;strokeWidth=0;spacingTop=-3;spacingBottom=-3;spacingLeft=-3;spacingRight=-3;points=[];labelBackgroundColor=none;rounded=0;html=1;whiteSpace=wrap;" vertex="1" parent="1">
            <mxGeometry x="2847" y="2147" width="170" height="42" as="geometry" />
          </mxCell>
        </UserObject>
        <UserObject label="&lt;div style=&quot;font-size: 1px&quot;&gt;&lt;p style=&quot;text-align:center;margin-left:0;margin-right:0;margin-top:0px;margin-bottom:0px;text-indent:0;vertical-align:middle;direction:ltr;&quot;&gt;&lt;font style=&quot;font-size:25px;font-family:0;color:#15475b;direction:ltr;letter-spacing:0px;line-height:120%;opacity:1&quot;&gt;&lt;b&gt;距离为2^[2,3)&lt;/b&gt;&lt;/font&gt;&lt;/p&gt;&lt;/div&gt;" tags="Background" id="p5UnvhGX0PjjsRk6D67m-177">
          <mxCell style="verticalAlign=middle;align=center;overflow=width;vsdxID=177;fillColor=none;gradientColor=none;shape=stencil(nZBLDoAgDAVP0z3SIyjeg0SURgWD+Lu9EGL8xBW7N828Ji1gOWs5KeBs9s72aqPGa8AKOCejlSMfEqAALFvrVOfsYprEk4xmTKNd44Y99VhscHY8qU7iQOYhFixbvfhXzlZfYgj3hQG+54dReh2KEw==);strokeColor=none;strokeWidth=0;spacingTop=-3;spacingBottom=-3;spacingLeft=-3;spacingRight=-3;points=[];labelBackgroundColor=none;rounded=0;html=1;whiteSpace=wrap;" vertex="1" parent="1">
            <mxGeometry x="2447" y="2147" width="170" height="42" as="geometry" />
          </mxCell>
        </UserObject>
        <UserObject label="&lt;div style=&quot;font-size: 1px&quot;&gt;&lt;p style=&quot;text-align:center;margin-left:0;margin-right:0;margin-top:0px;margin-bottom:0px;text-indent:0;vertical-align:middle;direction:ltr;&quot;&gt;&lt;font style=&quot;font-size:25px;font-family:0;color:#15475b;direction:ltr;letter-spacing:0px;line-height:120%;opacity:1&quot;&gt;&lt;b&gt;B&lt;/b&gt;&lt;/font&gt;&lt;/p&gt;&lt;/div&gt;" tags="Background" id="p5UnvhGX0PjjsRk6D67m-230">
          <mxCell style="verticalAlign=middle;align=center;overflow=width;vsdxID=230;fillColor=#b4d8d5;gradientColor=none;shape=stencil(jZFRDsIgEERPs58aYGM9QK33aCwVIkJDqdbbC1mbKiGmfzvDWyaZBaxH1Q4SBBuDdzf51F1QgCcQQlslvQ5xAmwA6955efVush3poU1kmu7ukX6YaY+lDcFepA4kz0ReJk8o/2U/cserfXUkbxbkcbZAogBhDuGW2BVfjEJwFssLsX9DjbYbW4nDWmavjaFbfL/n5UeLDofNGw==);strokeColor=#36a9cc;strokeWidth=2;spacingTop=-3;spacingBottom=-3;spacingLeft=-3;spacingRight=-3;points=[];labelBackgroundColor=none;rounded=0;html=1;whiteSpace=wrap;" vertex="1" parent="1">
            <mxGeometry x="4893" y="1047" width="70" height="69" as="geometry" />
          </mxCell>
        </UserObject>
        <UserObject label="&lt;div style=&quot;font-size: 1px&quot;&gt;&lt;p style=&quot;text-align:center;margin-left:0;margin-right:0;margin-top:0px;margin-bottom:0px;text-indent:0;vertical-align:middle;direction:ltr;&quot;&gt;&lt;font style=&quot;font-size:25px;font-family:0;color:#15475b;direction:ltr;letter-spacing:0px;line-height:120%;opacity:1&quot;&gt;&lt;b&gt;C&lt;/b&gt;&lt;/font&gt;&lt;/p&gt;&lt;/div&gt;" tags="Background" id="p5UnvhGX0PjjsRk6D67m-231">
          <mxCell style="verticalAlign=middle;align=center;overflow=width;vsdxID=231;fillColor=#b4d8d5;gradientColor=none;shape=stencil(jZFRDsIgEERPs58aYGM9QK33aCwVIkJDqdbbC1mbKiGmfzvDWyaZBaxH1Q4SBBuDdzf51F1QgCcQQlslvQ5xAmwA6955efVush3poU1kmu7ukX6YaY+lDcFepA4kz0ReJk8o/2U/cserfXUkbxbkcbZAogBhDuGW2BVfjEJwFssLsX9DjbYbW4nDWmavjaFbfL/n5UeLDofNGw==);strokeColor=#36a9cc;strokeWidth=2;spacingTop=-3;spacingBottom=-3;spacingLeft=-3;spacingRight=-3;points=[];labelBackgroundColor=none;rounded=0;html=1;whiteSpace=wrap;" vertex="1" parent="1">
            <mxGeometry x="5131" y="1186" width="70" height="69" as="geometry" />
          </mxCell>
        </UserObject>
        <UserObject label="&lt;div style=&quot;font-size: 1px&quot;&gt;&lt;p style=&quot;text-align:center;margin-left:0;margin-right:0;margin-top:0px;margin-bottom:0px;text-indent:0;vertical-align:middle;direction:ltr;&quot;&gt;&lt;font style=&quot;font-size:25px;font-family:0;color:#15475b;direction:ltr;letter-spacing:0px;line-height:120%;opacity:1&quot;&gt;&lt;b&gt;D&lt;/b&gt;&lt;/font&gt;&lt;/p&gt;&lt;/div&gt;" tags="Background" id="p5UnvhGX0PjjsRk6D67m-232">
          <mxCell style="verticalAlign=middle;align=center;overflow=width;vsdxID=232;fillColor=#b4d8d5;gradientColor=none;shape=stencil(jZFRDsIgEERPs58aYGM9QK33aCwVIkJDqdbbC1mbKiGmfzvDWyaZBaxH1Q4SBBuDdzf51F1QgCcQQlslvQ5xAmwA6955efVush3poU1kmu7ukX6YaY+lDcFepA4kz0ReJk8o/2U/cserfXUkbxbkcbZAogBhDuGW2BVfjEJwFssLsX9DjbYbW4nDWmavjaFbfL/n5UeLDofNGw==);strokeColor=#36a9cc;strokeWidth=2;spacingTop=-3;spacingBottom=-3;spacingLeft=-3;spacingRight=-3;points=[];labelBackgroundColor=none;rounded=0;html=1;whiteSpace=wrap;" vertex="1" parent="1">
            <mxGeometry x="4893" y="1304" width="70" height="69" as="geometry" />
          </mxCell>
        </UserObject>
        <UserObject label="&lt;div style=&quot;font-size: 1px&quot;&gt;&lt;p style=&quot;text-align:center;margin-left:0;margin-right:0;margin-top:0px;margin-bottom:0px;text-indent:0;vertical-align:middle;direction:ltr;&quot;&gt;&lt;font style=&quot;font-size:20px;font-family:0;color:#15475b;direction:ltr;letter-spacing:0px;line-height:120%;opacity:1&quot;&gt;&lt;b&gt;分布式网络&lt;/b&gt;&lt;/font&gt;&lt;/p&gt;&lt;/div&gt;" tags="Background" id="p5UnvhGX0PjjsRk6D67m-233">
          <mxCell style="verticalAlign=middle;align=center;overflow=width;vsdxID=233;fillColor=#b4d8d5;gradientColor=none;shape=stencil(nZBRDoQgDERP03+WHsHFe5iISyOCQdT19kIaIxq//Jtp3zTpAFaTaUYNUkwx+F6v1EYD+AUpyRkdKCYFqACrzgf9C352LfuxyWRWg1/yhT/nRE5IsZWuZtCSK8CPeI0e/hF+jV7AJM4PO7KWCyr390bSiNtEtQM=);strokeColor=#36a9cc;strokeWidth=2;spacingTop=-3;spacingBottom=-3;spacingLeft=-3;spacingRight=-3;points=[];labelBackgroundColor=none;rounded=0;html=1;whiteSpace=wrap;" vertex="1" parent="1">
            <mxGeometry x="4242" y="970" width="179" height="61" as="geometry" />
          </mxCell>
        </UserObject>
        <UserObject label="&lt;div style=&quot;font-size: 1px&quot;&gt;&lt;p style=&quot;text-align:center;margin-left:0;margin-right:0;margin-top:0px;margin-bottom:0px;text-indent:0;vertical-align:middle;direction:ltr;&quot;&gt;&lt;font style=&quot;font-size:20px;font-family:0;color:#333333;direction:ltr;letter-spacing:0px;line-height:120%;opacity:1&quot;&gt;&lt;b&gt;货币发行-挖矿&lt;/b&gt;&lt;/font&gt;&lt;font style=&quot;font-size:20px;font-family:0;color:#15475b;direction:ltr;letter-spacing:0px;line-height:120%;opacity:1&quot;&gt;&lt;b&gt;&lt;br/&gt;&lt;/b&gt;&lt;/font&gt;&lt;/p&gt;&lt;/div&gt;" tags="Background" id="p5UnvhGX0PjjsRk6D67m-234">
          <mxCell style="verticalAlign=middle;align=center;overflow=width;vsdxID=234;fillColor=#b4d8d5;gradientColor=none;shape=stencil(nZBRDoQgDERP03+WHsHFe5iISyOCQdT19kIaIxq//Jtp3zTpAFaTaUYNUkwx+F6v1EYD+AUpyRkdKCYFqACrzgf9C352LfuxyWRWg1/yhT/nRE5IsZWuZtCSK8CPeI0e/hF+jV7AJM4PO7KWCyr390bSiNtEtQM=);strokeColor=#36a9cc;strokeWidth=2;spacingTop=-3;spacingBottom=-3;spacingLeft=-3;spacingRight=-3;points=[];labelBackgroundColor=none;rounded=0;html=1;whiteSpace=wrap;" vertex="1" parent="1">
            <mxGeometry x="4242" y="1026" width="179" height="61" as="geometry" />
          </mxCell>
        </UserObject>
        <UserObject label="&lt;div style=&quot;font-size: 1px&quot;&gt;&lt;p style=&quot;text-align:center;margin-left:0;margin-right:0;margin-top:0px;margin-bottom:0px;text-indent:0;vertical-align:middle;direction:ltr;&quot;&gt;&lt;font style=&quot;font-size:20px;font-family:0;color:#333333;direction:ltr;letter-spacing:0px;line-height:120%;opacity:1&quot;&gt;&lt;b&gt;账簿-区块链&lt;/b&gt;&lt;/font&gt;&lt;/p&gt;&lt;/div&gt;" tags="Background" id="p5UnvhGX0PjjsRk6D67m-235">
          <mxCell style="verticalAlign=middle;align=center;overflow=width;vsdxID=235;fillColor=#b4d8d5;gradientColor=none;shape=stencil(nZBRDoQgDERP03+WHsHFe5iISyOCQdT19kIaIxq//Jtp3zTpAFaTaUYNUkwx+F6v1EYD+AUpyRkdKCYFqACrzgf9C352LfuxyWRWg1/yhT/nRE5IsZWuZtCSK8CPeI0e/hF+jV7AJM4PO7KWCyr390bSiNtEtQM=);strokeColor=#36a9cc;strokeWidth=2;spacingTop=-3;spacingBottom=-3;spacingLeft=-3;spacingRight=-3;points=[];labelBackgroundColor=none;rounded=0;html=1;whiteSpace=wrap;" vertex="1" parent="1">
            <mxGeometry x="4421" y="970" width="179" height="61" as="geometry" />
          </mxCell>
        </UserObject>
        <UserObject label="&lt;div style=&quot;font-size: 1px&quot;&gt;&lt;p style=&quot;text-align:center;margin-left:0;margin-right:0;margin-top:0px;margin-bottom:0px;text-indent:0;vertical-align:middle;direction:ltr;&quot;&gt;&lt;font style=&quot;font-size:20px;font-family:0;color:#333333;direction:ltr;letter-spacing:0px;line-height:120%;opacity:1&quot;&gt;&lt;b&gt;交易验证-脚本&lt;/b&gt;&lt;/font&gt;&lt;font style=&quot;font-size:20px;font-family:0;color:#15475b;direction:ltr;letter-spacing:0px;line-height:120%;opacity:1&quot;&gt;&lt;b&gt;&lt;br/&gt;&lt;/b&gt;&lt;/font&gt;&lt;/p&gt;&lt;/div&gt;" tags="Background" id="p5UnvhGX0PjjsRk6D67m-236">
          <mxCell style="verticalAlign=middle;align=center;overflow=width;vsdxID=236;fillColor=#b4d8d5;gradientColor=none;shape=stencil(nZBRDoQgDERP03+WHsHFe5iISyOCQdT19kIaIxq//Jtp3zTpAFaTaUYNUkwx+F6v1EYD+AUpyRkdKCYFqACrzgf9C352LfuxyWRWg1/yhT/nRE5IsZWuZtCSK8CPeI0e/hF+jV7AJM4PO7KWCyr390bSiNtEtQM=);strokeColor=#36a9cc;strokeWidth=2;spacingTop=-3;spacingBottom=-3;spacingLeft=-3;spacingRight=-3;points=[];labelBackgroundColor=none;rounded=0;html=1;whiteSpace=wrap;" vertex="1" parent="1">
            <mxGeometry x="4421" y="1026" width="179" height="61" as="geometry" />
          </mxCell>
        </UserObject>
        <UserObject label="&lt;div style=&quot;font-size: 1px&quot;&gt;&lt;p style=&quot;text-align:center;margin-left:0;margin-right:0;margin-top:0px;margin-bottom:0px;text-indent:0;vertical-align:middle;direction:ltr;&quot;&gt;&lt;font style=&quot;font-size:25px;font-family:0;color:#15475b;direction:ltr;letter-spacing:0px;line-height:120%;opacity:1&quot;&gt;&lt;b&gt;A&lt;/b&gt;&lt;/font&gt;&lt;/p&gt;&lt;/div&gt;" tags="Background" id="p5UnvhGX0PjjsRk6D67m-237">
          <mxCell style="verticalAlign=middle;align=center;overflow=width;vsdxID=237;fillColor=#b4d8d5;gradientColor=none;shape=stencil(jZFRDsIgEERPs58aYGM9QK33aCwVIkJDqdbbC1mbKiGmfzvDWyaZBaxH1Q4SBBuDdzf51F1QgCcQQlslvQ5xAmwA6955efVush3poU1kmu7ukX6YaY+lDcFepA4kz0ReJk8o/2U/cserfXUkbxbkcbZAogBhDuGW2BVfjEJwFssLsX9DjbYbW4nDWmavjaFbfL/n5UeLDofNGw==);strokeColor=#36a9cc;strokeWidth=2;spacingTop=-3;spacingBottom=-3;spacingLeft=-3;spacingRight=-3;points=[];labelBackgroundColor=none;rounded=0;html=1;whiteSpace=wrap;" vertex="1" parent="1">
            <mxGeometry x="4682" y="1186" width="70" height="69" as="geometry" />
          </mxCell>
        </UserObject>
        <UserObject label="" tags="Background" id="p5UnvhGX0PjjsRk6D67m-238">
          <mxCell style="vsdxID=238;rotation=45;fillColor=#b4d8d5;gradientColor=none;shape=stencil(nZLdDsIgDIWfpremttl8gDnfY8nYICIsDP/eXkhjnEaNeHcOfKWkp8DNrLtJAeEcg9+rs+mjBt4CkXFaBROTAm6Bm8EHNQZ/dL34qctkVgd/yi9cpA5zBeFVXCV2J6Q1bkEyryp6ootg5s/0GvFvtt6U/KKMvvd6i/8+uW9kEo9oBmOtJLu8f40yHckacHsD);strokeColor=#36a9cc;strokeWidth=2;spacingTop=-3;spacingBottom=-3;spacingLeft=-3;spacingRight=-3;points=[];labelBackgroundColor=none;rounded=0;html=1;whiteSpace=wrap;" vertex="1" parent="1">
            <mxGeometry x="4582" y="1135" width="91" height="61" as="geometry" />
          </mxCell>
        </UserObject>
        <UserObject label="" tags="Background" id="p5UnvhGX0PjjsRk6D67m-398">
          <mxCell style="vsdxID=398;edgeStyle=none;startArrow=none;endArrow=block;startSize=5;endSize=5;strokeWidth=2;strokeColor=#2c769b;spacingTop=0;spacingBottom=0;spacingLeft=0;spacingRight=0;verticalAlign=middle;html=1;labelBackgroundColor=#ffffff;rounded=0;exitX=0.5;exitY=1;exitDx=0;exitDy=0;exitPerimeter=0;entryX=0.5;entryY=0;entryDx=0;entryDy=0;entryPerimeter=0;" edge="1" parent="1" source="p5UnvhGX0PjjsRk6D67m-169" target="p5UnvhGX0PjjsRk6D67m-163">
            <mxGeometry relative="1" as="geometry">
              <mxPoint x="-34" y="127" as="offset" />
              <Array as="points" />
            </mxGeometry>
          </mxCell>
        </UserObject>
        <UserObject label="" tags="Background" id="p5UnvhGX0PjjsRk6D67m-400">
          <mxCell style="vsdxID=400;edgeStyle=none;startArrow=none;endArrow=block;startSize=5;endSize=5;strokeWidth=2;strokeColor=#2c769b;spacingTop=0;spacingBottom=0;spacingLeft=0;spacingRight=0;verticalAlign=middle;html=1;labelBackgroundColor=#ffffff;rounded=0;exitX=0.9142857142857143;exitY=0.6811594202898551;exitDx=0;exitDy=0;exitPerimeter=0;entryX=0;entryY=0.5072463768115942;entryDx=0;entryDy=0;entryPerimeter=0;" edge="1" parent="1" source="p5UnvhGX0PjjsRk6D67m-127" target="p5UnvhGX0PjjsRk6D67m-129">
            <mxGeometry relative="1" as="geometry">
              <mxPoint x="-42" y="142" as="offset" />
              <Array as="points" />
            </mxGeometry>
          </mxCell>
        </UserObject>
        <UserObject label="" tags="Background" id="p5UnvhGX0PjjsRk6D67m-419">
          <mxCell style="vsdxID=419;edgeStyle=none;startArrow=none;endArrow=block;startSize=5;endSize=5;strokeWidth=2;strokeColor=#2c769b;spacingTop=0;spacingBottom=0;spacingLeft=0;spacingRight=0;verticalAlign=middle;html=1;labelBackgroundColor=#ffffff;rounded=0;exitX=0.5;exitY=1;exitDx=0;exitDy=0;exitPerimeter=0;entryX=0.5;entryY=0;entryDx=0;entryDy=0;entryPerimeter=0;" edge="1" parent="1" source="p5UnvhGX0PjjsRk6D67m-72" target="p5UnvhGX0PjjsRk6D67m-102">
            <mxGeometry relative="1" as="geometry">
              <mxPoint x="-13" y="118" as="offset" />
              <Array as="points">
                <mxPoint x="1678" y="433.86" />
                <mxPoint x="1696.5" y="433.86" />
              </Array>
            </mxGeometry>
          </mxCell>
        </UserObject>
        <UserObject label="" tags="Background" id="p5UnvhGX0PjjsRk6D67m-420">
          <mxCell style="vsdxID=420;edgeStyle=none;startArrow=none;endArrow=block;startSize=5;endSize=5;strokeWidth=2;strokeColor=#2c769b;spacingTop=0;spacingBottom=0;spacingLeft=0;spacingRight=0;verticalAlign=middle;html=1;labelBackgroundColor=#ffffff;rounded=0;exitX=0.5;exitY=1;exitDx=0;exitDy=0;exitPerimeter=0;entryX=0.5;entryY=0;entryDx=0;entryDy=0;entryPerimeter=0;" edge="1" parent="1" source="p5UnvhGX0PjjsRk6D67m-74" target="p5UnvhGX0PjjsRk6D67m-73">
            <mxGeometry relative="1" as="geometry">
              <mxPoint x="-22" y="117" as="offset" />
              <Array as="points">
                <mxPoint x="1721" y="378.97" />
                <mxPoint x="1758.33" y="378.97" />
              </Array>
            </mxGeometry>
          </mxCell>
        </UserObject>
        <UserObject label="" tags="Background" id="p5UnvhGX0PjjsRk6D67m-426">
          <mxCell style="vsdxID=426;edgeStyle=none;startArrow=none;endArrow=block;startSize=5;endSize=5;strokeWidth=2;strokeColor=#2c769b;spacingTop=0;spacingBottom=0;spacingLeft=0;spacingRight=0;verticalAlign=middle;html=1;labelBackgroundColor=#ffffff;rounded=0;exitX=0.5;exitY=1;exitDx=0;exitDy=0;exitPerimeter=0;entryX=0.5;entryY=0;entryDx=0;entryDy=0;entryPerimeter=0;" edge="1" parent="1" source="p5UnvhGX0PjjsRk6D67m-170" target="p5UnvhGX0PjjsRk6D67m-165">
            <mxGeometry relative="1" as="geometry">
              <mxPoint x="-33" y="135" as="offset" />
              <Array as="points" />
            </mxGeometry>
          </mxCell>
        </UserObject>
        <UserObject label="" tags="Background" id="p5UnvhGX0PjjsRk6D67m-428">
          <mxCell style="vsdxID=428;edgeStyle=none;startArrow=none;endArrow=block;startSize=5;endSize=5;strokeWidth=2;strokeColor=#2c769b;spacingTop=0;spacingBottom=0;spacingLeft=0;spacingRight=0;verticalAlign=middle;html=1;labelBackgroundColor=#ffffff;rounded=0;exitX=0.5;exitY=1;exitDx=0;exitDy=0;exitPerimeter=0;entryX=0.5;entryY=0;entryDx=0;entryDy=0;entryPerimeter=0;" edge="1" parent="1" source="p5UnvhGX0PjjsRk6D67m-72" target="p5UnvhGX0PjjsRk6D67m-101">
            <mxGeometry relative="1" as="geometry">
              <mxPoint x="25" y="118" as="offset" />
              <Array as="points">
                <mxPoint x="1678" y="433.86" />
                <mxPoint x="1634.5" y="433.86" />
              </Array>
            </mxGeometry>
          </mxCell>
        </UserObject>
        <UserObject label="" tags="Background" id="p5UnvhGX0PjjsRk6D67m-436">
          <mxCell style="vsdxID=436;edgeStyle=none;startArrow=none;endArrow=block;startSize=5;endSize=5;strokeWidth=2;strokeColor=#2c769b;spacingTop=0;spacingBottom=0;spacingLeft=0;spacingRight=0;verticalAlign=middle;html=1;labelBackgroundColor=#ffffff;rounded=0;exitX=0.5;exitY=1;exitDx=0;exitDy=0;exitPerimeter=0;entryX=0.5961538461538461;entryY=0;entryDx=0;entryDy=0;entryPerimeter=0;" edge="1" parent="1" source="p5UnvhGX0PjjsRk6D67m-74" target="p5UnvhGX0PjjsRk6D67m-72">
            <mxGeometry relative="1" as="geometry">
              <mxPoint x="21" y="118" as="offset" />
              <Array as="points">
                <mxPoint x="1721" y="378.13" />
                <mxPoint x="1682.83" y="378.13" />
              </Array>
            </mxGeometry>
          </mxCell>
        </UserObject>
        <UserObject label="" tags="Background" id="p5UnvhGX0PjjsRk6D67m-440">
          <mxCell style="vsdxID=440;edgeStyle=none;startArrow=none;endArrow=block;startSize=5;endSize=5;strokeWidth=2;strokeColor=#2c769b;spacingTop=0;spacingBottom=0;spacingLeft=0;spacingRight=0;verticalAlign=middle;html=1;labelBackgroundColor=#ffffff;rounded=0;exitX=0.5;exitY=1;exitDx=0;exitDy=0;exitPerimeter=0;entryX=0.5857142857142857;entryY=0;entryDx=0;entryDy=0;entryPerimeter=0;" edge="1" parent="1" source="p5UnvhGX0PjjsRk6D67m-173" target="p5UnvhGX0PjjsRk6D67m-170">
            <mxGeometry relative="1" as="geometry">
              <mxPoint x="49" y="130" as="offset" />
              <Array as="points" />
            </mxGeometry>
          </mxCell>
        </UserObject>
        <UserObject label="" tags="Background" id="p5UnvhGX0PjjsRk6D67m-447">
          <mxCell style="vsdxID=447;edgeStyle=none;startArrow=none;endArrow=block;startSize=5;endSize=5;strokeWidth=2;strokeColor=#2c769b;spacingTop=0;spacingBottom=0;spacingLeft=0;spacingRight=0;verticalAlign=middle;html=1;labelBackgroundColor=#ffffff;rounded=0;exitX=1;exitY=0.4722222222222222;exitDx=0;exitDy=0;exitPerimeter=0;entryX=0;entryY=0.4722222222222222;entryDx=0;entryDy=0;entryPerimeter=0;" edge="1" parent="1" source="p5UnvhGX0PjjsRk6D67m-149" target="p5UnvhGX0PjjsRk6D67m-150">
            <mxGeometry relative="1" as="geometry">
              <mxPoint x="-17" y="102" as="offset" />
              <Array as="points">
                <mxPoint x="2836.94" y="1338" />
                <mxPoint x="2836.94" y="1338" />
              </Array>
            </mxGeometry>
          </mxCell>
        </UserObject>
        <UserObject label="" tags="Background" id="p5UnvhGX0PjjsRk6D67m-448">
          <mxCell style="vsdxID=448;edgeStyle=none;startArrow=none;endArrow=block;startSize=5;endSize=5;strokeWidth=2;strokeColor=#2c769b;spacingTop=0;spacingBottom=0;spacingLeft=0;spacingRight=0;verticalAlign=middle;html=1;labelBackgroundColor=#ffffff;rounded=0;exitX=1;exitY=0.4927536231884058;exitDx=0;exitDy=0;exitPerimeter=0;entryX=0.5;entryY=1;entryDx=0;entryDy=0;entryPerimeter=0;" edge="1" parent="1" source="p5UnvhGX0PjjsRk6D67m-131" target="p5UnvhGX0PjjsRk6D67m-133">
            <mxGeometry relative="1" as="geometry">
              <mxPoint x="-30" y="67" as="offset" />
              <Array as="points" />
            </mxGeometry>
          </mxCell>
        </UserObject>
        <UserObject label="" tags="Background" id="p5UnvhGX0PjjsRk6D67m-452">
          <mxCell style="vsdxID=452;edgeStyle=none;startArrow=none;endArrow=block;startSize=5;endSize=5;strokeWidth=2;strokeColor=#2c769b;spacingTop=0;spacingBottom=0;spacingLeft=0;spacingRight=0;verticalAlign=middle;html=1;labelBackgroundColor=#ffffff;rounded=0;exitX=1;exitY=0.5072463768115942;exitDx=0;exitDy=0;exitPerimeter=0;entryX=0;entryY=0.4927536231884058;entryDx=0;entryDy=0;entryPerimeter=0;" edge="1" parent="1" source="p5UnvhGX0PjjsRk6D67m-128" target="p5UnvhGX0PjjsRk6D67m-131">
            <mxGeometry relative="1" as="geometry">
              <mxPoint x="-45" y="139" as="offset" />
              <Array as="points" />
            </mxGeometry>
          </mxCell>
        </UserObject>
        <UserObject label="" tags="Background" id="p5UnvhGX0PjjsRk6D67m-461">
          <mxCell style="vsdxID=461;edgeStyle=none;startArrow=none;endArrow=block;startSize=5;endSize=5;strokeWidth=2;strokeColor=#2c769b;spacingTop=0;spacingBottom=0;spacingLeft=0;spacingRight=0;verticalAlign=middle;html=1;labelBackgroundColor=#ffffff;rounded=0;exitX=0.5;exitY=1;exitDx=0;exitDy=0;exitPerimeter=0;entryX=0.4;entryY=0;entryDx=0;entryDy=0;entryPerimeter=0;" edge="1" parent="1" source="p5UnvhGX0PjjsRk6D67m-173" target="p5UnvhGX0PjjsRk6D67m-171">
            <mxGeometry relative="1" as="geometry">
              <mxPoint x="-60" y="130" as="offset" />
              <Array as="points" />
            </mxGeometry>
          </mxCell>
        </UserObject>
        <UserObject label="" tags="Background" id="p5UnvhGX0PjjsRk6D67m-467">
          <mxCell style="vsdxID=467;edgeStyle=none;startArrow=none;endArrow=block;startSize=5;endSize=5;strokeWidth=2;strokeColor=#2c769b;spacingTop=0;spacingBottom=0;spacingLeft=0;spacingRight=0;verticalAlign=middle;html=1;labelBackgroundColor=#ffffff;rounded=0;exitX=0.5;exitY=1;exitDx=0;exitDy=0;exitPerimeter=0;entryX=0.5;entryY=0;entryDx=0;entryDy=0;entryPerimeter=0;" edge="1" parent="1" source="p5UnvhGX0PjjsRk6D67m-171" target="p5UnvhGX0PjjsRk6D67m-166">
            <mxGeometry relative="1" as="geometry">
              <mxPoint x="29" y="131" as="offset" />
              <Array as="points" />
            </mxGeometry>
          </mxCell>
        </UserObject>
        <UserObject label="" tags="Background" id="p5UnvhGX0PjjsRk6D67m-472">
          <mxCell style="vsdxID=472;edgeStyle=none;startArrow=none;endArrow=block;startSize=5;endSize=5;strokeWidth=2;strokeColor=#2c769b;spacingTop=0;spacingBottom=0;spacingLeft=0;spacingRight=0;verticalAlign=middle;html=1;labelBackgroundColor=#ffffff;rounded=0;exitX=0.5;exitY=1;exitDx=0;exitDy=0;exitPerimeter=0;entryX=0.5;entryY=0;entryDx=0;entryDy=0;entryPerimeter=0;" edge="1" parent="1" source="p5UnvhGX0PjjsRk6D67m-168" target="p5UnvhGX0PjjsRk6D67m-160">
            <mxGeometry relative="1" as="geometry">
              <mxPoint x="29" y="132" as="offset" />
              <Array as="points" />
            </mxGeometry>
          </mxCell>
        </UserObject>
        <UserObject label="" tags="Background" id="p5UnvhGX0PjjsRk6D67m-473">
          <mxCell style="vsdxID=473;edgeStyle=none;startArrow=none;endArrow=block;startSize=5;endSize=5;strokeWidth=2;strokeColor=#2c769b;spacingTop=0;spacingBottom=0;spacingLeft=0;spacingRight=0;verticalAlign=middle;html=1;labelBackgroundColor=#ffffff;rounded=0;exitX=0.5;exitY=1;exitDx=0;exitDy=0;exitPerimeter=0;entryX=0.5;entryY=0;entryDx=0;entryDy=0;entryPerimeter=0;" edge="1" parent="1" source="p5UnvhGX0PjjsRk6D67m-174" target="p5UnvhGX0PjjsRk6D67m-172">
            <mxGeometry relative="1" as="geometry">
              <mxPoint x="105" y="151" as="offset" />
              <Array as="points" />
            </mxGeometry>
          </mxCell>
        </UserObject>
        <UserObject label="" tags="Background" id="p5UnvhGX0PjjsRk6D67m-477">
          <mxCell style="vsdxID=477;edgeStyle=none;startArrow=none;endArrow=block;startSize=5;endSize=5;strokeWidth=2;strokeColor=#2c769b;spacingTop=0;spacingBottom=0;spacingLeft=0;spacingRight=0;verticalAlign=middle;html=1;labelBackgroundColor=#ffffff;rounded=0;exitX=1;exitY=0.5072463768115942;exitDx=0;exitDy=0;exitPerimeter=0;entryX=0;entryY=0.5072463768115942;entryDx=0;entryDy=0;entryPerimeter=0;" edge="1" parent="1" source="p5UnvhGX0PjjsRk6D67m-129" target="p5UnvhGX0PjjsRk6D67m-128">
            <mxGeometry relative="1" as="geometry">
              <mxPoint x="-50" y="55" as="offset" />
              <Array as="points" />
            </mxGeometry>
          </mxCell>
        </UserObject>
        <UserObject label="" tags="Background" id="p5UnvhGX0PjjsRk6D67m-481">
          <mxCell style="vsdxID=481;edgeStyle=none;startArrow=none;endArrow=block;startSize=5;endSize=5;strokeWidth=2;strokeColor=#2c769b;spacingTop=0;spacingBottom=0;spacingLeft=0;spacingRight=0;verticalAlign=middle;html=1;labelBackgroundColor=#ffffff;rounded=0;exitX=0.5;exitY=1;exitDx=0;exitDy=0;exitPerimeter=0;entryX=0.5;entryY=0;entryDx=0;entryDy=0;entryPerimeter=0;" edge="1" parent="1" source="p5UnvhGX0PjjsRk6D67m-171" target="p5UnvhGX0PjjsRk6D67m-167">
            <mxGeometry relative="1" as="geometry">
              <mxPoint x="-40" y="132" as="offset" />
              <Array as="points" />
            </mxGeometry>
          </mxCell>
        </UserObject>
        <UserObject label="" tags="Background" id="p5UnvhGX0PjjsRk6D67m-482">
          <mxCell style="vsdxID=482;edgeStyle=none;startArrow=none;endArrow=block;startSize=5;endSize=5;strokeWidth=2;strokeColor=#2c769b;spacingTop=0;spacingBottom=0;spacingLeft=0;spacingRight=0;verticalAlign=middle;html=1;labelBackgroundColor=#ffffff;rounded=0;exitX=0.5;exitY=1;exitDx=0;exitDy=0;exitPerimeter=0;entryX=0.5;entryY=0;entryDx=0;entryDy=0;entryPerimeter=0;" edge="1" parent="1" source="p5UnvhGX0PjjsRk6D67m-172" target="p5UnvhGX0PjjsRk6D67m-168">
            <mxGeometry relative="1" as="geometry">
              <mxPoint x="63" y="137" as="offset" />
              <Array as="points" />
            </mxGeometry>
          </mxCell>
        </UserObject>
        <UserObject label="" tags="Background" id="p5UnvhGX0PjjsRk6D67m-484">
          <mxCell style="vsdxID=484;edgeStyle=none;startArrow=none;endArrow=block;startSize=5;endSize=5;strokeWidth=2;strokeColor=#2c769b;spacingTop=0;spacingBottom=0;spacingLeft=0;spacingRight=0;verticalAlign=middle;html=1;labelBackgroundColor=#ffffff;rounded=0;exitX=1;exitY=0.5277777777777778;exitDx=0;exitDy=0;exitPerimeter=0;entryX=0;entryY=0.5277777777777778;entryDx=0;entryDy=0;entryPerimeter=0;" edge="1" parent="1" source="p5UnvhGX0PjjsRk6D67m-148" target="p5UnvhGX0PjjsRk6D67m-149">
            <mxGeometry relative="1" as="geometry">
              <mxPoint x="-12" y="102" as="offset" />
              <Array as="points">
                <mxPoint x="2675.04" y="1340" />
                <mxPoint x="2675.04" y="1340" />
              </Array>
            </mxGeometry>
          </mxCell>
        </UserObject>
        <UserObject label="" tags="Background" id="p5UnvhGX0PjjsRk6D67m-486">
          <mxCell style="vsdxID=486;edgeStyle=none;startArrow=none;endArrow=block;startSize=5;endSize=5;strokeWidth=2;strokeColor=#2c769b;spacingTop=0;spacingBottom=0;spacingLeft=0;spacingRight=0;verticalAlign=middle;html=1;labelBackgroundColor=#ffffff;rounded=0;exitX=1;exitY=0.5277777777777778;exitDx=0;exitDy=0;exitPerimeter=0;entryX=0;entryY=0.5277777777777778;entryDx=0;entryDy=0;entryPerimeter=0;" edge="1" parent="1" source="p5UnvhGX0PjjsRk6D67m-144" target="p5UnvhGX0PjjsRk6D67m-145">
            <mxGeometry relative="1" as="geometry">
              <mxPoint x="-12" y="102" as="offset" />
              <Array as="points">
                <mxPoint x="2675.04" y="1276" />
                <mxPoint x="2675.04" y="1276" />
              </Array>
            </mxGeometry>
          </mxCell>
        </UserObject>
        <UserObject label="" tags="Background" id="p5UnvhGX0PjjsRk6D67m-487">
          <mxCell style="vsdxID=487;edgeStyle=none;startArrow=none;endArrow=block;startSize=5;endSize=5;strokeWidth=2;strokeColor=#2c769b;spacingTop=0;spacingBottom=0;spacingLeft=0;spacingRight=0;verticalAlign=middle;html=1;labelBackgroundColor=#ffffff;rounded=0;exitX=0.5;exitY=1;exitDx=0;exitDy=0;exitPerimeter=0;entryX=0.5;entryY=0;entryDx=0;entryDy=0;entryPerimeter=0;" edge="1" parent="1" source="p5UnvhGX0PjjsRk6D67m-168" target="p5UnvhGX0PjjsRk6D67m-161">
            <mxGeometry relative="1" as="geometry">
              <mxPoint x="-31" y="132" as="offset" />
              <Array as="points" />
            </mxGeometry>
          </mxCell>
        </UserObject>
        <UserObject label="" tags="Background" id="p5UnvhGX0PjjsRk6D67m-492">
          <mxCell style="vsdxID=492;edgeStyle=none;startArrow=none;endArrow=block;startSize=5;endSize=5;strokeWidth=2;strokeColor=#2c769b;spacingTop=0;spacingBottom=0;spacingLeft=0;spacingRight=0;verticalAlign=middle;html=1;labelBackgroundColor=#ffffff;rounded=0;exitX=0.5;exitY=1;exitDx=0;exitDy=0;exitPerimeter=0;entryX=0.5;entryY=0;entryDx=0;entryDy=0;entryPerimeter=0;" edge="1" parent="1" source="p5UnvhGX0PjjsRk6D67m-73" target="p5UnvhGX0PjjsRk6D67m-103">
            <mxGeometry relative="1" as="geometry">
              <mxPoint y="115" as="offset" />
              <Array as="points">
                <mxPoint x="1759" y="433.86" />
                <mxPoint x="1759" y="433.86" />
              </Array>
            </mxGeometry>
          </mxCell>
        </UserObject>
        <UserObject label="" tags="Background" id="p5UnvhGX0PjjsRk6D67m-496">
          <mxCell style="vsdxID=496;edgeStyle=none;startArrow=none;endArrow=block;startSize=5;endSize=5;strokeWidth=2;strokeColor=#2c769b;spacingTop=0;spacingBottom=0;spacingLeft=0;spacingRight=0;verticalAlign=middle;html=1;labelBackgroundColor=#ffffff;rounded=0;exitX=1;exitY=0.5072463768115942;exitDx=0;exitDy=0;exitPerimeter=0;entryX=0;entryY=0.5072463768115942;entryDx=0;entryDy=0;entryPerimeter=0;" edge="1" parent="1" source="p5UnvhGX0PjjsRk6D67m-130" target="p5UnvhGX0PjjsRk6D67m-128">
            <mxGeometry relative="1" as="geometry">
              <mxPoint x="-55" y="155" as="offset" />
              <Array as="points" />
            </mxGeometry>
          </mxCell>
        </UserObject>
        <UserObject label="" tags="Background" id="p5UnvhGX0PjjsRk6D67m-499">
          <mxCell style="vsdxID=499;edgeStyle=none;startArrow=none;endArrow=block;startSize=5;endSize=5;strokeWidth=2;strokeColor=#2c769b;spacingTop=0;spacingBottom=0;spacingLeft=0;spacingRight=0;verticalAlign=middle;html=1;labelBackgroundColor=#ffffff;rounded=0;exitX=1;exitY=0.5;exitDx=0;exitDy=0;exitPerimeter=0;entryX=0;entryY=0.5;entryDx=0;entryDy=0;entryPerimeter=0;" edge="1" parent="1" source="p5UnvhGX0PjjsRk6D67m-83" target="p5UnvhGX0PjjsRk6D67m-93">
            <mxGeometry relative="1" as="geometry">
              <mxPoint x="-71" y="102" as="offset" />
              <Array as="points">
                <mxPoint x="2027.5" y="181" />
                <mxPoint x="2027.5" y="181" />
              </Array>
            </mxGeometry>
          </mxCell>
        </UserObject>
        <UserObject label="" tags="Background" id="p5UnvhGX0PjjsRk6D67m-506">
          <mxCell style="vsdxID=506;edgeStyle=none;startArrow=block;endArrow=block;startSize=5;endSize=5;strokeWidth=2;strokeColor=#2c769b;spacingTop=0;spacingBottom=0;spacingLeft=0;spacingRight=0;verticalAlign=middle;html=1;labelBackgroundColor=#ffffff;rounded=0;exitX=1;exitY=0.5072463768115942;exitDx=0;exitDy=0;exitPerimeter=0;entryX=0;entryY=0.5072463768115942;entryDx=0;entryDy=0;entryPerimeter=0;" edge="1" parent="1" source="p5UnvhGX0PjjsRk6D67m-237" target="p5UnvhGX0PjjsRk6D67m-231">
            <mxGeometry relative="1" as="geometry">
              <mxPoint x="-189" y="102" as="offset" />
              <Array as="points" />
            </mxGeometry>
          </mxCell>
        </UserObject>
        <UserObject label="" tags="Background" id="p5UnvhGX0PjjsRk6D67m-515">
          <mxCell style="vsdxID=515;edgeStyle=none;startArrow=block;endArrow=block;startSize=5;endSize=5;strokeWidth=2;strokeColor=#2c769b;spacingTop=0;spacingBottom=0;spacingLeft=0;spacingRight=0;verticalAlign=middle;html=1;labelBackgroundColor=#ffffff;rounded=0;exitX=1;exitY=0.5072463768115942;exitDx=0;exitDy=0;exitPerimeter=0;entryX=0;entryY=0.5072463768115942;entryDx=0;entryDy=0;entryPerimeter=0;" edge="1" parent="1" source="p5UnvhGX0PjjsRk6D67m-232" target="p5UnvhGX0PjjsRk6D67m-231">
            <mxGeometry relative="1" as="geometry">
              <mxPoint x="-85" y="42" as="offset" />
              <Array as="points" />
            </mxGeometry>
          </mxCell>
        </UserObject>
        <UserObject label="" tags="Background" id="p5UnvhGX0PjjsRk6D67m-516">
          <mxCell style="vsdxID=516;edgeStyle=none;startArrow=none;endArrow=block;startSize=5;endSize=5;strokeWidth=2;strokeColor=#2c769b;spacingTop=0;spacingBottom=0;spacingLeft=0;spacingRight=0;verticalAlign=middle;html=1;labelBackgroundColor=#ffffff;rounded=0;exitX=1;exitY=0.5072463768115942;exitDx=0;exitDy=0;exitPerimeter=0;entryX=0;entryY=0.4927536231884058;entryDx=0;entryDy=0;entryPerimeter=0;" edge="1" parent="1" source="p5UnvhGX0PjjsRk6D67m-130" target="p5UnvhGX0PjjsRk6D67m-132">
            <mxGeometry relative="1" as="geometry">
              <mxPoint x="-123" y="87" as="offset" />
              <Array as="points" />
            </mxGeometry>
          </mxCell>
        </UserObject>
        <UserObject label="" tags="Background" id="p5UnvhGX0PjjsRk6D67m-521">
          <mxCell style="vsdxID=521;edgeStyle=none;startArrow=none;endArrow=block;startSize=5;endSize=5;strokeWidth=2;strokeColor=#2c769b;spacingTop=0;spacingBottom=0;spacingLeft=0;spacingRight=0;verticalAlign=middle;html=1;labelBackgroundColor=#ffffff;rounded=0;exitX=0.5;exitY=1;exitDx=0;exitDy=0;exitPerimeter=0;entryX=0.38571428571428573;entryY=0;entryDx=0;entryDy=0;entryPerimeter=0;" edge="1" parent="1" source="p5UnvhGX0PjjsRk6D67m-172" target="p5UnvhGX0PjjsRk6D67m-169">
            <mxGeometry relative="1" as="geometry">
              <mxPoint x="-48" y="141" as="offset" />
              <Array as="points" />
            </mxGeometry>
          </mxCell>
        </UserObject>
        <UserObject label="" tags="Background" id="p5UnvhGX0PjjsRk6D67m-528">
          <mxCell style="vsdxID=528;edgeStyle=none;startArrow=none;endArrow=block;startSize=5;endSize=5;strokeWidth=2;strokeColor=#2c769b;spacingTop=0;spacingBottom=0;spacingLeft=0;spacingRight=0;verticalAlign=middle;html=1;labelBackgroundColor=#ffffff;rounded=0;exitX=0.5;exitY=1;exitDx=0;exitDy=0;exitPerimeter=0;entryX=0.5;entryY=0;entryDx=0;entryDy=0;entryPerimeter=0;" edge="1" parent="1" source="p5UnvhGX0PjjsRk6D67m-169" target="p5UnvhGX0PjjsRk6D67m-162">
            <mxGeometry relative="1" as="geometry">
              <mxPoint x="24" y="128" as="offset" />
              <Array as="points" />
            </mxGeometry>
          </mxCell>
        </UserObject>
        <UserObject label="" tags="Background" id="p5UnvhGX0PjjsRk6D67m-531">
          <mxCell style="vsdxID=531;edgeStyle=none;startArrow=none;endArrow=block;startSize=5;endSize=5;strokeWidth=2;strokeColor=#2c769b;spacingTop=0;spacingBottom=0;spacingLeft=0;spacingRight=0;verticalAlign=middle;html=1;labelBackgroundColor=#ffffff;rounded=0;exitX=1;exitY=0.5072463768115942;exitDx=0;exitDy=0;exitPerimeter=0;entryX=0.5;entryY=1;entryDx=0;entryDy=0;entryPerimeter=0;" edge="1" parent="1" source="p5UnvhGX0PjjsRk6D67m-128" target="p5UnvhGX0PjjsRk6D67m-132">
            <mxGeometry relative="1" as="geometry">
              <mxPoint x="-51" y="50" as="offset" />
              <Array as="points" />
            </mxGeometry>
          </mxCell>
        </UserObject>
        <UserObject label="" tags="Background" id="p5UnvhGX0PjjsRk6D67m-536">
          <mxCell style="vsdxID=536;edgeStyle=none;startArrow=none;endArrow=block;startSize=5;endSize=5;strokeWidth=2;strokeColor=#2c769b;spacingTop=0;spacingBottom=0;spacingLeft=0;spacingRight=0;verticalAlign=middle;html=1;labelBackgroundColor=#ffffff;rounded=0;exitX=0.8;exitY=0.057971014492753624;exitDx=0;exitDy=0;exitPerimeter=0;entryX=0;entryY=0.5072463768115942;entryDx=0;entryDy=0;entryPerimeter=0;" edge="1" parent="1" source="p5UnvhGX0PjjsRk6D67m-127" target="p5UnvhGX0PjjsRk6D67m-130">
            <mxGeometry relative="1" as="geometry">
              <mxPoint x="-42" y="62" as="offset" />
              <Array as="points" />
            </mxGeometry>
          </mxCell>
        </UserObject>
        <UserObject label="" tags="Background" id="p5UnvhGX0PjjsRk6D67m-539">
          <mxCell style="vsdxID=539;edgeStyle=none;startArrow=none;endArrow=block;startSize=5;endSize=5;strokeWidth=2;strokeColor=#2c769b;spacingTop=0;spacingBottom=0;spacingLeft=0;spacingRight=0;verticalAlign=middle;html=1;labelBackgroundColor=#ffffff;rounded=0;exitX=1;exitY=0.4722222222222222;exitDx=0;exitDy=0;exitPerimeter=0;entryX=0;entryY=0.4722222222222222;entryDx=0;entryDy=0;entryPerimeter=0;" edge="1" parent="1" source="p5UnvhGX0PjjsRk6D67m-152" target="p5UnvhGX0PjjsRk6D67m-153">
            <mxGeometry relative="1" as="geometry">
              <mxPoint x="-12" y="102" as="offset" />
              <Array as="points">
                <mxPoint x="2675.04" y="1373" />
                <mxPoint x="2675.04" y="1373" />
              </Array>
            </mxGeometry>
          </mxCell>
        </UserObject>
        <UserObject label="" tags="Background" id="p5UnvhGX0PjjsRk6D67m-542">
          <mxCell style="vsdxID=542;edgeStyle=none;startArrow=none;endArrow=block;startSize=5;endSize=5;strokeWidth=2;strokeColor=#2c769b;spacingTop=0;spacingBottom=0;spacingLeft=0;spacingRight=0;verticalAlign=middle;html=1;labelBackgroundColor=#ffffff;rounded=0;exitX=1;exitY=0.5072463768115942;exitDx=0;exitDy=0;exitPerimeter=0;entryX=0;entryY=0.4927536231884058;entryDx=0;entryDy=0;entryPerimeter=0;" edge="1" parent="1" source="p5UnvhGX0PjjsRk6D67m-128" target="p5UnvhGX0PjjsRk6D67m-133">
            <mxGeometry relative="1" as="geometry">
              <mxPoint x="-91" y="87" as="offset" />
              <Array as="points" />
            </mxGeometry>
          </mxCell>
        </UserObject>
        <UserObject label="" tags="Background" id="p5UnvhGX0PjjsRk6D67m-550">
          <mxCell style="vsdxID=550;edgeStyle=none;startArrow=block;endArrow=block;startSize=5;endSize=5;strokeWidth=2;strokeColor=#2c769b;spacingTop=0;spacingBottom=0;spacingLeft=0;spacingRight=0;verticalAlign=middle;html=1;labelBackgroundColor=#ffffff;rounded=0;exitX=1;exitY=0.5072463768115942;exitDx=0;exitDy=0;exitPerimeter=0;entryX=0;entryY=0.5072463768115942;entryDx=0;entryDy=0;entryPerimeter=0;" edge="1" parent="1" source="p5UnvhGX0PjjsRk6D67m-230" target="p5UnvhGX0PjjsRk6D67m-231">
            <mxGeometry relative="1" as="geometry">
              <mxPoint x="-84" y="171" as="offset" />
              <Array as="points" />
            </mxGeometry>
          </mxCell>
        </UserObject>
        <UserObject label="" tags="Background" id="p5UnvhGX0PjjsRk6D67m-551">
          <mxCell style="vsdxID=551;edgeStyle=none;startArrow=none;endArrow=block;startSize=5;endSize=5;strokeWidth=2;strokeColor=#2c769b;spacingTop=0;spacingBottom=0;spacingLeft=0;spacingRight=0;verticalAlign=middle;html=1;labelBackgroundColor=#ffffff;rounded=0;exitX=0.5;exitY=1;exitDx=0;exitDy=0;exitPerimeter=0;entryX=0.5;entryY=0;entryDx=0;entryDy=0;entryPerimeter=0;" edge="1" parent="1" source="p5UnvhGX0PjjsRk6D67m-170" target="p5UnvhGX0PjjsRk6D67m-164">
            <mxGeometry relative="1" as="geometry">
              <mxPoint x="34" y="131" as="offset" />
              <Array as="points" />
            </mxGeometry>
          </mxCell>
        </UserObject>
        <UserObject label="" tags="Background" id="p5UnvhGX0PjjsRk6D67m-558">
          <mxCell style="vsdxID=558;edgeStyle=none;dashed=1;startArrow=none;endArrow=block;startSize=5;endSize=5;strokeWidth=2;strokeColor=#2c769b;spacingTop=0;spacingBottom=0;spacingLeft=0;spacingRight=0;verticalAlign=middle;html=1;labelBackgroundColor=#ffffff;rounded=0;exitX=0.5;exitY=0;exitDx=0;exitDy=0;exitPerimeter=0;entryX=0.5;entryY=1;entryDx=0;entryDy=0;entryPerimeter=0;" edge="1" parent="1" source="p5UnvhGX0PjjsRk6D67m-134" target="p5UnvhGX0PjjsRk6D67m-128">
            <mxGeometry relative="1" as="geometry">
              <mxPoint x="-29" y="21" as="offset" />
              <Array as="points" />
            </mxGeometry>
          </mxCell>
        </UserObject>
        <UserObject label="" tags="Background" id="p5UnvhGX0PjjsRk6D67m-565">
          <mxCell style="vsdxID=565;edgeStyle=none;startArrow=none;endArrow=block;startSize=5;endSize=5;strokeWidth=2;strokeColor=#2c769b;spacingTop=0;spacingBottom=0;spacingLeft=0;spacingRight=0;verticalAlign=middle;html=1;labelBackgroundColor=#ffffff;rounded=0;exitX=1;exitY=0.5;exitDx=0;exitDy=0;exitPerimeter=0;entryX=0;entryY=0.5;entryDx=0;entryDy=0;entryPerimeter=0;" edge="1" parent="1" source="p5UnvhGX0PjjsRk6D67m-77" target="p5UnvhGX0PjjsRk6D67m-83">
            <mxGeometry relative="1" as="geometry">
              <mxPoint x="-66" y="102" as="offset" />
              <Array as="points">
                <mxPoint x="1751.5" y="181" />
                <mxPoint x="1751.5" y="181" />
              </Array>
            </mxGeometry>
          </mxCell>
        </UserObject>
        <UserObject label="" tags="Background" id="p5UnvhGX0PjjsRk6D67m-570">
          <mxCell style="vsdxID=570;edgeStyle=none;startArrow=none;endArrow=block;startSize=5;endSize=5;strokeWidth=2;strokeColor=#2c769b;spacingTop=0;spacingBottom=0;spacingLeft=0;spacingRight=0;verticalAlign=middle;html=1;labelBackgroundColor=#ffffff;rounded=0;exitX=0.5;exitY=1;exitDx=0;exitDy=0;exitPerimeter=0;entryX=0.5;entryY=0;entryDx=0;entryDy=0;entryPerimeter=0;" edge="1" parent="1" source="p5UnvhGX0PjjsRk6D67m-73" target="p5UnvhGX0PjjsRk6D67m-104">
            <mxGeometry relative="1" as="geometry">
              <mxPoint x="-33" y="118" as="offset" />
              <Array as="points">
                <mxPoint x="1759" y="433.86" />
                <mxPoint x="1817" y="433.86" />
              </Array>
            </mxGeometry>
          </mxCell>
        </UserObject>
        <UserObject label="" tags="Background" id="p5UnvhGX0PjjsRk6D67m-571">
          <mxCell style="vsdxID=571;edgeStyle=none;dashed=1;dashPattern=1.00 4.00;startArrow=none;endArrow=open;startSize=5;endSize=5;strokeWidth=2;strokeColor=#2c769b;spacingTop=0;spacingBottom=0;spacingLeft=0;spacingRight=0;verticalAlign=middle;html=1;labelBackgroundColor=#ffffff;rounded=0;exitX=1;exitY=0.5;exitDx=0;exitDy=0;exitPerimeter=0;entryX=0.5;entryY=0;entryDx=0;entryDy=0;entryPerimeter=0;" edge="1" parent="1" source="p5UnvhGX0PjjsRk6D67m-76" target="p5UnvhGX0PjjsRk6D67m-74">
            <mxGeometry relative="1" as="geometry">
              <mxPoint x="-36" y="211" as="offset" />
              <Array as="points">
                <mxPoint x="1721.67" y="154" />
              </Array>
            </mxGeometry>
          </mxCell>
        </UserObject>
        <UserObject label="" tags="Background" id="p5UnvhGX0PjjsRk6D67m-572">
          <mxCell style="vsdxID=572;edgeStyle=none;startArrow=block;endArrow=block;startSize=5;endSize=5;strokeWidth=2;strokeColor=#2c769b;spacingTop=0;spacingBottom=0;spacingLeft=0;spacingRight=0;verticalAlign=middle;html=1;labelBackgroundColor=#ffffff;rounded=0;exitX=0.5;exitY=0;exitDx=0;exitDy=0;exitPerimeter=0;entryX=0;entryY=0.5072463768115942;entryDx=0;entryDy=0;entryPerimeter=0;" edge="1" parent="1" source="p5UnvhGX0PjjsRk6D67m-237" target="p5UnvhGX0PjjsRk6D67m-230">
            <mxGeometry relative="1" as="geometry">
              <mxPoint x="-88" y="49" as="offset" />
              <Array as="points" />
            </mxGeometry>
          </mxCell>
        </UserObject>
        <UserObject label="" tags="Background" id="p5UnvhGX0PjjsRk6D67m-576">
          <mxCell style="vsdxID=576;edgeStyle=none;dashed=1;startArrow=none;endArrow=block;startSize=5;endSize=5;strokeWidth=2;strokeColor=#2c769b;spacingTop=0;spacingBottom=0;spacingLeft=0;spacingRight=0;verticalAlign=middle;html=1;labelBackgroundColor=#ffffff;rounded=0;exitX=0.5;exitY=0;exitDx=0;exitDy=0;exitPerimeter=0;entryX=0.5;entryY=1;entryDx=0;entryDy=0;entryPerimeter=0;" edge="1" parent="1" source="p5UnvhGX0PjjsRk6D67m-134" target="p5UnvhGX0PjjsRk6D67m-129">
            <mxGeometry relative="1" as="geometry">
              <mxPoint x="55" y="68" as="offset" />
              <Array as="points" />
            </mxGeometry>
          </mxCell>
        </UserObject>
        <UserObject label="" tags="Background" id="p5UnvhGX0PjjsRk6D67m-577">
          <mxCell style="vsdxID=577;edgeStyle=none;startArrow=none;endArrow=block;startSize=5;endSize=5;strokeWidth=2;strokeColor=#2c769b;spacingTop=0;spacingBottom=0;spacingLeft=0;spacingRight=0;verticalAlign=middle;html=1;labelBackgroundColor=#ffffff;rounded=0;exitX=0.5;exitY=1;exitDx=0;exitDy=0;exitPerimeter=0;entryX=0.5;entryY=0;entryDx=0;entryDy=0;entryPerimeter=0;" edge="1" parent="1" source="p5UnvhGX0PjjsRk6D67m-174" target="p5UnvhGX0PjjsRk6D67m-173">
            <mxGeometry relative="1" as="geometry">
              <mxPoint x="-131" y="159" as="offset" />
              <Array as="points" />
            </mxGeometry>
          </mxCell>
        </UserObject>
        <UserObject label="" tags="Background" id="p5UnvhGX0PjjsRk6D67m-579">
          <mxCell style="vsdxID=579;edgeStyle=none;startArrow=none;endArrow=block;startSize=5;endSize=5;strokeWidth=2;strokeColor=#2c769b;spacingTop=0;spacingBottom=0;spacingLeft=0;spacingRight=0;verticalAlign=middle;html=1;labelBackgroundColor=#ffffff;rounded=0;exitX=1;exitY=0.5;exitDx=0;exitDy=0;exitPerimeter=0;entryX=0;entryY=0.5040650406504065;entryDx=0;entryDy=0;entryPerimeter=0;" edge="1" parent="1" source="p5UnvhGX0PjjsRk6D67m-67" target="p5UnvhGX0PjjsRk6D67m-66">
            <mxGeometry relative="1" as="geometry">
              <mxPoint x="-41" y="102" as="offset" />
              <Array as="points">
                <mxPoint x="1503.07" y="181" />
                <mxPoint x="1503.07" y="181" />
              </Array>
            </mxGeometry>
          </mxCell>
        </UserObject>
        <UserObject label="" tags="Background" id="p5UnvhGX0PjjsRk6D67m-584">
          <mxCell style="vsdxID=584;edgeStyle=none;startArrow=none;endArrow=block;startSize=5;endSize=5;strokeWidth=2;strokeColor=#2c769b;spacingTop=0;spacingBottom=0;spacingLeft=0;spacingRight=0;verticalAlign=middle;html=1;labelBackgroundColor=#ffffff;rounded=0;exitX=1;exitY=0.4444444444444444;exitDx=0;exitDy=0;exitPerimeter=0;entryX=0;entryY=0.4444444444444444;entryDx=0;entryDy=0;entryPerimeter=0;" edge="1" parent="1" source="p5UnvhGX0PjjsRk6D67m-146" target="p5UnvhGX0PjjsRk6D67m-147">
            <mxGeometry relative="1" as="geometry">
              <mxPoint x="-12" y="102" as="offset" />
              <Array as="points">
                <mxPoint x="2675.04" y="1307" />
                <mxPoint x="2675.04" y="1307" />
              </Array>
            </mxGeometry>
          </mxCell>
        </UserObject>
        <UserObject label="" tags="Background" id="p5UnvhGX0PjjsRk6D67m-585">
          <mxCell style="vsdxID=585;edgeStyle=none;dashed=1;startArrow=none;endArrow=block;startSize=5;endSize=5;strokeWidth=2;strokeColor=#2c769b;spacingTop=0;spacingBottom=0;spacingLeft=0;spacingRight=0;verticalAlign=middle;html=1;labelBackgroundColor=#ffffff;rounded=0;exitX=0.5;exitY=0;exitDx=0;exitDy=0;exitPerimeter=0;entryX=0;entryY=0.5797101449275363;entryDx=0;entryDy=0;entryPerimeter=0;" edge="1" parent="1" source="p5UnvhGX0PjjsRk6D67m-134" target="p5UnvhGX0PjjsRk6D67m-131">
            <mxGeometry relative="1" as="geometry">
              <mxPoint x="-90" y="45" as="offset" />
              <Array as="points" />
            </mxGeometry>
          </mxCell>
        </UserObject>
        <UserObject label="" tags="Background" id="p5UnvhGX0PjjsRk6D67m-601">
          <mxCell style="vsdxID=601;edgeStyle=none;startArrow=none;endArrow=block;startSize=5;endSize=5;strokeWidth=2;strokeColor=#2c769b;spacingTop=0;spacingBottom=0;spacingLeft=0;spacingRight=0;verticalAlign=middle;html=1;labelBackgroundColor=#ffffff;rounded=0;exitX=0.5;exitY=1;exitDx=0;exitDy=0;exitPerimeter=0;entryX=0;entryY=0.5072463768115942;entryDx=0;entryDy=0;entryPerimeter=0;" edge="1" parent="1" source="p5UnvhGX0PjjsRk6D67m-237" target="p5UnvhGX0PjjsRk6D67m-232">
            <mxGeometry relative="1" as="geometry">
              <mxPoint x="-88" y="143" as="offset" />
              <Array as="points" />
            </mxGeometry>
          </mxCell>
        </UserObject>
      </root>
    </mxGraphModel>
  </diagram>
</mxfile>
